<svg xmlns="http://www.w3.org/2000/svg" xmlns:xlink="http://www.w3.org/1999/xlink" width="200" zoomAndPan="magnify" viewBox="0 0 150 149.999998" height="200" preserveAspectRatio="xMidYMid meet" version="1.0"><defs><clipPath id="e016d2a993"><path d="M 106 68.371094 L 129.375 68.371094 L 129.375 127.390625 L 106 127.390625 Z M 106 68.371094 " clip-rule="nonzero"/></clipPath><clipPath id="6a71a0e4ac"><path d="M 106.53125 68.957031 L 126 68.957031 L 126 127.390625 L 106.53125 127.390625 Z M 106.53125 68.957031 " clip-rule="nonzero"/></clipPath><clipPath id="355ec1f312"><path d="M 107.90625 68.976562 C 116.277344 73.785156 122.933594 81.511719 126.453125 90.5 C 129.96875 99.488281 130.324219 109.679688 127.441406 118.894531 C 126.582031 121.640625 125.339844 124.4375 123.007812 126.128906 C 120.675781 127.816406 117 127.925781 115.191406 125.6875 C 112.777344 122.695312 115.015625 118.394531 116.605469 114.898438 C 120.644531 106.003906 119.726562 95.046875 114.261719 86.953125 C 112.398438 84.195312 110.066406 81.773438 108.347656 78.925781 C 106.628906 76.078125 105.554688 72.589844 107.90625 68.976562 Z M 107.90625 68.976562 " clip-rule="nonzero"/></clipPath><clipPath id="1685705631"><path d="M 20.625 68.371094 L 44 68.371094 L 44 127.390625 L 20.625 127.390625 Z M 20.625 68.371094 " clip-rule="nonzero"/></clipPath><clipPath id="9892b9c2ee"><path d="M 24 68.957031 L 43.5 68.957031 L 43.5 127.390625 L 24 127.390625 Z M 24 68.957031 " clip-rule="nonzero"/></clipPath><clipPath id="bc53be7275"><path d="M 42.09375 68.976562 C 33.722656 73.785156 27.066406 81.511719 23.546875 90.5 C 20.03125 99.488281 19.671875 109.679688 22.558594 118.894531 C 23.417969 121.640625 24.660156 124.4375 26.992188 126.128906 C 29.324219 127.816406 33 127.925781 34.808594 125.6875 C 37.222656 122.695312 34.984375 118.394531 33.394531 114.898438 C 29.355469 106.003906 30.273438 95.046875 35.738281 86.953125 C 37.601562 84.195312 39.933594 81.773438 41.652344 78.925781 C 43.371094 76.078125 44.445312 72.589844 42.09375 68.976562 Z M 42.09375 68.976562 " clip-rule="nonzero"/></clipPath><clipPath id="453c571cb7"><path d="M 49 115 L 73 115 L 73 149.992188 L 49 149.992188 Z M 49 115 " clip-rule="nonzero"/></clipPath><clipPath id="0f9cffc865"><path d="M 49.410156 115.679688 L 71 115.679688 L 71 149 L 49.410156 149 Z M 49.410156 115.679688 " clip-rule="nonzero"/></clipPath><clipPath id="9a742c84ee"><path d="M 57.722656 117.464844 C 58.886719 121.425781 60.058594 125.453125 59.898438 129.535156 C 59.738281 133.621094 58.070312 137.839844 54.417969 140.464844 C 52.417969 141.898438 49.65625 143.152344 49.472656 145.386719 C 49.289062 147.601562 51.917969 149.265625 54.441406 149.753906 C 58.140625 150.464844 62.210938 149.574219 65.058594 147.425781 C 68.230469 145.035156 69.722656 141.410156 70.691406 137.882812 C 71.808594 133.832031 72.410156 129.675781 72.488281 125.511719 C 72.535156 122.953125 72.292969 120.183594 70.378906 118.222656 C 68.695312 116.496094 65.960938 115.722656 63.335938 115.71875 C 60.714844 115.710938 58.15625 116.378906 57.722656 117.464844 Z M 57.722656 117.464844 " clip-rule="nonzero"/></clipPath><clipPath id="16a05f80da"><path d="M 49.410156 115.679688 L 72.5 115.679688 L 72.5 149.992188 L 49.410156 149.992188 Z M 49.410156 115.679688 " clip-rule="nonzero"/></clipPath><clipPath id="92937839c5"><path d="M 57.722656 117.464844 C 58.886719 121.425781 60.058594 125.453125 59.898438 129.535156 C 59.738281 133.621094 58.070312 137.839844 54.417969 140.464844 C 52.417969 141.898438 49.65625 143.152344 49.472656 145.386719 C 49.289062 147.601562 51.917969 149.265625 54.441406 149.753906 C 58.140625 150.464844 62.210938 149.574219 65.058594 147.425781 C 68.230469 145.035156 69.722656 141.410156 70.691406 137.882812 C 71.808594 133.832031 72.410156 129.675781 72.488281 125.511719 C 72.535156 122.953125 72.292969 120.183594 70.378906 118.222656 C 68.695312 116.496094 65.960938 115.722656 63.335938 115.71875 C 60.714844 115.710938 58.15625 116.378906 57.722656 117.464844 Z M 57.722656 117.464844 " clip-rule="nonzero"/></clipPath><clipPath id="3e158d2d13"><path d="M 77 115 L 101 115 L 101 149.992188 L 77 149.992188 Z M 77 115 " clip-rule="nonzero"/></clipPath><clipPath id="aa29fcf64b"><path d="M 79 115.679688 L 100.894531 115.679688 L 100.894531 149 L 79 149 Z M 79 115.679688 " clip-rule="nonzero"/></clipPath><clipPath id="f3aec05ff5"><path d="M 92.617188 117.464844 C 91.457031 121.425781 90.285156 125.453125 90.445312 129.535156 C 90.601562 133.621094 92.273438 137.839844 95.921875 140.464844 C 97.921875 141.898438 100.683594 143.152344 100.871094 145.386719 C 101.054688 147.601562 98.421875 149.265625 95.902344 149.753906 C 92.203125 150.464844 88.132812 149.574219 85.28125 147.425781 C 82.109375 145.035156 80.621094 141.410156 79.648438 137.882812 C 78.535156 133.832031 77.929688 129.675781 77.855469 125.511719 C 77.808594 122.953125 78.046875 120.183594 79.960938 118.222656 C 81.648438 116.496094 84.378906 115.722656 87.003906 115.71875 C 89.628906 115.710938 92.183594 116.378906 92.617188 117.464844 Z M 92.617188 117.464844 " clip-rule="nonzero"/></clipPath><clipPath id="9b58dc16a5"><path d="M 77.800781 115.679688 L 100.894531 115.679688 L 100.894531 149.992188 L 77.800781 149.992188 Z M 77.800781 115.679688 " clip-rule="nonzero"/></clipPath><clipPath id="680f044c3e"><path d="M 92.617188 117.464844 C 91.457031 121.425781 90.285156 125.453125 90.445312 129.535156 C 90.601562 133.621094 92.273438 137.839844 95.921875 140.464844 C 97.921875 141.898438 100.683594 143.152344 100.871094 145.386719 C 101.054688 147.601562 98.421875 149.265625 95.902344 149.753906 C 92.203125 150.464844 88.132812 149.574219 85.28125 147.425781 C 82.109375 145.035156 80.621094 141.410156 79.648438 137.882812 C 78.535156 133.832031 77.929688 129.675781 77.855469 125.511719 C 77.808594 122.953125 78.046875 120.183594 79.960938 118.222656 C 81.648438 116.496094 84.378906 115.722656 87.003906 115.71875 C 89.628906 115.710938 92.183594 116.378906 92.617188 117.464844 Z M 92.617188 117.464844 " clip-rule="nonzero"/></clipPath><clipPath id="ceb1629213"><path d="M 37.527344 34.253906 L 105 34.253906 L 105 121.855469 L 37.527344 121.855469 Z M 37.527344 34.253906 " clip-rule="nonzero"/></clipPath><clipPath id="d256258646"><path d="M 46.300781 113.324219 C 35.203125 100.84375 34.089844 53.816406 46.300781 42.722656 C 57.375 32.664062 94.195312 30.367188 103.246094 42.722656 C 113.230469 56.347656 114.253906 100.738281 103.246094 113.324219 C 93.265625 124.742188 56.367188 124.644531 46.300781 113.324219 Z M 46.300781 113.324219 " clip-rule="nonzero"/></clipPath><clipPath id="231384318e"><path d="M 52 22 L 61 22 L 61 41.09375 L 52 41.09375 Z M 52 22 " clip-rule="nonzero"/></clipPath><clipPath id="4bdf951709"><path d="M 38.03125 0.0078125 L 67.5625 0.0078125 L 67.5625 30 L 38.03125 30 Z M 38.03125 0.0078125 " clip-rule="nonzero"/></clipPath><clipPath id="befdb8ee30"><path d="M 86 22 L 94 22 L 94 41.09375 L 86 41.09375 Z M 86 22 " clip-rule="nonzero"/></clipPath><clipPath id="6426439be3"><path d="M 78.960938 0.0078125 L 108.492188 0.0078125 L 108.492188 30 L 78.960938 30 Z M 78.960938 0.0078125 " clip-rule="nonzero"/></clipPath><clipPath id="79749e4aba"><path d="M 58 48.753906 L 72 48.753906 L 72 60 L 58 60 Z M 58 48.753906 " clip-rule="nonzero"/></clipPath><clipPath id="5ab9863c72"><path d="M 88.882812 48.769531 C 79.207031 48.878906 69.535156 49.707031 59.945312 51.328125 C 55.507812 52.078125 52.5625 56.507812 53.515625 61.011719 C 54.359375 65.011719 55.820312 68.835938 58.097656 72.164062 C 61.921875 77.746094 68.3125 81.71875 74.988281 81.371094 C 79.023438 81.160156 82.902344 79.425781 86.203125 76.988281 C 91.714844 72.914062 95.726562 66.769531 96.625 57.472656 C 97.082031 52.761719 93.480469 48.71875 88.882812 48.769531 Z M 88.882812 48.769531 " clip-rule="nonzero"/></clipPath><clipPath id="5404db4b1a"><path d="M 61 48.753906 L 71.558594 48.753906 L 71.558594 59.160156 L 61 59.160156 Z M 61 48.753906 " clip-rule="nonzero"/></clipPath><clipPath id="a9d188c96c"><path d="M 88.882812 48.769531 C 79.207031 48.878906 69.535156 49.707031 59.945312 51.328125 C 55.507812 52.078125 52.5625 56.507812 53.515625 61.011719 C 54.359375 65.011719 55.820312 68.835938 58.097656 72.164062 C 61.921875 77.746094 68.3125 81.71875 74.988281 81.371094 C 79.023438 81.160156 82.902344 79.425781 86.203125 76.988281 C 91.714844 72.914062 95.726562 66.769531 96.625 57.472656 C 97.082031 52.761719 93.480469 48.71875 88.882812 48.769531 Z M 88.882812 48.769531 " clip-rule="nonzero"/></clipPath><clipPath id="e4fd10e5bf"><path d="M 58.84375 50.363281 C 59.402344 53.015625 60.78125 55.515625 62.769531 57.488281 C 63.738281 58.449219 65.046875 59.339844 66.441406 59.113281 C 67.949219 58.867188 68.847656 57.445312 69.464844 56.144531 C 70.109375 54.78125 70.675781 53.382812 71.15625 51.957031 C 71.445312 51.097656 71.703125 50.160156 71.367188 49.316406 C 71 48.390625 70.003906 47.804688 69.007812 47.464844 C 65.433594 46.25 61.054688 47.570312 58.84375 50.363281 Z M 58.84375 50.363281 " clip-rule="nonzero"/></clipPath><clipPath id="a4589845c4"><path d="M 77 48.753906 L 90 48.753906 L 90 58 L 77 58 Z M 77 48.753906 " clip-rule="nonzero"/></clipPath><clipPath id="4005c0cc08"><path d="M 88.882812 48.769531 C 79.207031 48.878906 69.535156 49.707031 59.945312 51.328125 C 55.507812 52.078125 52.5625 56.507812 53.515625 61.011719 C 54.359375 65.011719 55.820312 68.835938 58.097656 72.164062 C 61.921875 77.746094 68.3125 81.71875 74.988281 81.371094 C 79.023438 81.160156 82.902344 79.425781 86.203125 76.988281 C 91.714844 72.914062 95.726562 66.769531 96.625 57.472656 C 97.082031 52.761719 93.480469 48.71875 88.882812 48.769531 Z M 88.882812 48.769531 " clip-rule="nonzero"/></clipPath><clipPath id="3818dee293"><path d="M 80 48.753906 L 89.75 48.753906 L 89.75 57.613281 L 80 57.613281 Z M 80 48.753906 " clip-rule="nonzero"/></clipPath><clipPath id="0b27d3402f"><path d="M 88.882812 48.769531 C 79.207031 48.878906 69.535156 49.707031 59.945312 51.328125 C 55.507812 52.078125 52.5625 56.507812 53.515625 61.011719 C 54.359375 65.011719 55.820312 68.835938 58.097656 72.164062 C 61.921875 77.746094 68.3125 81.71875 74.988281 81.371094 C 79.023438 81.160156 82.902344 79.425781 86.203125 76.988281 C 91.714844 72.914062 95.726562 66.769531 96.625 57.472656 C 97.082031 52.761719 93.480469 48.71875 88.882812 48.769531 Z M 88.882812 48.769531 " clip-rule="nonzero"/></clipPath><clipPath id="da09e9c2e3"><path d="M 77.035156 48.8125 C 77.589844 51.460938 78.96875 53.960938 80.957031 55.9375 C 81.925781 56.894531 83.238281 57.789062 84.632812 57.558594 C 86.140625 57.3125 87.035156 55.890625 87.652344 54.59375 C 88.300781 53.226562 88.863281 51.828125 89.34375 50.40625 C 89.632812 49.546875 89.890625 48.609375 89.554688 47.761719 C 89.191406 46.835938 88.195312 46.253906 87.195312 45.914062 C 83.625 44.699219 79.246094 46.015625 77.035156 48.8125 Z M 77.035156 48.8125 " clip-rule="nonzero"/></clipPath><clipPath id="839c290a8b"><path d="M 63 73 L 87 73 L 87 81.445312 L 63 81.445312 Z M 63 73 " clip-rule="nonzero"/></clipPath><clipPath id="d0bafd2c0d"><path d="M 88.882812 48.769531 C 79.207031 48.878906 69.535156 49.707031 59.945312 51.328125 C 55.507812 52.078125 52.5625 56.507812 53.515625 61.011719 C 54.359375 65.011719 55.820312 68.835938 58.097656 72.164062 C 61.921875 77.746094 68.3125 81.71875 74.988281 81.371094 C 79.023438 81.160156 82.902344 79.425781 86.203125 76.988281 C 91.714844 72.914062 95.726562 66.769531 96.625 57.472656 C 97.082031 52.761719 93.480469 48.71875 88.882812 48.769531 Z M 88.882812 48.769531 " clip-rule="nonzero"/></clipPath><clipPath id="e027178f3e"><path d="M 63.101562 73.589844 L 85 73.589844 L 85 81.445312 L 63.101562 81.445312 Z M 63.101562 73.589844 " clip-rule="nonzero"/></clipPath><clipPath id="dae168f6b9"><path d="M 88.882812 48.769531 C 79.207031 48.878906 69.535156 49.707031 59.945312 51.328125 C 55.507812 52.078125 52.5625 56.507812 53.515625 61.011719 C 54.359375 65.011719 55.820312 68.835938 58.097656 72.164062 C 61.921875 77.746094 68.3125 81.71875 74.988281 81.371094 C 79.023438 81.160156 82.902344 79.425781 86.203125 76.988281 C 91.714844 72.914062 95.726562 66.769531 96.625 57.472656 C 97.082031 52.761719 93.480469 48.71875 88.882812 48.769531 Z M 88.882812 48.769531 " clip-rule="nonzero"/></clipPath><clipPath id="23707d9f99"><path d="M 86.875 77.421875 C 83.816406 74.519531 79.339844 72.789062 75.296875 73.980469 C 74.039062 74.351562 72.847656 74.988281 71.542969 75.140625 C 70.527344 75.257812 69.488281 75.070312 68.472656 75.203125 C 65.929688 75.535156 64.089844 77.714844 63.253906 79.4375 C 62.496094 82.746094 65.179688 86.128906 68.433594 87.101562 C 71.683594 88.078125 75.222656 87.167969 78.292969 85.71875 C 81.691406 84.117188 84.773438 81.855469 86.875 77.421875 Z M 86.875 77.421875 " clip-rule="nonzero"/></clipPath></defs><g clip-path="url(#e016d2a993)"><path fill="#946be1" d="M 107.90625 68.976562 C 116.277344 73.785156 122.933594 81.511719 126.453125 90.5 C 129.96875 99.488281 130.324219 109.679688 127.441406 118.894531 C 126.582031 121.640625 125.339844 124.4375 123.007812 126.128906 C 120.675781 127.816406 117 127.925781 115.191406 125.6875 C 112.777344 122.695312 115.015625 118.394531 116.605469 114.898438 C 120.644531 106.003906 119.726562 95.046875 114.261719 86.953125 C 112.398438 84.195312 110.066406 81.773438 108.347656 78.925781 C 106.628906 76.078125 105.554688 72.589844 107.90625 68.976562 Z M 107.90625 68.976562 " fill-opacity="1" fill-rule="nonzero"/></g><g clip-path="url(#6a71a0e4ac)"><g clip-path="url(#355ec1f312)"><path fill="#ffffff" d="M 106.609375 68.371094 C 111.039062 69.921875 114.863281 72.984375 117.71875 76.710938 C 120.574219 80.441406 122.5 84.820312 123.773438 89.339844 C 126.253906 98.121094 126.308594 107.574219 123.929688 116.382812 C 123.34375 118.550781 122.601562 120.699219 121.394531 122.589844 C 120.1875 124.480469 118.472656 126.105469 116.367188 126.882812 C 112.84375 128.183594 108.738281 126.855469 105.960938 124.320312 C 103.1875 121.789062 101.550781 118.238281 100.429688 114.65625 C 96.847656 103.207031 97.875 90.824219 100.164062 79.050781 C 100.542969 77.085938 100.964844 75.109375 101.824219 73.304688 C 102.683594 71.5 104.023438 69.855469 106.609375 68.371094 Z M 106.609375 68.371094 " fill-opacity="0.1373" fill-rule="nonzero"/></g></g><g clip-path="url(#1685705631)"><path fill="#946be1" d="M 42.09375 68.976562 C 33.722656 73.785156 27.066406 81.511719 23.546875 90.5 C 20.03125 99.488281 19.675781 109.679688 22.558594 118.894531 C 23.417969 121.640625 24.660156 124.4375 26.992188 126.128906 C 29.324219 127.816406 33 127.925781 34.808594 125.6875 C 37.222656 122.695312 34.984375 118.394531 33.394531 114.898438 C 29.355469 106.003906 30.273438 95.046875 35.738281 86.953125 C 37.601562 84.195312 39.933594 81.773438 41.652344 78.925781 C 43.371094 76.078125 44.445312 72.589844 42.09375 68.976562 Z M 42.09375 68.976562 " fill-opacity="1" fill-rule="nonzero"/></g><g clip-path="url(#9892b9c2ee)"><g clip-path="url(#bc53be7275)"><path fill="#ffffff" d="M 43.390625 68.371094 C 38.957031 69.921875 35.136719 72.984375 32.28125 76.710938 C 29.425781 80.441406 27.5 84.820312 26.222656 89.339844 C 23.746094 98.121094 23.691406 107.574219 26.070312 116.382812 C 26.65625 118.550781 27.398438 120.699219 28.605469 122.589844 C 29.8125 124.480469 31.527344 126.105469 33.632812 126.882812 C 37.15625 128.183594 41.261719 126.855469 44.039062 124.320312 C 46.8125 121.789062 48.449219 118.238281 49.570312 114.65625 C 53.152344 103.207031 52.125 90.824219 49.835938 79.050781 C 49.457031 77.085938 49.035156 75.109375 48.175781 73.304688 C 47.316406 71.496094 45.976562 69.855469 43.390625 68.371094 Z M 43.390625 68.371094 " fill-opacity="0.1373" fill-rule="nonzero"/></g></g><g clip-path="url(#453c571cb7)"><path fill="#946be1" d="M 57.722656 117.464844 C 58.886719 121.425781 60.058594 125.453125 59.898438 129.535156 C 59.738281 133.621094 58.070312 137.839844 54.417969 140.464844 C 52.417969 141.898438 49.65625 143.152344 49.472656 145.386719 C 49.289062 147.601562 51.917969 149.265625 54.441406 149.753906 C 58.140625 150.464844 62.210938 149.574219 65.058594 147.425781 C 68.230469 145.035156 69.722656 141.410156 70.691406 137.882812 C 71.808594 133.832031 72.410156 129.675781 72.488281 125.511719 C 72.535156 122.953125 72.292969 120.183594 70.378906 118.222656 C 68.695312 116.496094 65.960938 115.722656 63.335938 115.71875 C 60.714844 115.710938 58.15625 116.378906 57.722656 117.464844 Z M 57.722656 117.464844 " fill-opacity="0.6118" fill-rule="nonzero"/></g><g clip-path="url(#0f9cffc865)"><g clip-path="url(#9a742c84ee)"><path fill="#d1c0f2" d="M 69.851562 121.046875 C 72.308594 130.59375 67.609375 141.515625 58.988281 146.296875 C 55.0625 148.472656 49.648438 149.214844 46.457031 146.0625 C 43.574219 143.21875 43.777344 138.515625 44.789062 134.597656 C 45.972656 130.015625 47.984375 125.648438 50.703125 121.773438 C 53.050781 118.421875 56.179688 115.289062 60.1875 114.453125 C 64.191406 113.617188 68.578125 116.085938 69.851562 121.046875 Z M 69.851562 121.046875 " fill-opacity="0.6118" fill-rule="nonzero"/></g></g><g clip-path="url(#16a05f80da)"><g clip-path="url(#92937839c5)"><path stroke-linecap="butt" transform="matrix(0.0671255, 0, 0, 0.0671255, -45.775527, -42.469596)" fill="none" stroke-linejoin="miter" d="M 1314.442107 2730.672748 C 1518.234874 2654.672361 1760.376994 2692.381588 1931.348768 2826.749806 " stroke="#ffffff" stroke-width="68.475998" stroke-opacity="0.6118" stroke-miterlimit="10"/><path stroke-linecap="butt" transform="matrix(0.0671255, 0, 0, 0.0671255, -45.775527, -42.469596)" fill="none" stroke-linejoin="miter" d="M 1349.183478 2609.165238 C 1552.918052 2533.164852 1795.060172 2570.932272 1966.090139 2705.242297 " stroke="#ffffff" stroke-width="68.475998" stroke-opacity="0.6118" stroke-miterlimit="10"/></g></g><g clip-path="url(#3e158d2d13)"><path fill="#946be1" d="M 92.617188 117.464844 C 91.457031 121.425781 90.285156 125.453125 90.445312 129.535156 C 90.601562 133.621094 92.273438 137.839844 95.921875 140.464844 C 97.921875 141.898438 100.683594 143.152344 100.871094 145.386719 C 101.054688 147.601562 98.421875 149.265625 95.902344 149.753906 C 92.203125 150.464844 88.132812 149.574219 85.28125 147.425781 C 82.109375 145.035156 80.621094 141.410156 79.648438 137.882812 C 78.535156 133.832031 77.929688 129.675781 77.855469 125.511719 C 77.808594 122.953125 78.046875 120.183594 79.960938 118.222656 C 81.648438 116.496094 84.378906 115.722656 87.003906 115.71875 C 89.628906 115.710938 92.183594 116.378906 92.617188 117.464844 Z M 92.617188 117.464844 " fill-opacity="0.6118" fill-rule="nonzero"/></g><g clip-path="url(#aa29fcf64b)"><g clip-path="url(#f3aec05ff5)"><path fill="#d1c0f2" d="M 80.488281 121.046875 C 78.035156 130.59375 82.734375 141.515625 91.355469 146.296875 C 95.277344 148.472656 100.695312 149.214844 103.886719 146.0625 C 106.765625 143.21875 106.566406 138.515625 105.554688 134.597656 C 104.371094 130.015625 102.355469 125.648438 99.640625 121.773438 C 97.292969 118.421875 94.160156 115.289062 90.15625 114.453125 C 86.148438 113.617188 81.765625 116.085938 80.488281 121.046875 Z M 80.488281 121.046875 " fill-opacity="0.6118" fill-rule="nonzero"/></g></g><g clip-path="url(#9b58dc16a5)"><g clip-path="url(#680f044c3e)"><path stroke-linecap="butt" transform="matrix(0.0671255, 0, 0, 0.0671255, -45.775527, -42.469596)" fill="none" stroke-linejoin="miter" d="M 2289.120879 2730.672748 C 2085.386305 2654.672361 1843.244185 2692.381588 1672.214218 2826.749806 " stroke="#ffffff" stroke-width="68.475998" stroke-opacity="0.6118" stroke-miterlimit="10"/><path stroke-linecap="butt" transform="matrix(0.0671255, 0, 0, 0.0671255, -45.775527, -42.469596)" fill="none" stroke-linejoin="miter" d="M 2254.437701 2609.165238 C 2050.644933 2533.164852 1808.502813 2570.932272 1637.53104 2705.242297 " stroke="#ffffff" stroke-width="68.475998" stroke-opacity="0.6118" stroke-miterlimit="10"/></g></g><path fill="#946be1" d="M 46.300781 113.324219 C 35.203125 100.84375 34.089844 53.816406 46.300781 42.722656 C 57.375 32.664062 94.195312 30.367188 103.246094 42.722656 C 113.230469 56.347656 114.253906 100.738281 103.246094 113.324219 C 93.265625 124.742188 56.367188 124.644531 46.300781 113.324219 Z M 46.300781 113.324219 " fill-opacity="1" fill-rule="nonzero"/><g clip-path="url(#ceb1629213)"><g clip-path="url(#d256258646)"><path fill="#ffffff" d="M 99.609375 31.964844 C 105.070312 49.84375 106.859375 69.144531 102.410156 87.300781 C 97.964844 105.457031 86.867188 122.339844 70.699219 131.71875 C 60.171875 137.824219 46.765625 140.492188 35.816406 135.183594 C 28.800781 131.785156 23.507812 125.441406 20.222656 118.367188 C 16.9375 111.296875 15.503906 103.507812 14.707031 95.75 C 13.035156 79.390625 14.171875 62.449219 20.484375 47.265625 C 26.796875 32.078125 38.714844 18.804688 54.148438 13.121094 C 69.582031 7.441406 92.519531 8.734375 99.609375 31.964844 Z M 99.609375 31.964844 " fill-opacity="0.1608" fill-rule="nonzero"/></g></g><g clip-path="url(#231384318e)"><path fill="#a583e6" d="M 52.765625 22.902344 L 56.304688 22.105469 L 60.40625 40.296875 L 56.871094 41.097656 Z M 52.765625 22.902344 " fill-opacity="1" fill-rule="nonzero"/></g><g clip-path="url(#4bdf951709)"><path fill="#a583e6" d="M 67.5625 14.773438 C 67.5625 15.742188 67.46875 16.703125 67.277344 17.652344 C 67.089844 18.601562 66.808594 19.527344 66.4375 20.421875 C 66.066406 21.316406 65.613281 22.167969 65.074219 22.976562 C 64.535156 23.78125 63.921875 24.527344 63.238281 25.210938 C 62.550781 25.898438 61.804688 26.511719 61 27.046875 C 60.195312 27.585938 59.34375 28.042969 58.449219 28.414062 C 57.550781 28.785156 56.628906 29.0625 55.675781 29.253906 C 54.726562 29.441406 53.765625 29.539062 52.796875 29.539062 C 51.828125 29.539062 50.867188 29.441406 49.917969 29.253906 C 48.964844 29.0625 48.042969 28.785156 47.144531 28.414062 C 46.25 28.042969 45.398438 27.585938 44.59375 27.046875 C 43.789062 26.511719 43.042969 25.898438 42.355469 25.210938 C 41.671875 24.527344 41.058594 23.78125 40.519531 22.976562 C 39.980469 22.167969 39.527344 21.316406 39.15625 20.421875 C 38.785156 19.527344 38.503906 18.601562 38.316406 17.652344 C 38.125 16.703125 38.03125 15.742188 38.03125 14.773438 C 38.03125 13.800781 38.125 12.84375 38.316406 11.890625 C 38.503906 10.941406 38.785156 10.015625 39.15625 9.121094 C 39.527344 8.226562 39.980469 7.375 40.519531 6.566406 C 41.058594 5.761719 41.671875 5.015625 42.355469 4.332031 C 43.042969 3.644531 43.789062 3.03125 44.59375 2.496094 C 45.398438 1.957031 46.25 1.5 47.144531 1.128906 C 48.042969 0.757812 48.964844 0.480469 49.917969 0.289062 C 50.867188 0.101562 51.828125 0.0078125 52.796875 0.0078125 C 53.765625 0.0078125 54.726562 0.101562 55.675781 0.289062 C 56.628906 0.480469 57.550781 0.757812 58.449219 1.128906 C 59.34375 1.5 60.195312 1.957031 61 2.496094 C 61.804688 3.03125 62.550781 3.644531 63.238281 4.332031 C 63.921875 5.015625 64.535156 5.761719 65.074219 6.566406 C 65.613281 7.375 66.066406 8.226562 66.4375 9.121094 C 66.808594 10.015625 67.089844 10.941406 67.277344 11.890625 C 67.46875 12.84375 67.5625 13.800781 67.5625 14.773438 Z M 67.5625 14.773438 " fill-opacity="1" fill-rule="nonzero"/></g><path fill="#d9d9d9" d="M 64.910156 14.757812 C 64.910156 15.539062 64.832031 16.3125 64.679688 17.082031 C 64.527344 17.847656 64.300781 18.59375 64 19.316406 C 63.703125 20.039062 63.335938 20.726562 62.902344 21.375 C 62.464844 22.027344 61.972656 22.628906 61.417969 23.183594 C 60.867188 23.734375 60.265625 24.230469 59.613281 24.664062 C 58.960938 25.097656 58.277344 25.464844 57.554688 25.765625 C 56.832031 26.066406 56.085938 26.289062 55.316406 26.445312 C 54.550781 26.597656 53.773438 26.671875 52.992188 26.671875 C 52.210938 26.671875 51.4375 26.597656 50.667969 26.445312 C 49.902344 26.289062 49.15625 26.066406 48.433594 25.765625 C 47.710938 25.464844 47.023438 25.097656 46.371094 24.664062 C 45.722656 24.230469 45.121094 23.734375 44.566406 23.183594 C 44.015625 22.628906 43.519531 22.027344 43.085938 21.375 C 42.648438 20.726562 42.285156 20.039062 41.984375 19.316406 C 41.683594 18.59375 41.457031 17.847656 41.304688 17.082031 C 41.152344 16.3125 41.078125 15.539062 41.078125 14.757812 C 41.078125 13.972656 41.152344 13.199219 41.304688 12.429688 C 41.457031 11.664062 41.683594 10.917969 41.984375 10.195312 C 42.285156 9.472656 42.648438 8.785156 43.085938 8.136719 C 43.519531 7.484375 44.015625 6.882812 44.566406 6.332031 C 45.121094 5.777344 45.722656 5.28125 46.371094 4.847656 C 47.023438 4.414062 47.710938 4.046875 48.433594 3.746094 C 49.15625 3.449219 49.902344 3.222656 50.667969 3.070312 C 51.4375 2.917969 52.210938 2.839844 52.992188 2.839844 C 53.773438 2.839844 54.550781 2.917969 55.316406 3.070312 C 56.085938 3.222656 56.832031 3.449219 57.554688 3.746094 C 58.277344 4.046875 58.960938 4.414062 59.613281 4.847656 C 60.265625 5.28125 60.867188 5.777344 61.417969 6.332031 C 61.972656 6.882812 62.464844 7.484375 62.902344 8.136719 C 63.335938 8.785156 63.703125 9.472656 64 10.195312 C 64.300781 10.917969 64.527344 11.664062 64.679688 12.429688 C 64.832031 13.199219 64.910156 13.972656 64.910156 14.757812 Z M 64.910156 14.757812 " fill-opacity="0.7255" fill-rule="nonzero"/><path fill="#ffffff" d="M 63.585938 14.785156 C 63.585938 15.570312 63.511719 16.34375 63.363281 17.113281 C 63.21875 17.878906 63 18.625 62.714844 19.347656 C 62.425781 20.070312 62.074219 20.757812 61.65625 21.40625 C 61.238281 22.058594 60.761719 22.660156 60.230469 23.214844 C 59.699219 23.765625 59.121094 24.261719 58.496094 24.695312 C 57.871094 25.128906 57.210938 25.496094 56.515625 25.796875 C 55.820312 26.09375 55.105469 26.320312 54.367188 26.472656 C 53.632812 26.625 52.886719 26.703125 52.136719 26.703125 C 51.382812 26.703125 50.640625 26.625 49.902344 26.472656 C 49.164062 26.320312 48.449219 26.09375 47.753906 25.796875 C 47.058594 25.496094 46.398438 25.128906 45.773438 24.695312 C 45.148438 24.261719 44.570312 23.765625 44.039062 23.214844 C 43.507812 22.660156 43.03125 22.058594 42.613281 21.40625 C 42.199219 20.757812 41.84375 20.070312 41.558594 19.347656 C 41.269531 18.625 41.050781 17.878906 40.90625 17.113281 C 40.757812 16.34375 40.683594 15.570312 40.683594 14.785156 C 40.683594 14.003906 40.757812 13.230469 40.90625 12.460938 C 41.050781 11.695312 41.269531 10.949219 41.558594 10.226562 C 41.84375 9.503906 42.199219 8.816406 42.613281 8.167969 C 43.03125 7.515625 43.507812 6.914062 44.039062 6.359375 C 44.570312 5.808594 45.148438 5.3125 45.773438 4.878906 C 46.398438 4.445312 47.058594 4.078125 47.753906 3.777344 C 48.449219 3.480469 49.164062 3.253906 49.902344 3.101562 C 50.640625 2.949219 51.382812 2.871094 52.136719 2.871094 C 52.886719 2.871094 53.632812 2.949219 54.367188 3.101562 C 55.105469 3.253906 55.820312 3.480469 56.515625 3.777344 C 57.210938 4.078125 57.871094 4.445312 58.496094 4.878906 C 59.121094 5.3125 59.699219 5.808594 60.230469 6.359375 C 60.761719 6.914062 61.238281 7.515625 61.65625 8.167969 C 62.074219 8.816406 62.425781 9.503906 62.714844 10.226562 C 63 10.949219 63.21875 11.695312 63.363281 12.460938 C 63.511719 13.230469 63.585938 14.003906 63.585938 14.785156 Z M 63.585938 14.785156 " fill-opacity="1" fill-rule="nonzero"/><path fill="#a583e6" d="M 62.359375 14.773438 C 62.359375 15.398438 62.300781 16.023438 62.175781 16.636719 C 62.054688 17.253906 61.875 17.851562 61.632812 18.433594 C 61.394531 19.011719 61.097656 19.5625 60.75 20.085938 C 60.398438 20.605469 60.003906 21.089844 59.558594 21.535156 C 59.117188 21.976562 58.632812 22.375 58.109375 22.722656 C 57.589844 23.074219 57.035156 23.367188 56.457031 23.609375 C 55.875 23.847656 55.277344 24.03125 54.664062 24.152344 C 54.046875 24.273438 53.425781 24.335938 52.796875 24.335938 C 52.167969 24.335938 51.546875 24.273438 50.929688 24.152344 C 50.316406 24.03125 49.71875 23.847656 49.136719 23.609375 C 48.558594 23.367188 48.003906 23.074219 47.484375 22.722656 C 46.960938 22.375 46.476562 21.976562 46.035156 21.535156 C 45.589844 21.089844 45.195312 20.605469 44.84375 20.085938 C 44.496094 19.5625 44.203125 19.011719 43.960938 18.433594 C 43.71875 17.851562 43.539062 17.253906 43.417969 16.636719 C 43.292969 16.023438 43.234375 15.398438 43.234375 14.773438 C 43.234375 14.144531 43.292969 13.523438 43.417969 12.90625 C 43.539062 12.289062 43.71875 11.691406 43.960938 11.113281 C 44.203125 10.53125 44.496094 9.980469 44.84375 9.457031 C 45.195312 8.9375 45.589844 8.453125 46.035156 8.007812 C 46.476562 7.566406 46.960938 7.167969 47.484375 6.820312 C 48.003906 6.46875 48.558594 6.175781 49.136719 5.9375 C 49.71875 5.695312 50.316406 5.515625 50.929688 5.390625 C 51.546875 5.269531 52.167969 5.207031 52.796875 5.207031 C 53.425781 5.207031 54.046875 5.269531 54.664062 5.390625 C 55.277344 5.515625 55.875 5.695312 56.457031 5.9375 C 57.035156 6.175781 57.589844 6.46875 58.109375 6.820312 C 58.632812 7.167969 59.117188 7.566406 59.558594 8.007812 C 60.003906 8.453125 60.398438 8.9375 60.75 9.457031 C 61.097656 9.980469 61.394531 10.53125 61.632812 11.113281 C 61.875 11.691406 62.054688 12.289062 62.175781 12.90625 C 62.300781 13.523438 62.359375 14.144531 62.359375 14.773438 Z M 62.359375 14.773438 " fill-opacity="1" fill-rule="nonzero"/><path fill="#000000" d="M 61.429688 14.773438 C 61.429688 15.339844 61.375 15.898438 61.265625 16.457031 C 61.15625 17.011719 60.992188 17.550781 60.773438 18.074219 C 60.558594 18.601562 60.292969 19.097656 59.976562 19.570312 C 59.660156 20.039062 59.304688 20.476562 58.902344 20.878906 C 58.5 21.277344 58.066406 21.636719 57.59375 21.949219 C 57.121094 22.265625 56.625 22.53125 56.101562 22.75 C 55.578125 22.964844 55.039062 23.128906 54.480469 23.238281 C 53.925781 23.351562 53.363281 23.40625 52.796875 23.40625 C 52.230469 23.40625 51.667969 23.351562 51.113281 23.238281 C 50.554688 23.128906 50.015625 22.964844 49.492188 22.75 C 48.96875 22.53125 48.472656 22.265625 48 21.949219 C 47.527344 21.636719 47.09375 21.277344 46.691406 20.878906 C 46.289062 20.476562 45.933594 20.039062 45.617188 19.570312 C 45.300781 19.097656 45.035156 18.601562 44.820312 18.074219 C 44.601562 17.550781 44.4375 17.011719 44.328125 16.457031 C 44.21875 15.898438 44.164062 15.339844 44.164062 14.773438 C 44.164062 14.203125 44.21875 13.644531 44.328125 13.085938 C 44.4375 12.53125 44.601562 11.992188 44.820312 11.46875 C 45.035156 10.945312 45.300781 10.445312 45.617188 9.976562 C 45.933594 9.503906 46.289062 9.066406 46.691406 8.667969 C 47.09375 8.265625 47.527344 7.90625 48 7.59375 C 48.472656 7.277344 48.96875 7.011719 49.492188 6.792969 C 50.015625 6.578125 50.554688 6.414062 51.113281 6.304688 C 51.667969 6.191406 52.230469 6.136719 52.796875 6.136719 C 53.363281 6.136719 53.925781 6.191406 54.480469 6.304688 C 55.039062 6.414062 55.578125 6.578125 56.101562 6.792969 C 56.625 7.011719 57.121094 7.277344 57.59375 7.59375 C 58.066406 7.90625 58.5 8.265625 58.902344 8.667969 C 59.304688 9.066406 59.660156 9.503906 59.976562 9.976562 C 60.292969 10.445312 60.558594 10.945312 60.773438 11.46875 C 60.992188 11.992188 61.15625 12.53125 61.265625 13.085938 C 61.375 13.644531 61.429688 14.203125 61.429688 14.773438 Z M 61.429688 14.773438 " fill-opacity="1" fill-rule="nonzero"/><path fill="#ffffff" d="M 52.796875 11.609375 C 52.796875 12.03125 52.714844 12.433594 52.554688 12.820312 C 52.394531 13.207031 52.167969 13.550781 51.871094 13.847656 C 51.574219 14.140625 51.234375 14.371094 50.84375 14.53125 C 50.457031 14.691406 50.054688 14.773438 49.636719 14.773438 C 49.214844 14.773438 48.8125 14.691406 48.425781 14.53125 C 48.039062 14.371094 47.695312 14.140625 47.402344 13.847656 C 47.105469 13.550781 46.875 13.207031 46.714844 12.820312 C 46.554688 12.433594 46.476562 12.03125 46.476562 11.609375 C 46.476562 11.191406 46.554688 10.789062 46.714844 10.402344 C 46.875 10.015625 47.105469 9.671875 47.402344 9.375 C 47.695312 9.078125 48.039062 8.851562 48.425781 8.691406 C 48.8125 8.53125 49.214844 8.449219 49.636719 8.449219 C 50.054688 8.449219 50.457031 8.53125 50.84375 8.691406 C 51.234375 8.851562 51.574219 9.078125 51.871094 9.375 C 52.167969 9.671875 52.394531 10.015625 52.554688 10.402344 C 52.714844 10.789062 52.796875 11.191406 52.796875 11.609375 Z M 52.796875 11.609375 " fill-opacity="1" fill-rule="nonzero"/><g clip-path="url(#befdb8ee30)"><path fill="#a583e6" d="M 90.214844 22.097656 L 93.753906 22.894531 L 89.648438 41.089844 L 86.109375 40.292969 Z M 90.214844 22.097656 " fill-opacity="1" fill-rule="nonzero"/></g><g clip-path="url(#6426439be3)"><path fill="#a583e6" d="M 108.492188 14.773438 C 108.492188 15.742188 108.394531 16.703125 108.207031 17.652344 C 108.019531 18.601562 107.738281 19.527344 107.367188 20.421875 C 106.996094 21.316406 106.542969 22.167969 106.003906 22.976562 C 105.464844 23.78125 104.851562 24.527344 104.167969 25.210938 C 103.480469 25.898438 102.734375 26.511719 101.929688 27.046875 C 101.121094 27.585938 100.273438 28.042969 99.375 28.414062 C 98.480469 28.785156 97.558594 29.0625 96.605469 29.253906 C 95.65625 29.441406 94.695312 29.539062 93.726562 29.539062 C 92.753906 29.539062 91.796875 29.441406 90.84375 29.253906 C 89.894531 29.0625 88.96875 28.785156 88.074219 28.414062 C 87.179688 28.042969 86.328125 27.585938 85.523438 27.046875 C 84.714844 26.511719 83.96875 25.898438 83.285156 25.210938 C 82.597656 24.527344 81.988281 23.78125 81.449219 22.976562 C 80.910156 22.167969 80.453125 21.316406 80.082031 20.421875 C 79.710938 19.527344 79.433594 18.601562 79.242188 17.652344 C 79.054688 16.703125 78.960938 15.742188 78.960938 14.773438 C 78.960938 13.800781 79.054688 12.84375 79.242188 11.890625 C 79.433594 10.941406 79.710938 10.015625 80.082031 9.121094 C 80.453125 8.226562 80.910156 7.375 81.449219 6.566406 C 81.988281 5.761719 82.597656 5.015625 83.285156 4.332031 C 83.96875 3.644531 84.714844 3.03125 85.523438 2.496094 C 86.328125 1.957031 87.179688 1.5 88.074219 1.128906 C 88.96875 0.757812 89.894531 0.480469 90.84375 0.289062 C 91.796875 0.101562 92.753906 0.0078125 93.726562 0.0078125 C 94.695312 0.0078125 95.65625 0.101562 96.605469 0.289062 C 97.558594 0.480469 98.480469 0.757812 99.375 1.128906 C 100.273438 1.5 101.121094 1.957031 101.929688 2.496094 C 102.734375 3.03125 103.480469 3.644531 104.167969 4.332031 C 104.851562 5.015625 105.464844 5.761719 106.003906 6.566406 C 106.542969 7.375 106.996094 8.226562 107.367188 9.121094 C 107.738281 10.015625 108.019531 10.941406 108.207031 11.890625 C 108.394531 12.84375 108.492188 13.800781 108.492188 14.773438 Z M 108.492188 14.773438 " fill-opacity="1" fill-rule="nonzero"/></g><path fill="#d9d9d9" d="M 105.445312 14.757812 C 105.445312 15.539062 105.367188 16.3125 105.214844 17.082031 C 105.0625 17.847656 104.835938 18.59375 104.539062 19.316406 C 104.238281 20.039062 103.871094 20.726562 103.4375 21.375 C 103.003906 22.027344 102.507812 22.628906 101.957031 23.183594 C 101.402344 23.734375 100.800781 24.230469 100.148438 24.664062 C 99.5 25.097656 98.8125 25.464844 98.089844 25.765625 C 97.367188 26.066406 96.621094 26.289062 95.855469 26.445312 C 95.085938 26.597656 94.3125 26.671875 93.53125 26.671875 C 92.746094 26.671875 91.972656 26.597656 91.203125 26.445312 C 90.4375 26.289062 89.691406 26.066406 88.96875 25.765625 C 88.246094 25.464844 87.558594 25.097656 86.910156 24.664062 C 86.257812 24.230469 85.65625 23.734375 85.101562 23.183594 C 84.550781 22.628906 84.054688 22.027344 83.621094 21.375 C 83.1875 20.726562 82.820312 20.039062 82.519531 19.316406 C 82.222656 18.59375 81.996094 17.847656 81.84375 17.082031 C 81.691406 16.3125 81.613281 15.539062 81.613281 14.757812 C 81.613281 13.972656 81.691406 13.199219 81.84375 12.429688 C 81.996094 11.664062 82.222656 10.917969 82.519531 10.195312 C 82.820312 9.472656 83.1875 8.785156 83.621094 8.136719 C 84.054688 7.484375 84.550781 6.882812 85.101562 6.332031 C 85.65625 5.777344 86.257812 5.28125 86.910156 4.847656 C 87.558594 4.414062 88.246094 4.046875 88.96875 3.746094 C 89.691406 3.449219 90.4375 3.222656 91.203125 3.070312 C 91.972656 2.917969 92.746094 2.839844 93.53125 2.839844 C 94.3125 2.839844 95.085938 2.917969 95.855469 3.070312 C 96.621094 3.222656 97.367188 3.449219 98.089844 3.746094 C 98.8125 4.046875 99.5 4.414062 100.148438 4.847656 C 100.800781 5.28125 101.402344 5.777344 101.957031 6.332031 C 102.507812 6.882812 103.003906 7.484375 103.4375 8.136719 C 103.871094 8.785156 104.238281 9.472656 104.539062 10.195312 C 104.835938 10.917969 105.0625 11.664062 105.214844 12.429688 C 105.367188 13.199219 105.445312 13.972656 105.445312 14.757812 Z M 105.445312 14.757812 " fill-opacity="0.7255" fill-rule="nonzero"/><path fill="#ffffff" d="M 105.835938 14.785156 C 105.835938 15.570312 105.765625 16.34375 105.617188 17.113281 C 105.472656 17.878906 105.253906 18.625 104.964844 19.347656 C 104.679688 20.070312 104.324219 20.757812 103.90625 21.40625 C 103.488281 22.058594 103.015625 22.660156 102.484375 23.214844 C 101.953125 23.765625 101.375 24.261719 100.75 24.695312 C 100.125 25.128906 99.464844 25.496094 98.769531 25.796875 C 98.074219 26.09375 97.359375 26.320312 96.621094 26.472656 C 95.882812 26.625 95.140625 26.703125 94.386719 26.703125 C 93.636719 26.703125 92.890625 26.625 92.152344 26.472656 C 91.417969 26.320312 90.699219 26.09375 90.007812 25.796875 C 89.3125 25.496094 88.652344 25.128906 88.027344 24.695312 C 87.402344 24.261719 86.824219 23.765625 86.292969 23.214844 C 85.761719 22.660156 85.285156 22.058594 84.867188 21.40625 C 84.449219 20.757812 84.097656 20.070312 83.808594 19.347656 C 83.523438 18.625 83.304688 17.878906 83.160156 17.113281 C 83.011719 16.34375 82.9375 15.570312 82.9375 14.785156 C 82.9375 14.003906 83.011719 13.230469 83.160156 12.460938 C 83.304688 11.695312 83.523438 10.949219 83.808594 10.226562 C 84.097656 9.503906 84.449219 8.816406 84.867188 8.167969 C 85.285156 7.515625 85.761719 6.914062 86.292969 6.359375 C 86.824219 5.808594 87.402344 5.3125 88.027344 4.878906 C 88.652344 4.445312 89.3125 4.078125 90.007812 3.777344 C 90.699219 3.480469 91.417969 3.253906 92.152344 3.101562 C 92.890625 2.949219 93.636719 2.871094 94.386719 2.871094 C 95.140625 2.871094 95.882812 2.949219 96.621094 3.101562 C 97.359375 3.253906 98.074219 3.480469 98.769531 3.777344 C 99.464844 4.078125 100.125 4.445312 100.75 4.878906 C 101.375 5.3125 101.953125 5.808594 102.484375 6.359375 C 103.015625 6.914062 103.488281 7.515625 103.90625 8.167969 C 104.324219 8.816406 104.679688 9.503906 104.964844 10.226562 C 105.253906 10.949219 105.472656 11.695312 105.617188 12.460938 C 105.765625 13.230469 105.835938 14.003906 105.835938 14.785156 Z M 105.835938 14.785156 " fill-opacity="1" fill-rule="nonzero"/><path fill="#a583e6" d="M 103.289062 14.773438 C 103.289062 15.398438 103.226562 16.023438 103.105469 16.636719 C 102.984375 17.253906 102.800781 17.851562 102.5625 18.433594 C 102.320312 19.011719 102.027344 19.5625 101.675781 20.085938 C 101.328125 20.605469 100.933594 21.089844 100.488281 21.535156 C 100.042969 21.976562 99.5625 22.375 99.039062 22.722656 C 98.515625 23.074219 97.964844 23.367188 97.386719 23.609375 C 96.804688 23.847656 96.207031 24.03125 95.589844 24.152344 C 94.976562 24.273438 94.351562 24.335938 93.726562 24.335938 C 93.097656 24.335938 92.476562 24.273438 91.859375 24.152344 C 91.242188 24.03125 90.644531 23.847656 90.066406 23.609375 C 89.484375 23.367188 88.933594 23.074219 88.410156 22.722656 C 87.890625 22.375 87.40625 21.976562 86.960938 21.535156 C 86.519531 21.089844 86.121094 20.605469 85.773438 20.085938 C 85.425781 19.5625 85.128906 19.011719 84.890625 18.433594 C 84.648438 17.851562 84.46875 17.253906 84.34375 16.636719 C 84.222656 16.023438 84.160156 15.398438 84.160156 14.773438 C 84.160156 14.144531 84.222656 13.523438 84.34375 12.90625 C 84.46875 12.289062 84.648438 11.691406 84.890625 11.113281 C 85.128906 10.53125 85.425781 9.980469 85.773438 9.457031 C 86.121094 8.9375 86.519531 8.453125 86.960938 8.007812 C 87.40625 7.566406 87.890625 7.167969 88.410156 6.820312 C 88.933594 6.46875 89.484375 6.175781 90.066406 5.9375 C 90.644531 5.695312 91.242188 5.515625 91.859375 5.390625 C 92.476562 5.269531 93.097656 5.207031 93.726562 5.207031 C 94.351562 5.207031 94.976562 5.269531 95.589844 5.390625 C 96.207031 5.515625 96.804688 5.695312 97.386719 5.9375 C 97.964844 6.175781 98.515625 6.46875 99.039062 6.820312 C 99.5625 7.167969 100.042969 7.566406 100.488281 8.007812 C 100.933594 8.453125 101.328125 8.9375 101.675781 9.457031 C 102.027344 9.980469 102.320312 10.53125 102.5625 11.113281 C 102.800781 11.691406 102.984375 12.289062 103.105469 12.90625 C 103.226562 13.523438 103.289062 14.144531 103.289062 14.773438 Z M 103.289062 14.773438 " fill-opacity="1" fill-rule="nonzero"/><path fill="#000000" d="M 102.359375 14.773438 C 102.359375 15.339844 102.304688 15.898438 102.195312 16.457031 C 102.082031 17.011719 101.917969 17.550781 101.703125 18.074219 C 101.484375 18.601562 101.21875 19.097656 100.90625 19.570312 C 100.589844 20.039062 100.230469 20.476562 99.832031 20.878906 C 99.429688 21.277344 98.992188 21.636719 98.523438 21.949219 C 98.050781 22.265625 97.554688 22.53125 97.03125 22.75 C 96.503906 22.964844 95.964844 23.128906 95.410156 23.238281 C 94.855469 23.351562 94.292969 23.40625 93.726562 23.40625 C 93.160156 23.40625 92.597656 23.351562 92.039062 23.238281 C 91.484375 23.128906 90.945312 22.964844 90.421875 22.75 C 89.898438 22.53125 89.398438 22.265625 88.929688 21.949219 C 88.457031 21.636719 88.019531 21.277344 87.621094 20.878906 C 87.21875 20.476562 86.859375 20.039062 86.546875 19.570312 C 86.230469 19.097656 85.964844 18.601562 85.75 18.074219 C 85.53125 17.550781 85.367188 17.011719 85.257812 16.457031 C 85.144531 15.898438 85.089844 15.339844 85.089844 14.773438 C 85.089844 14.203125 85.144531 13.644531 85.257812 13.085938 C 85.367188 12.53125 85.53125 11.992188 85.75 11.46875 C 85.964844 10.945312 86.230469 10.445312 86.546875 9.976562 C 86.859375 9.503906 87.21875 9.066406 87.621094 8.667969 C 88.019531 8.265625 88.457031 7.90625 88.929688 7.59375 C 89.398438 7.277344 89.898438 7.011719 90.421875 6.792969 C 90.945312 6.578125 91.484375 6.414062 92.039062 6.304688 C 92.597656 6.191406 93.160156 6.136719 93.726562 6.136719 C 94.292969 6.136719 94.855469 6.191406 95.410156 6.304688 C 95.964844 6.414062 96.503906 6.578125 97.03125 6.792969 C 97.554688 7.011719 98.050781 7.277344 98.523438 7.59375 C 98.992188 7.90625 99.429688 8.265625 99.832031 8.667969 C 100.230469 9.066406 100.589844 9.503906 100.90625 9.976562 C 101.21875 10.445312 101.484375 10.945312 101.703125 11.46875 C 101.917969 11.992188 102.082031 12.53125 102.195312 13.085938 C 102.304688 13.644531 102.359375 14.203125 102.359375 14.773438 Z M 102.359375 14.773438 " fill-opacity="1" fill-rule="nonzero"/><path fill="#ffffff" d="M 100.046875 11.609375 C 100.046875 12.03125 99.96875 12.433594 99.804688 12.820312 C 99.644531 13.207031 99.417969 13.550781 99.121094 13.847656 C 98.824219 14.140625 98.484375 14.371094 98.097656 14.53125 C 97.707031 14.691406 97.304688 14.773438 96.886719 14.773438 C 96.46875 14.773438 96.0625 14.691406 95.675781 14.53125 C 95.289062 14.371094 94.949219 14.140625 94.652344 13.847656 C 94.355469 13.550781 94.125 13.207031 93.964844 12.820312 C 93.804688 12.433594 93.726562 12.03125 93.726562 11.609375 C 93.726562 11.191406 93.804688 10.789062 93.964844 10.402344 C 94.125 10.015625 94.355469 9.671875 94.652344 9.375 C 94.949219 9.078125 95.289062 8.851562 95.675781 8.691406 C 96.0625 8.53125 96.46875 8.449219 96.886719 8.449219 C 97.304688 8.449219 97.707031 8.53125 98.097656 8.691406 C 98.484375 8.851562 98.824219 9.078125 99.121094 9.375 C 99.417969 9.671875 99.644531 10.015625 99.804688 10.402344 C 99.96875 10.789062 100.046875 11.191406 100.046875 11.609375 Z M 100.046875 11.609375 " fill-opacity="1" fill-rule="nonzero"/><path fill="#000000" d="M 88.882812 48.769531 C 79.207031 48.878906 69.535156 49.707031 59.945312 51.328125 C 55.507812 52.078125 52.5625 56.507812 53.515625 61.011719 C 54.359375 65.011719 55.820312 68.835938 58.097656 72.164062 C 61.921875 77.746094 68.3125 81.71875 74.988281 81.371094 C 79.023438 81.160156 82.902344 79.425781 86.203125 76.988281 C 91.714844 72.914062 95.726562 66.769531 96.625 57.472656 C 97.082031 52.761719 93.480469 48.71875 88.882812 48.769531 Z M 88.882812 48.769531 " fill-opacity="1" fill-rule="nonzero"/><g clip-path="url(#79749e4aba)"><g clip-path="url(#5ab9863c72)"><path fill="#ffffff" d="M 58.84375 50.363281 C 59.402344 53.015625 60.78125 55.515625 62.769531 57.488281 C 63.738281 58.449219 65.046875 59.339844 66.441406 59.113281 C 67.949219 58.867188 68.847656 57.445312 69.464844 56.144531 C 70.109375 54.78125 70.675781 53.382812 71.15625 51.957031 C 71.445312 51.097656 71.703125 50.160156 71.367188 49.316406 C 71 48.390625 70.003906 47.804688 69.007812 47.464844 C 65.433594 46.25 61.054688 47.570312 58.84375 50.363281 Z M 58.84375 50.363281 " fill-opacity="1" fill-rule="nonzero"/></g></g><g clip-path="url(#5404db4b1a)"><g clip-path="url(#a9d188c96c)"><g clip-path="url(#e4fd10e5bf)"><path fill="#dee0df" d="M 70.960938 46.242188 C 70.738281 48.65625 70.425781 51.117188 69.320312 53.3125 C 68.21875 55.507812 66.195312 57.433594 63.636719 57.929688 C 63.25 58.003906 62.839844 58.054688 62.515625 58.261719 C 61.785156 58.726562 61.832031 59.785156 62.308594 60.476562 C 62.960938 61.421875 64.195312 61.925781 65.402344 61.96875 C 66.609375 62.011719 67.796875 61.648438 68.886719 61.167969 C 71.53125 59.996094 73.808594 58.046875 75.078125 55.597656 C 76.351562 53.152344 76.5625 50.207031 75.449219 47.691406 C 75.054688 46.796875 74.425781 45.90625 73.445312 45.570312 C 72.46875 45.234375 71.007812 45.726562 70.960938 46.242188 Z M 70.960938 46.242188 " fill-opacity="1" fill-rule="nonzero"/></g></g></g><g clip-path="url(#a4589845c4)"><g clip-path="url(#4005c0cc08)"><path fill="#ffffff" d="M 77.035156 48.8125 C 77.589844 51.460938 78.96875 53.960938 80.957031 55.9375 C 81.925781 56.894531 83.238281 57.789062 84.632812 57.558594 C 86.140625 57.3125 87.035156 55.890625 87.652344 54.59375 C 88.300781 53.226562 88.863281 51.828125 89.34375 50.40625 C 89.632812 49.546875 89.890625 48.609375 89.554688 47.761719 C 89.191406 46.835938 88.195312 46.253906 87.195312 45.914062 C 83.625 44.699219 79.246094 46.015625 77.035156 48.8125 Z M 77.035156 48.8125 " fill-opacity="1" fill-rule="nonzero"/></g></g><g clip-path="url(#3818dee293)"><g clip-path="url(#0b27d3402f)"><g clip-path="url(#da09e9c2e3)"><path fill="#dee0df" d="M 89.152344 44.691406 C 88.929688 47.105469 88.613281 49.5625 87.511719 51.757812 C 86.410156 53.957031 84.382812 55.882812 81.824219 56.378906 C 81.4375 56.453125 81.027344 56.5 80.703125 56.707031 C 79.972656 57.171875 80.023438 58.234375 80.5 58.925781 C 81.148438 59.867188 82.382812 60.371094 83.59375 60.414062 C 84.800781 60.460938 85.984375 60.097656 87.074219 59.613281 C 89.71875 58.441406 91.996094 56.496094 93.269531 54.046875 C 94.539062 51.597656 94.753906 48.652344 93.640625 46.140625 C 93.242188 45.246094 92.613281 44.355469 91.636719 44.019531 C 90.65625 43.683594 89.199219 44.171875 89.152344 44.691406 Z M 89.152344 44.691406 " fill-opacity="1" fill-rule="nonzero"/></g></g></g><g clip-path="url(#839c290a8b)"><g clip-path="url(#d0bafd2c0d)"><path fill="#ff3a3f" d="M 86.875 77.421875 C 83.816406 74.519531 79.339844 72.789062 75.296875 73.980469 C 74.039062 74.351562 72.847656 74.988281 71.542969 75.140625 C 70.527344 75.257812 69.488281 75.070312 68.472656 75.203125 C 65.929688 75.535156 64.089844 77.714844 63.253906 79.4375 C 62.496094 82.746094 65.179688 86.128906 68.433594 87.101562 C 71.683594 88.078125 75.222656 87.167969 78.292969 85.71875 C 81.691406 84.117188 84.773438 81.855469 86.875 77.421875 Z M 86.875 77.421875 " fill-opacity="1" fill-rule="nonzero"/></g></g><g clip-path="url(#e027178f3e)"><g clip-path="url(#dae168f6b9)"><g clip-path="url(#23707d9f99)"><path fill="#ffffff" d="M 83.195312 71.734375 C 79.460938 76.050781 74.296875 79.023438 68.800781 80.574219 C 67.421875 80.964844 65.992188 81.273438 64.5625 81.15625 C 63.132812 81.042969 61.691406 80.453125 60.804688 79.324219 C 59.679688 77.890625 59.65625 75.804688 60.378906 74.128906 C 61.097656 72.457031 62.457031 71.132812 63.914062 70.039062 C 68.128906 66.878906 73.496094 65.289062 78.75 65.640625 C 80.121094 65.730469 81.546875 65.980469 82.625 66.828125 C 83.703125 67.679688 84.941406 69.714844 83.195312 71.734375 Z M 83.195312 71.734375 " fill-opacity="0.1765" fill-rule="nonzero"/></g></g></g></svg>