<svg xmlns="http://www.w3.org/2000/svg" xmlns:xlink="http://www.w3.org/1999/xlink" width="200" zoomAndPan="magnify" viewBox="0 0 150 149.999998" height="200" preserveAspectRatio="xMidYMid meet" version="1.0"><defs><clipPath id="ad24e4571b"><path d="M 44 112 L 70 112 L 70 146.734375 L 44 146.734375 Z M 44 112 " clip-rule="nonzero"/></clipPath><clipPath id="ac30b9c1bc"><path d="M 44.4375 112.816406 L 68 112.816406 L 68 145 L 44.4375 145 Z M 44.4375 112.816406 " clip-rule="nonzero"/></clipPath><clipPath id="dc5c228f80"><path d="M 53.5 114.550781 C 54.769531 118.472656 56.046875 122.453125 55.875 126.492188 C 55.699219 130.535156 53.875 134.710938 49.894531 137.304688 C 47.710938 138.726562 44.699219 139.964844 44.496094 142.175781 C 44.292969 144.367188 47.164062 146.011719 49.917969 146.492188 C 53.953125 147.199219 58.394531 146.316406 61.503906 144.191406 C 64.96875 141.824219 66.59375 138.242188 67.652344 134.75 C 68.871094 130.742188 69.527344 126.632812 69.609375 122.515625 C 69.664062 119.980469 69.402344 117.242188 67.3125 115.300781 C 65.472656 113.59375 62.488281 112.828125 59.625 112.824219 C 56.761719 112.816406 53.972656 113.480469 53.5 114.550781 Z M 53.5 114.550781 " clip-rule="nonzero"/></clipPath><clipPath id="def5dc2020"><path d="M 44.4375 112.816406 L 69.675781 112.816406 L 69.675781 146.734375 L 44.4375 146.734375 Z M 44.4375 112.816406 " clip-rule="nonzero"/></clipPath><clipPath id="508007ef3e"><path d="M 53.5 114.550781 C 54.769531 118.472656 56.046875 122.453125 55.875 126.492188 C 55.699219 130.535156 53.875 134.710938 49.894531 137.304688 C 47.710938 138.726562 44.699219 139.964844 44.496094 142.175781 C 44.292969 144.367188 47.164062 146.011719 49.917969 146.492188 C 53.953125 147.199219 58.394531 146.316406 61.503906 144.191406 C 64.96875 141.824219 66.59375 138.242188 67.652344 134.75 C 68.871094 130.742188 69.527344 126.632812 69.609375 122.515625 C 69.664062 119.980469 69.402344 117.242188 67.3125 115.300781 C 65.472656 113.59375 62.488281 112.828125 59.625 112.824219 C 56.761719 112.816406 53.972656 113.480469 53.5 114.550781 Z M 53.5 114.550781 " clip-rule="nonzero"/></clipPath><clipPath id="250c189ac8"><path d="M 75 112 L 101 112 L 101 146.734375 L 75 146.734375 Z M 75 112 " clip-rule="nonzero"/></clipPath><clipPath id="41a7463925"><path d="M 77 112.816406 L 100.640625 112.816406 L 100.640625 145 L 77 145 Z M 77 112.816406 " clip-rule="nonzero"/></clipPath><clipPath id="c4da6c264e"><path d="M 91.578125 114.550781 C 90.308594 118.472656 89.03125 122.453125 89.207031 126.492188 C 89.378906 130.535156 91.203125 134.710938 95.183594 137.304688 C 97.367188 138.726562 100.378906 139.964844 100.582031 142.175781 C 100.785156 144.367188 97.914062 146.011719 95.160156 146.492188 C 91.125 147.199219 86.683594 146.316406 83.574219 144.191406 C 80.109375 141.824219 78.488281 138.242188 77.425781 134.75 C 76.207031 130.742188 75.550781 126.632812 75.46875 122.515625 C 75.417969 119.980469 75.679688 117.242188 77.769531 115.300781 C 79.605469 113.59375 82.589844 112.828125 85.453125 112.824219 C 88.316406 112.816406 91.105469 113.480469 91.578125 114.550781 Z M 91.578125 114.550781 " clip-rule="nonzero"/></clipPath><clipPath id="cc00b38f60"><path d="M 75.402344 112.816406 L 100.640625 112.816406 L 100.640625 146.734375 L 75.402344 146.734375 Z M 75.402344 112.816406 " clip-rule="nonzero"/></clipPath><clipPath id="8f5dea87e1"><path d="M 91.578125 114.550781 C 90.308594 118.472656 89.03125 122.453125 89.207031 126.492188 C 89.378906 130.535156 91.203125 134.710938 95.183594 137.304688 C 97.367188 138.726562 100.378906 139.964844 100.582031 142.175781 C 100.785156 144.367188 97.914062 146.011719 95.160156 146.492188 C 91.125 147.199219 86.683594 146.316406 83.574219 144.191406 C 80.109375 141.824219 78.488281 138.242188 77.425781 134.75 C 76.207031 130.742188 75.550781 126.632812 75.46875 122.515625 C 75.417969 119.980469 75.679688 117.242188 77.769531 115.300781 C 79.605469 113.59375 82.589844 112.828125 85.453125 112.824219 C 88.316406 112.816406 91.105469 113.480469 91.578125 114.550781 Z M 91.578125 114.550781 " clip-rule="nonzero"/></clipPath><clipPath id="7d0da5a7db"><path d="M 27 4 L 51 4 L 51 33.472656 L 27 33.472656 Z M 27 4 " clip-rule="nonzero"/></clipPath><clipPath id="8efa518590"><path d="M 31 4.394531 L 50.941406 4.394531 L 50.941406 26 L 31 26 Z M 31 4.394531 " clip-rule="nonzero"/></clipPath><clipPath id="6e4f20a989"><path d="M 50.761719 23.761719 C 51.191406 23.019531 50.769531 22.109375 49.882812 21.878906 C 44.945312 20.585938 40.753906 17.054688 39.074219 12.644531 C 38.386719 10.839844 38.132812 8.914062 38.277344 7.015625 C 38.457031 4.613281 35.050781 3.484375 33.496094 5.4375 C 30.445312 9.269531 28.5 13.832031 28.070312 18.546875 C 27.667969 22.980469 28.714844 27.804688 32.246094 30.894531 C 35.757812 33.964844 42.113281 34.476562 45.234375 31.433594 C 45.277344 31.394531 45.316406 31.347656 45.351562 31.304688 C 47.328125 28.789062 49.300781 26.269531 50.761719 23.761719 Z M 50.761719 23.761719 " clip-rule="nonzero"/></clipPath><clipPath id="a6709c619b"><path d="M 27.957031 4.394531 L 50.941406 4.394531 L 50.941406 33.472656 L 27.957031 33.472656 Z M 27.957031 4.394531 " clip-rule="nonzero"/></clipPath><clipPath id="30b70d2db5"><path d="M 50.761719 23.761719 C 51.191406 23.019531 50.769531 22.109375 49.882812 21.878906 C 44.945312 20.585938 40.753906 17.054688 39.074219 12.644531 C 38.386719 10.839844 38.132812 8.914062 38.277344 7.015625 C 38.457031 4.613281 35.050781 3.484375 33.496094 5.4375 C 30.445312 9.269531 28.5 13.832031 28.070312 18.546875 C 27.667969 22.980469 28.714844 27.804688 32.246094 30.894531 C 35.757812 33.964844 42.113281 34.476562 45.234375 31.433594 C 45.277344 31.394531 45.316406 31.347656 45.351562 31.304688 C 47.328125 28.789062 49.300781 26.269531 50.761719 23.761719 Z M 50.761719 23.761719 " clip-rule="nonzero"/></clipPath><clipPath id="bfc9e6bbe6"><path d="M 83 4 L 107 4 L 107 33.472656 L 83 33.472656 Z M 83 4 " clip-rule="nonzero"/></clipPath><clipPath id="5f417dc558"><path d="M 83.195312 4.394531 L 103 4.394531 L 103 26 L 83.195312 26 Z M 83.195312 4.394531 " clip-rule="nonzero"/></clipPath><clipPath id="aef8b3f013"><path d="M 83.410156 23.761719 C 82.976562 23.019531 83.402344 22.109375 84.289062 21.878906 C 89.222656 20.585938 93.417969 17.054688 95.097656 12.644531 C 95.78125 10.839844 96.035156 8.914062 95.894531 7.015625 C 95.710938 4.613281 99.121094 3.484375 100.671875 5.4375 C 103.722656 9.269531 105.667969 13.832031 106.097656 18.546875 C 106.503906 22.980469 105.457031 27.804688 101.921875 30.894531 C 98.414062 33.964844 92.054688 34.476562 88.933594 31.4375 C 88.894531 31.394531 88.855469 31.351562 88.816406 31.304688 C 86.839844 28.789062 84.867188 26.269531 83.410156 23.761719 Z M 83.410156 23.761719 " clip-rule="nonzero"/></clipPath><clipPath id="8c5e2b454b"><path d="M 83.195312 4.394531 L 106.242188 4.394531 L 106.242188 33.472656 L 83.195312 33.472656 Z M 83.195312 4.394531 " clip-rule="nonzero"/></clipPath><clipPath id="b86f61efde"><path d="M 83.410156 23.761719 C 82.976562 23.019531 83.402344 22.109375 84.289062 21.878906 C 89.222656 20.585938 93.417969 17.054688 95.097656 12.644531 C 95.78125 10.839844 96.035156 8.914062 95.894531 7.015625 C 95.710938 4.613281 99.121094 3.484375 100.671875 5.4375 C 103.722656 9.269531 105.667969 13.832031 106.097656 18.546875 C 106.503906 22.980469 105.457031 27.804688 101.921875 30.894531 C 98.414062 33.964844 92.054688 34.476562 88.933594 31.4375 C 88.894531 31.394531 88.855469 31.351562 88.816406 31.304688 C 86.839844 28.789062 84.867188 26.269531 83.410156 23.761719 Z M 83.410156 23.761719 " clip-rule="nonzero"/></clipPath><clipPath id="2b51918990"><path d="M 112 50.917969 L 148.988281 50.917969 L 148.988281 90.074219 L 112 90.074219 Z M 112 50.917969 " clip-rule="nonzero"/></clipPath><clipPath id="a9c0a199bc"><path d="M 114.683594 67.59375 C 116.660156 69.996094 120.761719 70.320312 123.664062 68.882812 C 126.5625 67.441406 128.378906 64.65625 129.363281 61.796875 C 130.167969 59.453125 130.519531 56.957031 131.75 54.769531 C 132.980469 52.578125 135.445312 50.6875 138.132812 50.988281 C 140.824219 51.289062 142.691406 54.722656 140.695312 56.386719 C 141.636719 53.894531 146.070312 54.078125 147.757812 56.222656 C 149.441406 58.367188 149.082031 61.300781 148.347656 63.847656 C 145.070312 75.160156 135.402344 84.785156 123.28125 88.800781 C 119.695312 89.988281 115.621094 90.683594 112.128906 89.285156 C 107.808594 87.558594 105.550781 82.78125 106.414062 78.570312 C 107.273438 74.359375 110.789062 70.851562 114.683594 67.59375 Z M 114.683594 67.59375 " clip-rule="nonzero"/></clipPath><clipPath id="3891a44a02"><path d="M 0.210938 78 L 42 78 L 42 119 L 0.210938 119 Z M 0.210938 78 " clip-rule="nonzero"/></clipPath><clipPath id="4abb77f100"><path d="M 0.46875 78 L 34 78 L 34 118.890625 L 0.46875 118.890625 Z M 0.46875 78 " clip-rule="nonzero"/></clipPath><clipPath id="b85b3c5395"><path d="M 33.890625 100.3125 C 31.675781 98.089844 27.558594 98.109375 24.816406 99.789062 C 22.078125 101.46875 20.554688 104.394531 19.871094 107.324219 C 19.308594 109.726562 19.214844 112.242188 18.214844 114.523438 C 17.214844 116.808594 14.957031 118.898438 12.246094 118.828125 C 9.539062 118.753906 7.328125 115.492188 9.144531 113.671875 C 8.464844 116.230469 4.027344 116.417969 2.128906 114.425781 C 0.230469 112.433594 0.285156 109.484375 0.757812 106.886719 C 2.859375 95.34375 11.496094 84.945312 23.152344 79.925781 C 26.601562 78.441406 30.589844 77.402344 34.207031 78.5 C 38.683594 79.859375 41.425781 84.425781 41 88.6875 C 40.574219 92.949219 37.433594 96.738281 33.890625 100.3125 Z M 33.890625 100.3125 " clip-rule="nonzero"/></clipPath><clipPath id="72441f6e53"><path d="M 30 16.867188 L 121.5 16.867188 L 121.5 120.183594 L 30 120.183594 Z M 30 16.867188 " clip-rule="nonzero"/></clipPath><clipPath id="0a65a4ee38"><path d="M 20.761719 68.546875 C 20.761719 65.160156 21.085938 61.800781 21.730469 58.476562 C 22.375 55.152344 23.328125 51.925781 24.59375 48.792969 C 25.859375 45.660156 27.410156 42.6875 29.246094 39.867188 C 31.082031 37.050781 33.167969 34.441406 35.503906 32.046875 C 37.84375 29.648438 40.386719 27.507812 43.132812 25.625 C 45.882812 23.742188 48.78125 22.152344 51.835938 20.855469 C 54.890625 19.558594 58.039062 18.578125 61.277344 17.917969 C 64.519531 17.257812 67.792969 16.925781 71.097656 16.925781 C 74.402344 16.925781 77.675781 17.257812 80.917969 17.917969 C 84.160156 18.578125 87.308594 19.558594 90.363281 20.855469 C 93.414062 22.152344 96.316406 23.742188 99.066406 25.625 C 101.8125 27.507812 104.355469 29.648438 106.691406 32.046875 C 109.03125 34.441406 111.117188 37.050781 112.953125 39.867188 C 114.789062 42.6875 116.339844 45.660156 117.605469 48.792969 C 118.867188 51.925781 119.824219 55.152344 120.46875 58.476562 C 121.113281 61.800781 121.4375 65.160156 121.4375 68.546875 C 121.4375 71.9375 121.113281 75.292969 120.46875 78.617188 C 119.824219 81.941406 118.867188 85.171875 117.605469 88.300781 C 116.339844 91.433594 114.789062 94.410156 112.953125 97.226562 C 111.117188 100.046875 109.03125 102.652344 106.691406 105.050781 C 104.355469 107.445312 101.8125 109.585938 99.066406 111.46875 C 96.316406 113.351562 93.414062 114.941406 90.363281 116.238281 C 87.308594 117.535156 84.160156 118.515625 80.917969 119.175781 C 77.675781 119.839844 74.402344 120.167969 71.097656 120.167969 C 67.792969 120.167969 64.519531 119.839844 61.277344 119.175781 C 58.039062 118.515625 54.890625 117.535156 51.835938 116.238281 C 48.78125 114.941406 45.882812 113.351562 43.132812 111.46875 C 40.386719 109.585938 37.84375 107.445312 35.503906 105.050781 C 33.167969 102.652344 31.082031 100.046875 29.246094 97.226562 C 27.410156 94.410156 25.859375 91.433594 24.59375 88.300781 C 23.328125 85.171875 22.375 81.941406 21.730469 78.617188 C 21.085938 75.292969 20.761719 71.9375 20.761719 68.546875 Z M 20.761719 68.546875 " clip-rule="nonzero"/></clipPath><clipPath id="723b822f2d"><path d="M 54 76.957031 L 65 76.957031 L 65 86 L 54 86 Z M 54 76.957031 " clip-rule="nonzero"/></clipPath><clipPath id="132c967489"><path d="M 71.15625 79.878906 C 67.144531 80.871094 63.054688 77.863281 58.980469 78.511719 C 55.261719 79.101562 52.429688 82.882812 52.148438 86.832031 C 51.871094 90.777344 53.808594 94.664062 56.664062 97.242188 C 59.515625 99.820312 63.183594 101.222656 66.882812 101.945312 C 71.902344 102.933594 77.210938 102.730469 81.964844 100.757812 C 86.714844 98.785156 90.855469 94.9375 92.773438 89.953125 C 93.703125 87.53125 94.089844 84.734375 93.136719 82.320312 C 91.65625 78.558594 87.355469 76.820312 83.488281 76.984375 C 79.621094 77.152344 75.949219 78.691406 71.15625 79.878906 Z M 71.15625 79.878906 " clip-rule="nonzero"/></clipPath><clipPath id="10ab26345c"><path d="M 56 76.957031 L 64.394531 76.957031 L 64.394531 85.550781 L 56 85.550781 Z M 56 76.957031 " clip-rule="nonzero"/></clipPath><clipPath id="84bd5457e1"><path d="M 71.15625 79.878906 C 67.144531 80.871094 63.054688 77.863281 58.980469 78.511719 C 55.261719 79.101562 52.429688 82.882812 52.148438 86.832031 C 51.871094 90.777344 53.808594 94.664062 56.664062 97.242188 C 59.515625 99.820312 63.183594 101.222656 66.882812 101.945312 C 71.902344 102.933594 77.210938 102.730469 81.964844 100.757812 C 86.714844 98.785156 90.855469 94.9375 92.773438 89.953125 C 93.703125 87.53125 94.089844 84.734375 93.136719 82.320312 C 91.65625 78.558594 87.355469 76.820312 83.488281 76.984375 C 79.621094 77.152344 75.949219 78.691406 71.15625 79.878906 Z M 71.15625 79.878906 " clip-rule="nonzero"/></clipPath><clipPath id="3513a3d899"><path d="M 54.09375 78.523438 C 54.546875 80.625 55.660156 82.609375 57.273438 84.171875 C 58.058594 84.933594 59.121094 85.640625 60.25 85.460938 C 61.472656 85.261719 62.199219 84.136719 62.699219 83.109375 C 63.222656 82.027344 63.679688 80.917969 64.070312 79.789062 C 64.304688 79.105469 64.511719 78.363281 64.242188 77.695312 C 63.945312 76.960938 63.140625 76.496094 62.328125 76.226562 C 59.433594 75.265625 55.886719 76.308594 54.09375 78.523438 Z M 54.09375 78.523438 " clip-rule="nonzero"/></clipPath><clipPath id="509f92ff64"><path d="M 76 76.957031 L 87 76.957031 L 87 84 L 76 84 Z M 76 76.957031 " clip-rule="nonzero"/></clipPath><clipPath id="9404eb8c25"><path d="M 71.15625 79.878906 C 67.144531 80.871094 63.054688 77.863281 58.980469 78.511719 C 55.261719 79.101562 52.429688 82.882812 52.148438 86.832031 C 51.871094 90.777344 53.808594 94.664062 56.664062 97.242188 C 59.515625 99.820312 63.183594 101.222656 66.882812 101.945312 C 71.902344 102.933594 77.210938 102.730469 81.964844 100.757812 C 86.714844 98.785156 90.855469 94.9375 92.773438 89.953125 C 93.703125 87.53125 94.089844 84.734375 93.136719 82.320312 C 91.65625 78.558594 87.355469 76.820312 83.488281 76.984375 C 79.621094 77.152344 75.949219 78.691406 71.15625 79.878906 Z M 71.15625 79.878906 " clip-rule="nonzero"/></clipPath><clipPath id="2e034c95bd"><path d="M 78 76.957031 L 86.671875 76.957031 L 86.671875 83.289062 L 78 83.289062 Z M 78 76.957031 " clip-rule="nonzero"/></clipPath><clipPath id="c88d6530c1"><path d="M 71.15625 79.878906 C 67.144531 80.871094 63.054688 77.863281 58.980469 78.511719 C 55.261719 79.101562 52.429688 82.882812 52.148438 86.832031 C 51.871094 90.777344 53.808594 94.664062 56.664062 97.242188 C 59.515625 99.820312 63.183594 101.222656 66.882812 101.945312 C 71.902344 102.933594 77.210938 102.730469 81.964844 100.757812 C 86.714844 98.785156 90.855469 94.9375 92.773438 89.953125 C 93.703125 87.53125 94.089844 84.734375 93.136719 82.320312 C 91.65625 78.558594 87.355469 76.820312 83.488281 76.984375 C 79.621094 77.152344 75.949219 78.691406 71.15625 79.878906 Z M 71.15625 79.878906 " clip-rule="nonzero"/></clipPath><clipPath id="2d933795f6"><path d="M 76.335938 76.273438 C 76.789062 78.375 77.90625 80.355469 79.519531 81.921875 C 80.300781 82.683594 81.363281 83.390625 82.496094 83.207031 C 83.714844 83.011719 84.441406 81.886719 84.941406 80.859375 C 85.464844 79.773438 85.925781 78.667969 86.3125 77.539062 C 86.550781 76.855469 86.757812 76.113281 86.484375 75.445312 C 86.1875 74.710938 85.382812 74.246094 84.574219 73.976562 C 81.679688 73.015625 78.128906 74.058594 76.335938 76.273438 Z M 76.335938 76.273438 " clip-rule="nonzero"/></clipPath><clipPath id="71873d81b5"><path d="M 56 93 L 93.75 93 L 93.75 102.542969 L 56 102.542969 Z M 56 93 " clip-rule="nonzero"/></clipPath><clipPath id="013688209f"><path d="M 71.15625 79.878906 C 67.144531 80.871094 63.054688 77.863281 58.980469 78.511719 C 55.261719 79.101562 52.429688 82.882812 52.148438 86.832031 C 51.871094 90.777344 53.808594 94.664062 56.664062 97.242188 C 59.515625 99.820312 63.183594 101.222656 66.882812 101.945312 C 71.902344 102.933594 77.210938 102.730469 81.964844 100.757812 C 86.714844 98.785156 90.855469 94.9375 92.773438 89.953125 C 93.703125 87.53125 94.089844 84.734375 93.136719 82.320312 C 91.65625 78.558594 87.355469 76.820312 83.488281 76.984375 C 79.621094 77.152344 75.949219 78.691406 71.15625 79.878906 Z M 71.15625 79.878906 " clip-rule="nonzero"/></clipPath><clipPath id="6cf24ae45d"><path d="M 56.734375 93.371094 L 90 93.371094 L 90 102.542969 L 56.734375 102.542969 Z M 56.734375 93.371094 " clip-rule="nonzero"/></clipPath><clipPath id="455b6ae3a2"><path d="M 71.15625 79.878906 C 67.144531 80.871094 63.054688 77.863281 58.980469 78.511719 C 55.261719 79.101562 52.429688 82.882812 52.148438 86.832031 C 51.871094 90.777344 53.808594 94.664062 56.664062 97.242188 C 59.515625 99.820312 63.183594 101.222656 66.882812 101.945312 C 71.902344 102.933594 77.210938 102.730469 81.964844 100.757812 C 86.714844 98.785156 90.855469 94.9375 92.773438 89.953125 C 93.703125 87.53125 94.089844 84.734375 93.136719 82.320312 C 91.65625 78.558594 87.355469 76.820312 83.488281 76.984375 C 79.621094 77.152344 75.949219 78.691406 71.15625 79.878906 Z M 71.15625 79.878906 " clip-rule="nonzero"/></clipPath><clipPath id="47c91ab7fc"><path d="M 93.6875 98.792969 C 88.933594 94.707031 81.980469 92.269531 75.691406 93.945312 C 73.738281 94.46875 71.886719 95.367188 69.859375 95.582031 C 68.277344 95.75 66.667969 95.484375 65.089844 95.671875 C 61.136719 96.136719 58.277344 99.207031 56.980469 101.636719 C 55.800781 106.300781 59.96875 111.0625 65.027344 112.4375 C 70.082031 113.8125 75.578125 112.527344 80.355469 110.484375 C 85.632812 108.226562 90.425781 105.046875 93.6875 98.792969 Z M 93.6875 98.792969 " clip-rule="nonzero"/></clipPath></defs><g clip-path="url(#ad24e4571b)"><path fill="#f8cb16" d="M 53.5 114.550781 C 54.769531 118.472656 56.046875 122.453125 55.875 126.492188 C 55.699219 130.535156 53.875 134.710938 49.894531 137.304688 C 47.710938 138.726562 44.699219 139.964844 44.496094 142.175781 C 44.292969 144.367188 47.164062 146.011719 49.917969 146.492188 C 53.953125 147.199219 58.394531 146.316406 61.503906 144.191406 C 64.96875 141.824219 66.59375 138.242188 67.652344 134.75 C 68.871094 130.742188 69.527344 126.632812 69.609375 122.515625 C 69.664062 119.980469 69.402344 117.242188 67.3125 115.304688 C 65.472656 113.59375 62.488281 112.828125 59.625 112.824219 C 56.761719 112.816406 53.972656 113.480469 53.5 114.550781 Z M 53.5 114.550781 " fill-opacity="1" fill-rule="nonzero"/></g><g clip-path="url(#ac30b9c1bc)"><g clip-path="url(#dc5c228f80)"><path fill="#fbdd65" d="M 66.734375 118.097656 C 69.414062 127.542969 64.285156 138.34375 54.878906 143.078125 C 50.597656 145.230469 44.683594 145.964844 41.203125 142.847656 C 38.058594 140.03125 38.28125 135.382812 39.382812 131.5 C 40.675781 126.96875 42.871094 122.648438 45.835938 118.816406 C 48.398438 115.503906 51.816406 112.402344 56.1875 111.574219 C 60.558594 110.746094 65.34375 113.191406 66.734375 118.097656 Z M 66.734375 118.097656 " fill-opacity="1" fill-rule="nonzero"/></g></g><g clip-path="url(#def5dc2020)"><g clip-path="url(#508007ef3e)"><path stroke-linecap="butt" transform="matrix(0.0643774, 0, 0, 0.0646143, -41.119211, -32.693192)" fill="none" stroke-linejoin="miter" d="M 1211.029348 2636.523964 C 1442.877381 2558.476757 1718.352407 2597.228314 1912.944567 2735.307184 " stroke="#ffffff" stroke-width="74.049004" stroke-opacity="0.5843" stroke-miterlimit="10"/><path stroke-linecap="butt" transform="matrix(0.0643774, 0, 0, 0.0646143, -41.119211, -32.693192)" fill="none" stroke-linejoin="miter" d="M 1250.469605 2511.684705 C 1482.317638 2433.577043 1757.853341 2472.389055 1952.445501 2610.407471 " stroke="#ffffff" stroke-width="74.049004" stroke-opacity="0.5843" stroke-miterlimit="10"/></g></g><g clip-path="url(#250c189ac8)"><path fill="#f8cb16" d="M 91.578125 114.550781 C 90.308594 118.472656 89.03125 122.453125 89.207031 126.492188 C 89.378906 130.535156 91.203125 134.710938 95.183594 137.304688 C 97.367188 138.726562 100.378906 139.964844 100.582031 142.175781 C 100.785156 144.367188 97.914062 146.011719 95.160156 146.492188 C 91.125 147.199219 86.683594 146.316406 83.574219 144.191406 C 80.109375 141.824219 78.488281 138.242188 77.425781 134.75 C 76.207031 130.742188 75.550781 126.632812 75.46875 122.515625 C 75.417969 119.980469 75.679688 117.242188 77.769531 115.304688 C 79.605469 113.59375 82.589844 112.828125 85.453125 112.824219 C 88.316406 112.816406 91.105469 113.480469 91.578125 114.550781 Z M 91.578125 114.550781 " fill-opacity="1" fill-rule="nonzero"/></g><g clip-path="url(#41a7463925)"><g clip-path="url(#c4da6c264e)"><path fill="#fbdd65" d="M 78.34375 118.097656 C 75.664062 127.542969 80.792969 138.34375 90.199219 143.078125 C 94.480469 145.230469 100.394531 145.964844 103.875 142.847656 C 107.019531 140.03125 106.800781 135.382812 105.695312 131.5 C 104.402344 126.96875 102.207031 122.648438 99.242188 118.816406 C 96.679688 115.503906 93.261719 112.402344 88.890625 111.574219 C 84.519531 110.746094 79.734375 113.191406 78.34375 118.097656 Z M 78.34375 118.097656 " fill-opacity="1" fill-rule="nonzero"/></g></g><g clip-path="url(#cc00b38f60)"><g clip-path="url(#8f5dea87e1)"><path stroke-linecap="butt" transform="matrix(0.0643774, 0, 0, 0.0646143, -41.119211, -32.693192)" fill="none" stroke-linejoin="miter" d="M 2320.028695 2636.523964 C 2088.119985 2558.476757 1812.644959 2597.228314 1618.052799 2735.307184 " stroke="#ffffff" stroke-width="74.049004" stroke-opacity="0.5843" stroke-miterlimit="10"/><path stroke-linecap="butt" transform="matrix(0.0643774, 0, 0, 0.0646143, -41.119211, -32.693192)" fill="none" stroke-linejoin="miter" d="M 2280.527761 2511.684705 C 2048.679728 2433.577043 1773.144025 2472.389055 1578.551865 2610.407471 " stroke="#ffffff" stroke-width="74.049004" stroke-opacity="0.5843" stroke-miterlimit="10"/></g></g><g clip-path="url(#7d0da5a7db)"><path fill="#f8cb16" d="M 50.761719 23.761719 C 51.191406 23.019531 50.769531 22.109375 49.882812 21.878906 C 44.945312 20.585938 40.753906 17.054688 39.074219 12.644531 C 38.386719 10.839844 38.132812 8.914062 38.277344 7.015625 C 38.457031 4.613281 35.050781 3.484375 33.496094 5.4375 C 30.445312 9.269531 28.5 13.832031 28.070312 18.546875 C 27.667969 22.980469 28.714844 27.804688 32.246094 30.894531 C 35.757812 33.964844 42.113281 34.476562 45.234375 31.433594 C 45.277344 31.394531 45.316406 31.347656 45.351562 31.304688 C 47.328125 28.789062 49.300781 26.269531 50.761719 23.761719 Z M 50.761719 23.761719 " fill-opacity="1" fill-rule="nonzero"/></g><g clip-path="url(#8efa518590)"><g clip-path="url(#6e4f20a989)"><path fill="#ffffff" d="M 36.261719 2.324219 C 34.039062 6.214844 31.765625 10.269531 31.5625 14.648438 C 31.359375 19.03125 33.847656 23.839844 38.460938 25.160156 C 42.207031 26.230469 46.488281 24.667969 48.949219 21.890625 C 51.410156 19.113281 52.222656 15.355469 51.863281 11.808594 C 51.515625 8.347656 49.980469 4.8125 46.898438 2.75 C 43.816406 0.683594 37.808594 -0.382812 36.261719 2.324219 Z M 36.261719 2.324219 " fill-opacity="0.3373" fill-rule="nonzero"/></g></g><g clip-path="url(#a6709c619b)"><g clip-path="url(#30b70d2db5)"><path stroke-linecap="butt" transform="matrix(0.0643774, 0, 0, 0.0646143, -41.119211, -32.693192)" fill="none" stroke-linejoin="miter" d="M 985.552433 835.453165 C 1083.485625 720.347136 1255.202436 660.678202 1413.26685 686.794696 " stroke="#ffffff" stroke-width="68.238998" stroke-opacity="0.5765" stroke-miterlimit="10"/><path stroke-linecap="butt" transform="matrix(0.0643774, 0, 0, 0.0646143, -41.119211, -32.693192)" fill="none" stroke-linejoin="miter" d="M 1064.614979 954.065574 C 1162.54817 839.020001 1334.264981 779.351067 1492.329396 805.46756 " stroke="#ffffff" stroke-width="68.238998" stroke-opacity="0.5765" stroke-miterlimit="10"/></g></g><g clip-path="url(#bfc9e6bbe6)"><path fill="#f8cb16" d="M 83.410156 23.761719 C 82.976562 23.019531 83.402344 22.109375 84.289062 21.878906 C 89.222656 20.585938 93.417969 17.054688 95.097656 12.644531 C 95.78125 10.839844 96.035156 8.914062 95.894531 7.015625 C 95.710938 4.613281 99.121094 3.484375 100.671875 5.4375 C 103.722656 9.269531 105.667969 13.832031 106.097656 18.546875 C 106.503906 22.980469 105.457031 27.804688 101.921875 30.894531 C 98.414062 33.964844 92.054688 34.476562 88.933594 31.4375 C 88.894531 31.394531 88.855469 31.351562 88.816406 31.304688 C 86.839844 28.789062 84.867188 26.269531 83.410156 23.761719 Z M 83.410156 23.761719 " fill-opacity="1" fill-rule="nonzero"/></g><g clip-path="url(#5f417dc558)"><g clip-path="url(#aef8b3f013)"><path fill="#ffffff" d="M 97.90625 2.324219 C 100.132812 6.214844 102.40625 10.269531 102.609375 14.648438 C 102.8125 19.03125 100.320312 23.839844 95.707031 25.160156 C 91.960938 26.230469 87.679688 24.667969 85.222656 21.890625 C 82.761719 19.113281 81.949219 15.355469 82.304688 11.808594 C 82.652344 8.347656 84.191406 4.8125 87.273438 2.75 C 90.355469 0.683594 96.363281 -0.382812 97.90625 2.324219 Z M 97.90625 2.324219 " fill-opacity="0.3373" fill-rule="nonzero"/></g></g><g clip-path="url(#8c5e2b454b)"><g clip-path="url(#b86f61efde)"><path stroke-linecap="butt" transform="matrix(0.0643774, 0, 0, 0.0646143, -41.119211, -32.693192)" fill="none" stroke-linejoin="miter" d="M 2376.03386 835.453165 C 2278.100668 720.347136 2106.383857 660.678202 1948.319443 686.794696 " stroke="#ffffff" stroke-width="68.238998" stroke-opacity="0.5765" stroke-miterlimit="10"/><path stroke-linecap="butt" transform="matrix(0.0643774, 0, 0, 0.0646143, -41.119211, -32.693192)" fill="none" stroke-linejoin="miter" d="M 2296.910637 954.065574 C 2198.977445 839.020001 2027.260634 779.351067 1869.19622 805.46756 " stroke="#ffffff" stroke-width="68.238998" stroke-opacity="0.5765" stroke-miterlimit="10"/></g></g><path fill="#f8cb16" d="M 114.683594 67.59375 C 116.660156 69.996094 120.761719 70.320312 123.664062 68.882812 C 126.5625 67.441406 128.378906 64.65625 129.363281 61.796875 C 130.167969 59.453125 130.519531 56.957031 131.75 54.769531 C 132.980469 52.578125 135.445312 50.6875 138.132812 50.988281 C 140.824219 51.289062 142.691406 54.722656 140.695312 56.386719 C 141.636719 53.894531 146.070312 54.078125 147.757812 56.222656 C 149.441406 58.367188 149.082031 61.300781 148.347656 63.847656 C 145.070312 75.160156 135.402344 84.785156 123.28125 88.800781 C 119.695312 89.988281 115.621094 90.683594 112.128906 89.285156 C 107.808594 87.558594 105.550781 82.78125 106.414062 78.570312 C 107.273438 74.359375 110.789062 70.851562 114.683594 67.59375 Z M 114.683594 67.59375 " fill-opacity="1" fill-rule="nonzero"/><g clip-path="url(#2b51918990)"><g clip-path="url(#a9c0a199bc)"><path fill="#f6b51a" d="M 130.882812 53.398438 C 132.488281 52.390625 134.714844 52.253906 136.453125 53.0625 C 138.191406 53.871094 139.371094 55.589844 139.402344 57.359375 C 140.421875 56.460938 141.941406 56.058594 143.332031 56.316406 C 144.722656 56.574219 145.945312 57.488281 146.492188 58.675781 C 147.324219 60.488281 146.578125 62.558594 145.714844 64.359375 C 140.46875 75.277344 130.578125 84.300781 118.5625 89.121094 C 117.082031 89.714844 115.539062 90.265625 114.328125 91.242188 C 113.117188 92.21875 112.292969 93.746094 112.726562 95.160156 C 113.183594 96.644531 114.84375 97.558594 116.476562 97.992188 C 119.414062 98.769531 122.605469 98.460938 125.503906 97.5625 C 128.398438 96.664062 131.039062 95.203125 133.582031 93.660156 C 140.304688 89.574219 146.585938 84.742188 151.269531 78.757812 C 155.949219 72.773438 158.964844 65.554688 158.765625 58.21875 C 158.675781 54.972656 157.902344 51.625 155.734375 49.039062 C 152.894531 45.65625 147.832031 44.054688 143.203125 44.757812 C 138.578125 45.457031 134.492188 48.289062 130.882812 53.398438 Z M 130.882812 53.398438 " fill-opacity="1" fill-rule="nonzero"/></g></g><g clip-path="url(#3891a44a02)"><path fill="#f8cb16" d="M 33.890625 100.3125 C 31.675781 98.089844 27.558594 98.109375 24.816406 99.789062 C 22.078125 101.46875 20.554688 104.394531 19.871094 107.324219 C 19.308594 109.726562 19.214844 112.242188 18.214844 114.523438 C 17.214844 116.808594 14.957031 118.898438 12.246094 118.828125 C 9.539062 118.753906 7.328125 115.492188 9.144531 113.671875 C 8.464844 116.230469 4.027344 116.417969 2.128906 114.425781 C 0.230469 112.433594 0.285156 109.484375 0.757812 106.886719 C 2.859375 95.34375 11.496094 84.945312 23.152344 79.925781 C 26.601562 78.441406 30.589844 77.402344 34.207031 78.5 C 38.683594 79.859375 41.425781 84.425781 41 88.6875 C 40.574219 92.949219 37.433594 96.738281 33.890625 100.3125 Z M 33.890625 100.3125 " fill-opacity="1" fill-rule="nonzero"/></g><g clip-path="url(#4abb77f100)"><g clip-path="url(#b85b3c5395)"><path fill="#f6b51a" d="M 19.21875 115.8125 C 17.722656 116.953125 15.519531 117.277344 13.707031 116.617188 C 11.890625 115.957031 10.542969 114.347656 10.328125 112.585938 C 9.40625 113.570312 7.9375 114.097656 6.523438 113.960938 C 5.113281 113.820312 3.800781 113.011719 3.136719 111.875 C 2.125 110.140625 2.648438 108.019531 3.328125 106.152344 C 7.429688 94.839844 16.351562 85.019531 27.816406 79.207031 C 29.230469 78.492188 30.710938 77.8125 31.816406 76.738281 C 32.921875 75.664062 33.585938 74.074219 33.007812 72.699219 C 32.402344 71.261719 30.652344 70.492188 28.984375 70.199219 C 25.980469 69.671875 22.832031 70.25 20.042969 71.386719 C 17.25 72.527344 14.769531 74.203125 12.398438 75.957031 C 6.125 80.59375 0.367188 85.933594 -3.679688 92.285156 C -7.730469 98.636719 -9.988281 106.082031 -9.035156 113.367188 C -8.613281 116.589844 -7.5 119.859375 -5.074219 122.25 C -1.898438 125.378906 3.304688 126.546875 7.839844 125.457031 C 12.375 124.371094 16.148438 121.203125 19.21875 115.8125 Z M 19.21875 115.8125 " fill-opacity="1" fill-rule="nonzero"/></g></g><path fill="#f8cb16" d="M 121.4375 68.546875 C 121.4375 70.238281 121.355469 71.925781 121.195312 73.609375 C 121.03125 75.289062 120.789062 76.960938 120.46875 78.617188 C 120.148438 80.277344 119.746094 81.914062 119.269531 83.53125 C 118.789062 85.152344 118.234375 86.742188 117.605469 88.300781 C 116.972656 89.863281 116.269531 91.390625 115.492188 92.882812 C 114.714844 94.371094 113.867188 95.820312 112.953125 97.226562 C 112.035156 98.632812 111.054688 99.988281 110.011719 101.296875 C 108.964844 102.601562 107.859375 103.855469 106.691406 105.050781 C 105.527344 106.246094 104.308594 107.378906 103.03125 108.453125 C 101.757812 109.523438 100.433594 110.53125 99.066406 111.46875 C 97.695312 112.410156 96.28125 113.277344 94.828125 114.074219 C 93.375 114.871094 91.886719 115.59375 90.363281 116.238281 C 88.839844 116.886719 87.289062 117.457031 85.710938 117.945312 C 84.132812 118.4375 82.535156 118.847656 80.917969 119.175781 C 79.300781 119.507812 77.671875 119.753906 76.03125 119.921875 C 74.390625 120.085938 72.746094 120.167969 71.097656 120.167969 C 69.449219 120.167969 67.804688 120.085938 66.164062 119.921875 C 64.523438 119.753906 62.894531 119.507812 61.277344 119.175781 C 59.660156 118.847656 58.066406 118.4375 56.488281 117.945312 C 54.910156 117.457031 53.359375 116.886719 51.835938 116.238281 C 50.3125 115.59375 48.824219 114.871094 47.371094 114.074219 C 45.917969 113.277344 44.503906 112.410156 43.132812 111.46875 C 41.761719 110.53125 40.441406 109.523438 39.164062 108.453125 C 37.890625 107.378906 36.671875 106.246094 35.503906 105.050781 C 34.339844 103.855469 33.234375 102.601562 32.1875 101.296875 C 31.140625 99.988281 30.160156 98.632812 29.246094 97.226562 C 28.328125 95.820312 27.484375 94.371094 26.707031 92.882812 C 25.929688 91.390625 25.226562 89.863281 24.59375 88.300781 C 23.964844 86.742188 23.410156 85.152344 22.929688 83.53125 C 22.453125 81.914062 22.050781 80.277344 21.730469 78.617188 C 21.40625 76.960938 21.167969 75.289062 21.003906 73.609375 C 20.84375 71.925781 20.761719 70.238281 20.761719 68.546875 C 20.761719 66.855469 20.84375 65.171875 21.003906 63.488281 C 21.167969 61.804688 21.40625 60.136719 21.730469 58.476562 C 22.050781 56.820312 22.453125 55.179688 22.929688 53.5625 C 23.410156 51.945312 23.964844 50.355469 24.59375 48.792969 C 25.226562 47.230469 25.929688 45.703125 26.707031 44.214844 C 27.484375 42.722656 28.328125 41.273438 29.246094 39.867188 C 30.160156 38.464844 31.140625 37.105469 32.1875 35.800781 C 33.234375 34.492188 34.339844 33.242188 35.503906 32.046875 C 36.671875 30.851562 37.890625 29.714844 39.164062 28.644531 C 40.441406 27.570312 41.761719 26.566406 43.132812 25.625 C 44.503906 24.6875 45.917969 23.820312 47.371094 23.023438 C 48.824219 22.226562 50.3125 21.503906 51.835938 20.855469 C 53.359375 20.210938 54.910156 19.640625 56.488281 19.148438 C 58.066406 18.660156 59.660156 18.25 61.277344 17.917969 C 62.894531 17.589844 64.523438 17.339844 66.164062 17.175781 C 67.804688 17.007812 69.449219 16.925781 71.097656 16.925781 C 72.746094 16.925781 74.390625 17.007812 76.03125 17.175781 C 77.671875 17.339844 79.300781 17.589844 80.917969 17.917969 C 82.535156 18.25 84.132812 18.660156 85.710938 19.148438 C 87.289062 19.640625 88.839844 20.210938 90.363281 20.855469 C 91.886719 21.503906 93.375 22.226562 94.828125 23.023438 C 96.28125 23.820312 97.695312 24.6875 99.066406 25.625 C 100.433594 26.566406 101.757812 27.570312 103.03125 28.644531 C 104.308594 29.714844 105.527344 30.851562 106.691406 32.046875 C 107.859375 33.242188 108.964844 34.492188 110.011719 35.800781 C 111.054688 37.105469 112.035156 38.464844 112.953125 39.867188 C 113.867188 41.273438 114.714844 42.722656 115.492188 44.214844 C 116.269531 45.703125 116.972656 47.230469 117.605469 48.792969 C 118.234375 50.355469 118.789062 51.945312 119.269531 53.5625 C 119.746094 55.179688 120.148438 56.820312 120.46875 58.476562 C 120.789062 60.136719 121.03125 61.804688 121.195312 63.488281 C 121.355469 65.171875 121.4375 66.855469 121.4375 68.546875 Z M 121.4375 68.546875 " fill-opacity="1" fill-rule="nonzero"/><g clip-path="url(#72441f6e53)"><g clip-path="url(#0a65a4ee38)"><path fill="#f6b51a" d="M 71.75 12.480469 C 83.730469 23.578125 93.816406 36.324219 98.867188 50.539062 C 103.921875 64.753906 103.609375 80.558594 95.71875 93.882812 C 87.828125 107.207031 71.804688 117.578125 53.785156 118.933594 C 46.664062 119.472656 38.367188 119.019531 33.679688 123.4375 C 30.195312 126.726562 30.175781 131.757812 32.222656 135.773438 C 34.886719 141.003906 40.78125 145.050781 47.539062 146.28125 C 55.421875 147.71875 63.570312 145.484375 71.027344 142.949219 C 84.816406 138.261719 98.023438 132.429688 110.378906 125.570312 C 121.796875 119.230469 132.902344 111.570312 138.214844 101.148438 C 144.644531 88.53125 141.527344 74.105469 137.074219 60.929688 C 134.035156 51.949219 130.285156 42.886719 123.175781 35.605469 C 116.351562 28.613281 106.890625 23.734375 97.617188 18.988281 C 93.230469 16.742188 88.75 14.464844 83.738281 13.417969 C 78.71875 12.375 72.988281 12.738281 71.75 12.480469 Z M 71.75 12.480469 " fill-opacity="1" fill-rule="nonzero"/></g></g><path fill="#d9d9d9" d="M 71.097656 58.019531 C 71.097656 58.566406 71.070312 59.117188 71.011719 59.664062 C 70.949219 60.210938 70.863281 60.753906 70.742188 61.292969 C 70.625 61.832031 70.476562 62.367188 70.300781 62.890625 C 70.125 63.417969 69.921875 63.933594 69.6875 64.441406 C 69.457031 64.953125 69.199219 65.449219 68.914062 65.933594 C 68.625 66.417969 68.316406 66.890625 67.976562 67.347656 C 67.640625 67.804688 67.28125 68.246094 66.894531 68.667969 C 66.511719 69.09375 66.101562 69.5 65.675781 69.890625 C 65.246094 70.277344 64.796875 70.648438 64.328125 70.996094 C 63.859375 71.34375 63.371094 71.671875 62.867188 71.976562 C 62.363281 72.285156 61.84375 72.566406 61.308594 72.824219 C 60.773438 73.085938 60.226562 73.320312 59.664062 73.53125 C 59.105469 73.738281 58.535156 73.925781 57.953125 74.085938 C 57.375 74.246094 56.785156 74.378906 56.191406 74.484375 C 55.597656 74.59375 54.996094 74.671875 54.394531 74.726562 C 53.789062 74.78125 53.183594 74.808594 52.578125 74.808594 C 51.972656 74.808594 51.367188 74.78125 50.761719 74.726562 C 50.160156 74.671875 49.558594 74.59375 48.964844 74.484375 C 48.371094 74.378906 47.78125 74.246094 47.203125 74.085938 C 46.621094 73.925781 46.050781 73.738281 45.492188 73.53125 C 44.929688 73.320312 44.382812 73.085938 43.847656 72.824219 C 43.3125 72.566406 42.792969 72.285156 42.289062 71.976562 C 41.785156 71.671875 41.296875 71.34375 40.828125 70.996094 C 40.359375 70.648438 39.910156 70.277344 39.480469 69.890625 C 39.054688 69.5 38.644531 69.09375 38.261719 68.667969 C 37.875 68.246094 37.515625 67.804688 37.179688 67.347656 C 36.84375 66.890625 36.53125 66.417969 36.246094 65.933594 C 35.957031 65.449219 35.699219 64.953125 35.46875 64.441406 C 35.234375 63.933594 35.03125 63.417969 34.855469 62.890625 C 34.679688 62.367188 34.53125 61.832031 34.414062 61.292969 C 34.296875 60.753906 34.207031 60.210938 34.148438 59.664062 C 34.085938 59.117188 34.058594 58.566406 34.058594 58.019531 C 34.058594 57.46875 34.085938 56.917969 34.148438 56.371094 C 34.207031 55.824219 34.296875 55.28125 34.414062 54.742188 C 34.53125 54.203125 34.679688 53.671875 34.855469 53.144531 C 35.03125 52.617188 35.234375 52.101562 35.46875 51.59375 C 35.699219 51.085938 35.957031 50.589844 36.246094 50.105469 C 36.53125 49.617188 36.84375 49.148438 37.179688 48.691406 C 37.515625 48.234375 37.875 47.792969 38.261719 47.367188 C 38.644531 46.941406 39.054688 46.535156 39.480469 46.144531 C 39.910156 45.757812 40.359375 45.390625 40.828125 45.039062 C 41.296875 44.691406 41.785156 44.363281 42.289062 44.058594 C 42.792969 43.753906 43.3125 43.46875 43.847656 43.210938 C 44.382812 42.953125 44.929688 42.71875 45.492188 42.507812 C 46.050781 42.296875 46.621094 42.113281 47.203125 41.953125 C 47.78125 41.792969 48.371094 41.660156 48.964844 41.550781 C 49.558594 41.445312 50.160156 41.363281 50.761719 41.308594 C 51.367188 41.253906 51.972656 41.230469 52.578125 41.230469 C 53.183594 41.230469 53.789062 41.253906 54.394531 41.308594 C 54.996094 41.363281 55.597656 41.445312 56.191406 41.550781 C 56.785156 41.660156 57.375 41.792969 57.953125 41.953125 C 58.535156 42.113281 59.105469 42.296875 59.664062 42.507812 C 60.226562 42.71875 60.773438 42.953125 61.308594 43.210938 C 61.84375 43.46875 62.363281 43.753906 62.867188 44.058594 C 63.371094 44.363281 63.859375 44.691406 64.328125 45.039062 C 64.796875 45.390625 65.246094 45.757812 65.675781 46.144531 C 66.101562 46.535156 66.511719 46.941406 66.894531 47.367188 C 67.28125 47.792969 67.640625 48.234375 67.976562 48.691406 C 68.316406 49.148438 68.625 49.617188 68.914062 50.105469 C 69.199219 50.589844 69.457031 51.085938 69.6875 51.59375 C 69.921875 52.101562 70.125 52.617188 70.300781 53.144531 C 70.476562 53.671875 70.625 54.203125 70.742188 54.742188 C 70.863281 55.28125 70.949219 55.824219 71.011719 56.371094 C 71.070312 56.917969 71.097656 57.46875 71.097656 58.019531 Z M 71.097656 58.019531 " fill-opacity="0.7255" fill-rule="nonzero"/><path fill="#ffffff" d="M 69.039062 58.0625 C 69.039062 58.609375 69.011719 59.160156 68.953125 59.707031 C 68.898438 60.253906 68.8125 60.796875 68.699219 61.335938 C 68.585938 61.875 68.441406 62.410156 68.273438 62.933594 C 68.105469 63.460938 67.910156 63.976562 67.6875 64.484375 C 67.460938 64.992188 67.214844 65.492188 66.9375 65.976562 C 66.664062 66.460938 66.363281 66.929688 66.042969 67.386719 C 65.71875 67.847656 65.371094 68.285156 65 68.710938 C 64.632812 69.136719 64.238281 69.542969 63.828125 69.933594 C 63.414062 70.320312 62.984375 70.691406 62.535156 71.039062 C 62.082031 71.386719 61.617188 71.714844 61.132812 72.019531 C 60.648438 72.328125 60.148438 72.609375 59.632812 72.867188 C 59.121094 73.128906 58.59375 73.363281 58.054688 73.570312 C 57.515625 73.78125 56.96875 73.96875 56.410156 74.128906 C 55.851562 74.285156 55.289062 74.421875 54.714844 74.527344 C 54.144531 74.636719 53.570312 74.714844 52.988281 74.769531 C 52.410156 74.824219 51.828125 74.851562 51.246094 74.851562 C 50.660156 74.851562 50.082031 74.824219 49.5 74.769531 C 48.921875 74.714844 48.34375 74.636719 47.773438 74.527344 C 47.199219 74.421875 46.636719 74.285156 46.078125 74.128906 C 45.519531 73.96875 44.972656 73.78125 44.433594 73.570312 C 43.894531 73.363281 43.371094 73.128906 42.855469 72.867188 C 42.339844 72.609375 41.84375 72.328125 41.359375 72.019531 C 40.871094 71.714844 40.40625 71.386719 39.953125 71.039062 C 39.503906 70.691406 39.074219 70.320312 38.660156 69.933594 C 38.25 69.542969 37.859375 69.136719 37.488281 68.710938 C 37.117188 68.285156 36.769531 67.847656 36.449219 67.386719 C 36.125 66.929688 35.824219 66.460938 35.550781 65.976562 C 35.273438 65.492188 35.027344 64.992188 34.804688 64.484375 C 34.582031 63.976562 34.382812 63.460938 34.214844 62.933594 C 34.046875 62.410156 33.902344 61.875 33.789062 61.335938 C 33.675781 60.796875 33.589844 60.253906 33.535156 59.707031 C 33.476562 59.160156 33.449219 58.609375 33.449219 58.0625 C 33.449219 57.511719 33.476562 56.960938 33.535156 56.414062 C 33.589844 55.867188 33.675781 55.324219 33.789062 54.785156 C 33.902344 54.246094 34.046875 53.714844 34.214844 53.1875 C 34.382812 52.660156 34.582031 52.144531 34.804688 51.636719 C 35.027344 51.128906 35.273438 50.632812 35.550781 50.144531 C 35.824219 49.660156 36.125 49.191406 36.449219 48.734375 C 36.769531 48.277344 37.117188 47.835938 37.488281 47.410156 C 37.859375 46.984375 38.25 46.578125 38.660156 46.1875 C 39.074219 45.800781 39.503906 45.429688 39.953125 45.082031 C 40.40625 44.734375 40.871094 44.40625 41.359375 44.101562 C 41.84375 43.796875 42.339844 43.511719 42.855469 43.253906 C 43.371094 42.996094 43.894531 42.761719 44.433594 42.550781 C 44.972656 42.339844 45.519531 42.152344 46.078125 41.996094 C 46.636719 41.835938 47.199219 41.703125 47.773438 41.59375 C 48.34375 41.488281 48.921875 41.40625 49.5 41.351562 C 50.082031 41.296875 50.660156 41.273438 51.246094 41.273438 C 51.828125 41.273438 52.410156 41.296875 52.988281 41.351562 C 53.570312 41.40625 54.144531 41.488281 54.714844 41.59375 C 55.289062 41.703125 55.851562 41.835938 56.410156 41.996094 C 56.96875 42.152344 57.515625 42.339844 58.054688 42.550781 C 58.59375 42.761719 59.121094 42.996094 59.632812 43.253906 C 60.148438 43.511719 60.648438 43.796875 61.132812 44.101562 C 61.617188 44.40625 62.082031 44.734375 62.535156 45.082031 C 62.984375 45.429688 63.414062 45.800781 63.828125 46.1875 C 64.238281 46.578125 64.632812 46.984375 65 47.410156 C 65.371094 47.835938 65.71875 48.277344 66.042969 48.734375 C 66.363281 49.191406 66.664062 49.660156 66.9375 50.144531 C 67.214844 50.632812 67.460938 51.128906 67.6875 51.636719 C 67.910156 52.144531 68.105469 52.660156 68.273438 53.1875 C 68.441406 53.714844 68.585938 54.246094 68.699219 54.785156 C 68.8125 55.324219 68.898438 55.867188 68.953125 56.414062 C 69.011719 56.960938 69.039062 57.511719 69.039062 58.0625 Z M 69.039062 58.0625 " fill-opacity="1" fill-rule="nonzero"/><path fill="#f8cb16" d="M 67.140625 58.039062 C 67.140625 58.925781 67.042969 59.800781 66.855469 60.667969 C 66.664062 61.535156 66.382812 62.378906 66.007812 63.195312 C 65.632812 64.015625 65.175781 64.789062 64.632812 65.527344 C 64.089844 66.261719 63.476562 66.941406 62.785156 67.570312 C 62.09375 68.195312 61.34375 68.753906 60.53125 69.246094 C 59.722656 69.734375 58.863281 70.152344 57.960938 70.488281 C 57.0625 70.828125 56.132812 71.082031 55.175781 71.257812 C 54.214844 71.429688 53.25 71.515625 52.273438 71.515625 C 51.296875 71.515625 50.332031 71.429688 49.375 71.257812 C 48.417969 71.082031 47.488281 70.828125 46.585938 70.488281 C 45.683594 70.152344 44.828125 69.734375 44.015625 69.246094 C 43.203125 68.753906 42.453125 68.195312 41.761719 67.570312 C 41.070312 66.941406 40.457031 66.261719 39.914062 65.527344 C 39.371094 64.789062 38.914062 64.015625 38.539062 63.195312 C 38.167969 62.378906 37.882812 61.535156 37.695312 60.667969 C 37.503906 59.800781 37.410156 58.925781 37.410156 58.039062 C 37.410156 57.15625 37.503906 56.277344 37.695312 55.410156 C 37.882812 54.542969 38.167969 53.699219 38.539062 52.882812 C 38.914062 52.066406 39.371094 51.289062 39.914062 50.550781 C 40.457031 49.816406 41.070312 49.136719 41.761719 48.511719 C 42.453125 47.886719 43.203125 47.328125 44.015625 46.835938 C 44.828125 46.34375 45.683594 45.929688 46.585938 45.589844 C 47.488281 45.25 48.417969 44.996094 49.375 44.824219 C 50.332031 44.648438 51.296875 44.5625 52.273438 44.5625 C 53.25 44.5625 54.214844 44.648438 55.175781 44.824219 C 56.132812 44.996094 57.0625 45.25 57.960938 45.589844 C 58.863281 45.929688 59.722656 46.34375 60.53125 46.835938 C 61.34375 47.328125 62.09375 47.886719 62.785156 48.511719 C 63.476562 49.136719 64.089844 49.816406 64.632812 50.550781 C 65.175781 51.289062 65.632812 52.066406 66.007812 52.882812 C 66.382812 53.699219 66.664062 54.542969 66.855469 55.410156 C 67.042969 56.277344 67.140625 57.15625 67.140625 58.039062 Z M 67.140625 58.039062 " fill-opacity="1" fill-rule="nonzero"/><path fill="#000000" d="M 65.695312 58.039062 C 65.695312 58.839844 65.609375 59.628906 65.4375 60.414062 C 65.265625 61.195312 65.007812 61.957031 64.671875 62.695312 C 64.335938 63.433594 63.921875 64.132812 63.433594 64.796875 C 62.941406 65.460938 62.386719 66.078125 61.761719 66.640625 C 61.140625 67.207031 60.460938 67.710938 59.730469 68.15625 C 58.996094 68.597656 58.222656 68.972656 57.410156 69.277344 C 56.59375 69.585938 55.757812 69.816406 54.890625 69.972656 C 54.027344 70.128906 53.15625 70.207031 52.273438 70.207031 C 51.394531 70.207031 50.519531 70.128906 49.65625 69.972656 C 48.792969 69.816406 47.953125 69.585938 47.136719 69.277344 C 46.324219 68.972656 45.550781 68.597656 44.816406 68.15625 C 44.085938 67.710938 43.40625 67.207031 42.785156 66.640625 C 42.160156 66.078125 41.605469 65.460938 41.117188 64.796875 C 40.625 64.132812 40.210938 63.433594 39.875 62.695312 C 39.539062 61.957031 39.285156 61.195312 39.113281 60.414062 C 38.941406 59.628906 38.855469 58.839844 38.855469 58.039062 C 38.855469 57.242188 38.941406 56.449219 39.113281 55.667969 C 39.285156 54.882812 39.539062 54.121094 39.875 53.382812 C 40.210938 52.644531 40.625 51.945312 41.117188 51.28125 C 41.605469 50.617188 42.160156 50.003906 42.785156 49.4375 C 43.40625 48.871094 44.085938 48.367188 44.816406 47.925781 C 45.550781 47.480469 46.324219 47.105469 47.136719 46.800781 C 47.953125 46.496094 48.792969 46.261719 49.65625 46.109375 C 50.519531 45.953125 51.394531 45.875 52.273438 45.875 C 53.15625 45.875 54.027344 45.953125 54.890625 46.109375 C 55.757812 46.261719 56.59375 46.496094 57.410156 46.800781 C 58.222656 47.105469 58.996094 47.480469 59.730469 47.925781 C 60.460938 48.367188 61.140625 48.871094 61.761719 49.4375 C 62.386719 50.003906 62.941406 50.617188 63.433594 51.28125 C 63.921875 51.945312 64.335938 52.644531 64.671875 53.382812 C 65.007812 54.121094 65.265625 54.882812 65.4375 55.667969 C 65.609375 56.449219 65.695312 57.242188 65.695312 58.039062 Z M 65.695312 58.039062 " fill-opacity="1" fill-rule="nonzero"/><path fill="#ffffff" d="M 52.273438 53.585938 C 52.273438 53.878906 52.242188 54.167969 52.179688 54.453125 C 52.117188 54.742188 52.023438 55.019531 51.898438 55.289062 C 51.777344 55.558594 51.625 55.816406 51.445312 56.058594 C 51.265625 56.304688 51.0625 56.527344 50.835938 56.734375 C 50.605469 56.941406 50.359375 57.125 50.089844 57.289062 C 49.820312 57.453125 49.539062 57.589844 49.242188 57.699219 C 48.941406 57.8125 48.636719 57.898438 48.320312 57.953125 C 48.003906 58.011719 47.683594 58.039062 47.359375 58.039062 C 47.039062 58.039062 46.71875 58.011719 46.402344 57.953125 C 46.085938 57.898438 45.777344 57.8125 45.480469 57.699219 C 45.183594 57.589844 44.898438 57.453125 44.632812 57.289062 C 44.363281 57.125 44.117188 56.941406 43.886719 56.734375 C 43.660156 56.527344 43.457031 56.304688 43.277344 56.058594 C 43.097656 55.816406 42.945312 55.558594 42.824219 55.289062 C 42.699219 55.019531 42.605469 54.742188 42.542969 54.453125 C 42.480469 54.167969 42.449219 53.878906 42.449219 53.585938 C 42.449219 53.292969 42.480469 53.003906 42.542969 52.714844 C 42.605469 52.429688 42.699219 52.152344 42.824219 51.882812 C 42.945312 51.609375 43.097656 51.355469 43.277344 51.109375 C 43.457031 50.867188 43.660156 50.644531 43.886719 50.4375 C 44.117188 50.230469 44.363281 50.042969 44.632812 49.882812 C 44.898438 49.71875 45.183594 49.582031 45.480469 49.472656 C 45.777344 49.359375 46.085938 49.273438 46.402344 49.21875 C 46.71875 49.160156 47.039062 49.132812 47.359375 49.132812 C 47.683594 49.132812 48.003906 49.160156 48.320312 49.21875 C 48.636719 49.273438 48.941406 49.359375 49.242188 49.472656 C 49.539062 49.582031 49.820312 49.71875 50.089844 49.882812 C 50.359375 50.042969 50.605469 50.230469 50.835938 50.4375 C 51.0625 50.644531 51.265625 50.867188 51.445312 51.109375 C 51.625 51.355469 51.777344 51.609375 51.898438 51.882812 C 52.023438 52.152344 52.117188 52.429688 52.179688 52.714844 C 52.242188 53.003906 52.273438 53.292969 52.273438 53.585938 Z M 52.273438 53.585938 " fill-opacity="1" fill-rule="nonzero"/><path fill="#d9d9d9" d="M 110.554688 58.019531 C 110.554688 58.566406 110.527344 59.117188 110.46875 59.664062 C 110.40625 60.210938 110.320312 60.753906 110.199219 61.292969 C 110.082031 61.832031 109.933594 62.367188 109.757812 62.890625 C 109.582031 63.417969 109.378906 63.933594 109.148438 64.441406 C 108.914062 64.953125 108.65625 65.449219 108.371094 65.933594 C 108.082031 66.417969 107.773438 66.890625 107.433594 67.347656 C 107.097656 67.804688 106.738281 68.246094 106.351562 68.667969 C 105.96875 69.09375 105.5625 69.5 105.132812 69.890625 C 104.703125 70.277344 104.253906 70.648438 103.785156 70.996094 C 103.316406 71.34375 102.828125 71.671875 102.324219 71.976562 C 101.820312 72.285156 101.300781 72.566406 100.765625 72.824219 C 100.230469 73.085938 99.683594 73.320312 99.125 73.53125 C 98.5625 73.738281 97.992188 73.925781 97.414062 74.085938 C 96.832031 74.246094 96.242188 74.378906 95.648438 74.484375 C 95.054688 74.59375 94.453125 74.671875 93.851562 74.726562 C 93.246094 74.78125 92.640625 74.808594 92.035156 74.808594 C 91.429688 74.808594 90.824219 74.78125 90.21875 74.726562 C 89.617188 74.671875 89.015625 74.59375 88.421875 74.484375 C 87.828125 74.378906 87.238281 74.246094 86.660156 74.085938 C 86.078125 73.925781 85.507812 73.738281 84.949219 73.53125 C 84.386719 73.320312 83.839844 73.085938 83.304688 72.824219 C 82.769531 72.566406 82.25 72.285156 81.746094 71.976562 C 81.242188 71.671875 80.753906 71.34375 80.285156 70.996094 C 79.816406 70.648438 79.367188 70.277344 78.941406 69.890625 C 78.511719 69.5 78.105469 69.09375 77.71875 68.667969 C 77.335938 68.246094 76.972656 67.804688 76.636719 67.347656 C 76.300781 66.890625 75.988281 66.417969 75.703125 65.933594 C 75.417969 65.449219 75.15625 64.953125 74.925781 64.441406 C 74.691406 63.933594 74.488281 63.417969 74.3125 62.890625 C 74.136719 62.367188 73.988281 61.832031 73.871094 61.292969 C 73.753906 60.753906 73.664062 60.210938 73.605469 59.664062 C 73.542969 59.117188 73.515625 58.566406 73.515625 58.019531 C 73.515625 57.46875 73.542969 56.917969 73.605469 56.371094 C 73.664062 55.824219 73.753906 55.28125 73.871094 54.742188 C 73.988281 54.203125 74.136719 53.671875 74.3125 53.144531 C 74.488281 52.617188 74.691406 52.101562 74.925781 51.59375 C 75.15625 51.085938 75.417969 50.589844 75.703125 50.105469 C 75.988281 49.617188 76.300781 49.148438 76.636719 48.691406 C 76.972656 48.234375 77.335938 47.792969 77.71875 47.367188 C 78.105469 46.941406 78.511719 46.535156 78.941406 46.144531 C 79.367188 45.757812 79.816406 45.390625 80.285156 45.039062 C 80.753906 44.691406 81.242188 44.363281 81.746094 44.058594 C 82.25 43.753906 82.769531 43.46875 83.304688 43.210938 C 83.839844 42.953125 84.386719 42.71875 84.949219 42.507812 C 85.507812 42.296875 86.078125 42.113281 86.660156 41.953125 C 87.238281 41.792969 87.828125 41.660156 88.421875 41.550781 C 89.015625 41.445312 89.617188 41.363281 90.21875 41.308594 C 90.824219 41.253906 91.429688 41.230469 92.035156 41.230469 C 92.640625 41.230469 93.246094 41.253906 93.851562 41.308594 C 94.453125 41.363281 95.054688 41.445312 95.648438 41.550781 C 96.242188 41.660156 96.832031 41.792969 97.414062 41.953125 C 97.992188 42.113281 98.5625 42.296875 99.125 42.507812 C 99.683594 42.71875 100.230469 42.953125 100.765625 43.210938 C 101.300781 43.46875 101.820312 43.753906 102.324219 44.058594 C 102.828125 44.363281 103.316406 44.691406 103.785156 45.039062 C 104.253906 45.390625 104.703125 45.757812 105.132812 46.144531 C 105.5625 46.535156 105.96875 46.941406 106.351562 47.367188 C 106.738281 47.792969 107.097656 48.234375 107.433594 48.691406 C 107.773438 49.148438 108.082031 49.617188 108.371094 50.105469 C 108.65625 50.589844 108.914062 51.085938 109.148438 51.59375 C 109.378906 52.101562 109.582031 52.617188 109.757812 53.144531 C 109.933594 53.671875 110.082031 54.203125 110.199219 54.742188 C 110.320312 55.28125 110.40625 55.824219 110.46875 56.371094 C 110.527344 56.917969 110.554688 57.46875 110.554688 58.019531 Z M 110.554688 58.019531 " fill-opacity="0.7255" fill-rule="nonzero"/><path fill="#ffffff" d="M 108.496094 58.0625 C 108.496094 58.609375 108.46875 59.160156 108.410156 59.707031 C 108.355469 60.253906 108.269531 60.796875 108.15625 61.335938 C 108.042969 61.875 107.898438 62.410156 107.730469 62.933594 C 107.5625 63.460938 107.367188 63.976562 107.140625 64.484375 C 106.917969 64.992188 106.671875 65.492188 106.394531 65.976562 C 106.121094 66.460938 105.820312 66.929688 105.496094 67.386719 C 105.175781 67.847656 104.828125 68.285156 104.457031 68.710938 C 104.089844 69.136719 103.695312 69.542969 103.285156 69.933594 C 102.871094 70.320312 102.441406 70.691406 101.992188 71.039062 C 101.539062 71.386719 101.074219 71.714844 100.589844 72.019531 C 100.105469 72.328125 99.605469 72.609375 99.089844 72.867188 C 98.578125 73.128906 98.050781 73.363281 97.511719 73.570312 C 96.972656 73.78125 96.425781 73.96875 95.867188 74.128906 C 95.308594 74.285156 94.746094 74.421875 94.171875 74.527344 C 93.601562 74.636719 93.027344 74.714844 92.445312 74.769531 C 91.867188 74.824219 91.285156 74.851562 90.703125 74.851562 C 90.117188 74.851562 89.535156 74.824219 88.957031 74.769531 C 88.378906 74.714844 87.800781 74.636719 87.230469 74.527344 C 86.65625 74.421875 86.09375 74.285156 85.535156 74.128906 C 84.976562 73.96875 84.429688 73.78125 83.890625 73.570312 C 83.351562 73.363281 82.828125 73.128906 82.3125 72.867188 C 81.796875 72.609375 81.300781 72.328125 80.8125 72.019531 C 80.328125 71.714844 79.863281 71.386719 79.410156 71.039062 C 78.960938 70.691406 78.53125 70.320312 78.117188 69.933594 C 77.707031 69.542969 77.316406 69.136719 76.945312 68.710938 C 76.574219 68.285156 76.226562 67.847656 75.90625 67.386719 C 75.582031 66.929688 75.28125 66.460938 75.007812 65.976562 C 74.730469 65.492188 74.484375 64.992188 74.261719 64.484375 C 74.035156 63.976562 73.839844 63.460938 73.671875 62.933594 C 73.503906 62.410156 73.359375 61.875 73.246094 61.335938 C 73.132812 60.796875 73.046875 60.253906 72.992188 59.707031 C 72.933594 59.160156 72.90625 58.609375 72.90625 58.0625 C 72.90625 57.511719 72.933594 56.960938 72.992188 56.414062 C 73.046875 55.867188 73.132812 55.324219 73.246094 54.785156 C 73.359375 54.246094 73.503906 53.714844 73.671875 53.1875 C 73.839844 52.660156 74.035156 52.144531 74.261719 51.636719 C 74.484375 51.128906 74.730469 50.632812 75.007812 50.144531 C 75.28125 49.660156 75.582031 49.191406 75.90625 48.734375 C 76.226562 48.277344 76.574219 47.835938 76.945312 47.410156 C 77.316406 46.984375 77.707031 46.578125 78.117188 46.1875 C 78.53125 45.800781 78.960938 45.429688 79.410156 45.082031 C 79.863281 44.734375 80.328125 44.40625 80.8125 44.101562 C 81.300781 43.796875 81.796875 43.511719 82.3125 43.253906 C 82.828125 42.996094 83.351562 42.761719 83.890625 42.550781 C 84.429688 42.339844 84.976562 42.152344 85.535156 41.996094 C 86.09375 41.835938 86.65625 41.703125 87.230469 41.59375 C 87.800781 41.488281 88.378906 41.40625 88.957031 41.351562 C 89.535156 41.296875 90.117188 41.273438 90.703125 41.273438 C 91.285156 41.273438 91.867188 41.296875 92.445312 41.351562 C 93.027344 41.40625 93.601562 41.488281 94.171875 41.59375 C 94.746094 41.703125 95.308594 41.835938 95.867188 41.996094 C 96.425781 42.152344 96.972656 42.339844 97.511719 42.550781 C 98.050781 42.761719 98.578125 42.996094 99.089844 43.253906 C 99.605469 43.511719 100.105469 43.796875 100.589844 44.101562 C 101.074219 44.40625 101.539062 44.734375 101.992188 45.082031 C 102.441406 45.429688 102.871094 45.800781 103.285156 46.1875 C 103.695312 46.578125 104.089844 46.984375 104.457031 47.410156 C 104.828125 47.835938 105.175781 48.277344 105.496094 48.734375 C 105.820312 49.191406 106.121094 49.660156 106.394531 50.144531 C 106.671875 50.632812 106.917969 51.128906 107.140625 51.636719 C 107.367188 52.144531 107.5625 52.660156 107.730469 53.1875 C 107.898438 53.714844 108.042969 54.246094 108.15625 54.785156 C 108.269531 55.324219 108.355469 55.867188 108.410156 56.414062 C 108.46875 56.960938 108.496094 57.511719 108.496094 58.0625 Z M 108.496094 58.0625 " fill-opacity="1" fill-rule="nonzero"/><path fill="#f8cb16" d="M 106.597656 58.039062 C 106.597656 58.925781 106.5 59.800781 106.308594 60.667969 C 106.121094 61.535156 105.839844 62.378906 105.464844 63.195312 C 105.089844 64.015625 104.632812 64.789062 104.089844 65.527344 C 103.546875 66.261719 102.933594 66.941406 102.242188 67.570312 C 101.550781 68.195312 100.800781 68.753906 99.988281 69.246094 C 99.179688 69.734375 98.320312 70.152344 97.417969 70.488281 C 96.519531 70.828125 95.589844 71.082031 94.628906 71.257812 C 93.671875 71.429688 92.707031 71.515625 91.730469 71.515625 C 90.753906 71.515625 89.789062 71.429688 88.832031 71.257812 C 87.875 71.082031 86.945312 70.828125 86.042969 70.488281 C 85.140625 70.152344 84.285156 69.734375 83.472656 69.246094 C 82.660156 68.753906 81.910156 68.195312 81.21875 67.570312 C 80.527344 66.941406 79.914062 66.261719 79.371094 65.527344 C 78.828125 64.789062 78.371094 64.015625 77.996094 63.195312 C 77.625 62.378906 77.339844 61.535156 77.152344 60.667969 C 76.960938 59.800781 76.867188 58.925781 76.867188 58.039062 C 76.867188 57.15625 76.960938 56.277344 77.152344 55.410156 C 77.339844 54.542969 77.625 53.699219 77.996094 52.882812 C 78.371094 52.066406 78.828125 51.289062 79.371094 50.550781 C 79.914062 49.816406 80.527344 49.136719 81.21875 48.511719 C 81.910156 47.886719 82.660156 47.328125 83.472656 46.835938 C 84.285156 46.34375 85.140625 45.929688 86.042969 45.589844 C 86.945312 45.25 87.875 44.996094 88.832031 44.824219 C 89.789062 44.648438 90.753906 44.5625 91.730469 44.5625 C 92.707031 44.5625 93.671875 44.648438 94.628906 44.824219 C 95.589844 44.996094 96.519531 45.25 97.417969 45.589844 C 98.320312 45.929688 99.179688 46.34375 99.988281 46.835938 C 100.800781 47.328125 101.550781 47.886719 102.242188 48.511719 C 102.933594 49.136719 103.546875 49.816406 104.089844 50.550781 C 104.632812 51.289062 105.089844 52.066406 105.464844 52.882812 C 105.839844 53.699219 106.121094 54.542969 106.308594 55.410156 C 106.5 56.277344 106.597656 57.15625 106.597656 58.039062 Z M 106.597656 58.039062 " fill-opacity="1" fill-rule="nonzero"/><path fill="#000000" d="M 105.152344 58.039062 C 105.152344 58.839844 105.066406 59.628906 104.894531 60.414062 C 104.722656 61.195312 104.464844 61.957031 104.128906 62.695312 C 103.792969 63.433594 103.378906 64.132812 102.890625 64.796875 C 102.398438 65.460938 101.84375 66.078125 101.21875 66.640625 C 100.597656 67.207031 99.917969 67.710938 99.1875 68.15625 C 98.453125 68.597656 97.679688 68.972656 96.867188 69.277344 C 96.050781 69.585938 95.214844 69.816406 94.347656 69.972656 C 93.484375 70.128906 92.613281 70.207031 91.730469 70.207031 C 90.847656 70.207031 89.976562 70.128906 89.113281 69.972656 C 88.25 69.816406 87.410156 69.585938 86.59375 69.277344 C 85.78125 68.972656 85.007812 68.597656 84.273438 68.15625 C 83.542969 67.710938 82.863281 67.207031 82.242188 66.640625 C 81.617188 66.078125 81.0625 65.460938 80.574219 64.796875 C 80.082031 64.132812 79.667969 63.433594 79.332031 62.695312 C 78.996094 61.957031 78.742188 61.195312 78.570312 60.414062 C 78.398438 59.628906 78.3125 58.839844 78.3125 58.039062 C 78.3125 57.242188 78.398438 56.449219 78.570312 55.667969 C 78.742188 54.882812 78.996094 54.121094 79.332031 53.382812 C 79.667969 52.644531 80.082031 51.945312 80.574219 51.28125 C 81.0625 50.617188 81.617188 50.003906 82.242188 49.4375 C 82.863281 48.871094 83.542969 48.367188 84.273438 47.925781 C 85.007812 47.480469 85.78125 47.105469 86.59375 46.800781 C 87.410156 46.496094 88.25 46.261719 89.113281 46.109375 C 89.976562 45.953125 90.847656 45.875 91.730469 45.875 C 92.613281 45.875 93.484375 45.953125 94.347656 46.109375 C 95.214844 46.261719 96.050781 46.496094 96.867188 46.800781 C 97.679688 47.105469 98.453125 47.480469 99.1875 47.925781 C 99.917969 48.367188 100.597656 48.871094 101.21875 49.4375 C 101.84375 50.003906 102.398438 50.617188 102.890625 51.28125 C 103.378906 51.945312 103.792969 52.644531 104.128906 53.382812 C 104.464844 54.121094 104.722656 54.882812 104.894531 55.667969 C 105.066406 56.449219 105.152344 57.242188 105.152344 58.039062 Z M 105.152344 58.039062 " fill-opacity="1" fill-rule="nonzero"/><path fill="#ffffff" d="M 91.46875 53.023438 C 91.46875 53.328125 91.4375 53.625 91.375 53.921875 C 91.308594 54.21875 91.210938 54.507812 91.085938 54.785156 C 90.957031 55.066406 90.800781 55.328125 90.613281 55.582031 C 90.429688 55.832031 90.21875 56.066406 89.984375 56.277344 C 89.75 56.492188 89.492188 56.683594 89.214844 56.851562 C 88.9375 57.019531 88.644531 57.160156 88.335938 57.277344 C 88.027344 57.390625 87.710938 57.480469 87.382812 57.539062 C 87.058594 57.597656 86.726562 57.625 86.394531 57.625 C 86.0625 57.625 85.730469 57.597656 85.402344 57.539062 C 85.078125 57.480469 84.761719 57.390625 84.453125 57.277344 C 84.144531 57.160156 83.851562 57.019531 83.574219 56.851562 C 83.296875 56.683594 83.039062 56.492188 82.804688 56.277344 C 82.570312 56.066406 82.359375 55.832031 82.171875 55.582031 C 81.988281 55.328125 81.832031 55.066406 81.703125 54.785156 C 81.578125 54.507812 81.480469 54.21875 81.414062 53.921875 C 81.351562 53.625 81.316406 53.328125 81.316406 53.023438 C 81.316406 52.722656 81.351562 52.421875 81.414062 52.128906 C 81.480469 51.832031 81.578125 51.542969 81.703125 51.265625 C 81.832031 50.984375 81.988281 50.71875 82.171875 50.46875 C 82.359375 50.21875 82.570312 49.984375 82.804688 49.769531 C 83.039062 49.558594 83.296875 49.367188 83.574219 49.199219 C 83.851562 49.03125 84.144531 48.890625 84.453125 48.773438 C 84.761719 48.660156 85.078125 48.570312 85.402344 48.511719 C 85.730469 48.453125 86.0625 48.421875 86.394531 48.421875 C 86.726562 48.421875 87.058594 48.453125 87.382812 48.511719 C 87.710938 48.570312 88.027344 48.660156 88.335938 48.773438 C 88.644531 48.890625 88.9375 49.03125 89.214844 49.199219 C 89.492188 49.367188 89.75 49.558594 89.984375 49.769531 C 90.21875 49.984375 90.429688 50.21875 90.613281 50.46875 C 90.800781 50.71875 90.957031 50.984375 91.085938 51.265625 C 91.210938 51.542969 91.308594 51.832031 91.375 52.128906 C 91.4375 52.421875 91.46875 52.722656 91.46875 53.023438 Z M 91.46875 53.023438 " fill-opacity="1" fill-rule="nonzero"/><path fill="#000000" d="M 71.15625 79.878906 C 67.144531 80.871094 63.054688 77.863281 58.980469 78.511719 C 55.261719 79.101562 52.429688 82.882812 52.148438 86.832031 C 51.871094 90.777344 53.808594 94.664062 56.664062 97.242188 C 59.515625 99.820312 63.183594 101.222656 66.882812 101.945312 C 71.902344 102.933594 77.210938 102.730469 81.964844 100.757812 C 86.714844 98.785156 90.855469 94.9375 92.773438 89.953125 C 93.703125 87.53125 94.089844 84.734375 93.136719 82.320312 C 91.65625 78.558594 87.355469 76.820312 83.488281 76.984375 C 79.621094 77.152344 75.949219 78.691406 71.15625 79.878906 Z M 71.15625 79.878906 " fill-opacity="1" fill-rule="nonzero"/><g clip-path="url(#723b822f2d)"><g clip-path="url(#132c967489)"><path fill="#ffffff" d="M 54.09375 78.523438 C 54.546875 80.625 55.660156 82.609375 57.273438 84.171875 C 58.058594 84.933594 59.121094 85.640625 60.25 85.460938 C 61.472656 85.261719 62.199219 84.136719 62.699219 83.109375 C 63.222656 82.027344 63.679688 80.917969 64.070312 79.789062 C 64.304688 79.105469 64.511719 78.363281 64.242188 77.695312 C 63.945312 76.960938 63.140625 76.496094 62.328125 76.226562 C 59.433594 75.265625 55.886719 76.308594 54.09375 78.523438 Z M 54.09375 78.523438 " fill-opacity="1" fill-rule="nonzero"/></g></g><g clip-path="url(#10ab26345c)"><g clip-path="url(#84bd5457e1)"><g clip-path="url(#3513a3d899)"><path fill="#dee0df" d="M 63.914062 75.257812 C 63.734375 77.171875 63.476562 79.121094 62.585938 80.863281 C 61.691406 82.601562 60.050781 84.128906 57.976562 84.523438 C 57.664062 84.582031 57.332031 84.621094 57.066406 84.785156 C 56.476562 85.152344 56.515625 85.992188 56.902344 86.539062 C 57.429688 87.289062 58.429688 87.6875 59.40625 87.722656 C 60.386719 87.757812 61.347656 87.46875 62.230469 87.085938 C 64.375 86.160156 66.21875 84.613281 67.25 82.675781 C 68.28125 80.734375 68.453125 78.398438 67.550781 76.40625 C 67.230469 75.699219 66.71875 74.992188 65.925781 74.726562 C 65.132812 74.460938 63.953125 74.847656 63.914062 75.257812 Z M 63.914062 75.257812 " fill-opacity="1" fill-rule="nonzero"/></g></g></g><g clip-path="url(#509f92ff64)"><g clip-path="url(#9404eb8c25)"><path fill="#ffffff" d="M 76.335938 76.273438 C 76.789062 78.375 77.90625 80.355469 79.519531 81.921875 C 80.300781 82.683594 81.363281 83.390625 82.496094 83.207031 C 83.714844 83.011719 84.441406 81.886719 84.941406 80.859375 C 85.464844 79.773438 85.925781 78.667969 86.3125 77.539062 C 86.550781 76.855469 86.757812 76.113281 86.484375 75.445312 C 86.1875 74.710938 85.382812 74.246094 84.574219 73.976562 C 81.679688 73.015625 78.128906 74.058594 76.335938 76.273438 Z M 76.335938 76.273438 " fill-opacity="1" fill-rule="nonzero"/></g></g><g clip-path="url(#2e034c95bd)"><g clip-path="url(#c88d6530c1)"><g clip-path="url(#2d933795f6)"><path fill="#dee0df" d="M 86.15625 73.007812 C 85.976562 74.921875 85.722656 76.871094 84.828125 78.609375 C 83.933594 80.351562 82.292969 81.878906 80.21875 82.273438 C 79.90625 82.332031 79.574219 82.367188 79.3125 82.53125 C 78.71875 82.902344 78.757812 83.742188 79.144531 84.289062 C 79.671875 85.039062 80.671875 85.4375 81.652344 85.472656 C 82.628906 85.507812 83.589844 85.21875 84.476562 84.835938 C 86.617188 83.90625 88.460938 82.363281 89.492188 80.425781 C 90.523438 78.484375 90.695312 76.148438 89.792969 74.15625 C 89.472656 73.449219 88.964844 72.742188 88.171875 72.476562 C 87.375 72.210938 86.195312 72.597656 86.15625 73.007812 Z M 86.15625 73.007812 " fill-opacity="1" fill-rule="nonzero"/></g></g></g><g clip-path="url(#71873d81b5)"><g clip-path="url(#013688209f)"><path fill="#ff3a3f" d="M 93.6875 98.792969 C 88.933594 94.707031 81.980469 92.269531 75.691406 93.945312 C 73.738281 94.46875 71.886719 95.367188 69.859375 95.582031 C 68.277344 95.75 66.667969 95.484375 65.089844 95.671875 C 61.136719 96.136719 58.277344 99.207031 56.980469 101.636719 C 55.800781 106.300781 59.96875 111.0625 65.027344 112.4375 C 70.082031 113.8125 75.578125 112.527344 80.355469 110.484375 C 85.632812 108.226562 90.425781 105.046875 93.6875 98.792969 Z M 93.6875 98.792969 " fill-opacity="1" fill-rule="nonzero"/></g></g><g clip-path="url(#6cf24ae45d)"><g clip-path="url(#455b6ae3a2)"><g clip-path="url(#47c91ab7fc)"><path fill="#ffffff" d="M 87.972656 90.78125 C 82.164062 96.867188 74.140625 101.050781 65.597656 103.242188 C 63.453125 103.792969 61.230469 104.222656 59.007812 104.058594 C 56.789062 103.898438 54.546875 103.066406 53.167969 101.476562 C 51.421875 99.453125 51.382812 96.519531 52.503906 94.160156 C 53.625 91.796875 55.734375 89.9375 58.003906 88.394531 C 64.554688 83.945312 72.890625 81.703125 81.0625 82.195312 C 83.1875 82.324219 85.410156 82.671875 87.082031 83.871094 C 88.757812 85.070312 90.683594 87.9375 87.972656 90.78125 Z M 87.972656 90.78125 " fill-opacity="0.1765" fill-rule="nonzero"/></g></g></g><path fill="#ffffff" d="M 62.253906 23.289062 C 62.386719 23.527344 62.433594 23.8125 62.398438 24.140625 C 62.363281 24.46875 62.246094 24.832031 62.042969 25.234375 C 61.839844 25.632812 61.558594 26.0625 61.199219 26.523438 C 60.839844 26.980469 60.40625 27.460938 59.902344 27.960938 C 59.398438 28.460938 58.832031 28.96875 58.203125 29.488281 C 57.570312 30.007812 56.890625 30.53125 56.160156 31.050781 C 55.429688 31.574219 54.664062 32.085938 53.859375 32.589844 C 53.058594 33.089844 52.234375 33.574219 51.386719 34.039062 C 50.542969 34.503906 49.691406 34.9375 48.839844 35.347656 C 47.984375 35.753906 47.140625 36.128906 46.308594 36.464844 C 45.476562 36.800781 44.671875 37.09375 43.898438 37.347656 C 43.121094 37.597656 42.386719 37.804688 41.699219 37.960938 C 41.007812 38.117188 40.371094 38.226562 39.792969 38.285156 C 39.214844 38.339844 38.703125 38.347656 38.257812 38.300781 C 37.8125 38.253906 37.441406 38.160156 37.148438 38.011719 C 36.851562 37.867188 36.640625 37.671875 36.507812 37.429688 C 36.375 37.191406 36.328125 36.90625 36.363281 36.578125 C 36.398438 36.25 36.519531 35.886719 36.71875 35.484375 C 36.921875 35.085938 37.203125 34.65625 37.5625 34.195312 C 37.921875 33.738281 38.355469 33.257812 38.859375 32.757812 C 39.363281 32.257812 39.933594 31.75 40.5625 31.230469 C 41.191406 30.710938 41.871094 30.1875 42.601562 29.667969 C 43.332031 29.144531 44.097656 28.632812 44.902344 28.128906 C 45.707031 27.628906 46.53125 27.144531 47.375 26.679688 C 48.21875 26.214844 49.070312 25.78125 49.925781 25.371094 C 50.78125 24.964844 51.621094 24.589844 52.453125 24.253906 C 53.285156 23.917969 54.089844 23.625 54.867188 23.371094 C 55.640625 23.121094 56.375 22.914062 57.066406 22.757812 C 57.757812 22.597656 58.390625 22.492188 58.96875 22.433594 C 59.550781 22.378906 60.0625 22.371094 60.507812 22.417969 C 60.953125 22.464844 61.320312 22.558594 61.617188 22.707031 C 61.910156 22.851562 62.125 23.046875 62.253906 23.289062 Z M 62.253906 23.289062 " fill-opacity="0.3098" fill-rule="nonzero"/><path fill="#ffffff" d="M 128.386719 66.714844 C 129.980469 64.082031 131.152344 61.238281 131.851562 58.304688 C 132.074219 57.375 132.265625 56.398438 132.886719 55.632812 C 133.511719 54.867188 134.730469 54.398438 135.640625 54.867188 C 136.296875 55.207031 136.609375 55.945312 136.578125 56.628906 C 136.542969 57.3125 136.222656 57.957031 135.863281 58.5625 C 135.0625 59.910156 134.054688 61.140625 133.050781 62.371094 C 131.871094 63.8125 130.691406 65.253906 129.511719 66.691406 C 129.347656 66.894531 129.160156 67.109375 128.890625 67.152344 C 128.621094 67.199219 128.257812 66.925781 128.386719 66.714844 Z M 128.386719 66.714844 " fill-opacity="0.3451" fill-rule="nonzero"/></svg>