<svg xmlns="http://www.w3.org/2000/svg" xmlns:xlink="http://www.w3.org/1999/xlink" width="200" zoomAndPan="magnify" viewBox="0 0 150 149.999998" height="200" preserveAspectRatio="xMidYMid meet" version="1.0"><defs><clipPath id="9d36a99e1b"><path d="M 45 1 L 74 1 L 74 43.042969 L 45 43.042969 Z M 45 1 " clip-rule="nonzero"/></clipPath><clipPath id="c42e3eea73"><path d="M 50 1.375 L 73.972656 1.375 L 73.972656 33 L 50 33 Z M 50 1.375 " clip-rule="nonzero"/></clipPath><clipPath id="2248fd15af"><path d="M 73.554688 31.617188 C 74.265625 30.671875 73.9375 29.3125 72.867188 28.804688 C 66.917969 25.980469 62.414062 20.175781 61.292969 13.660156 C 60.835938 10.996094 60.949219 8.25 61.5625 5.621094 C 62.339844 2.300781 58.285156 0.0195312 55.875 2.429688 C 51.144531 7.160156 47.648438 13.140625 46.03125 19.644531 C 44.511719 25.761719 44.742188 32.722656 48.507812 37.777344 C 52.253906 42.792969 60.179688 44.820312 64.820312 41.210938 C 64.882812 41.160156 64.941406 41.105469 65 41.050781 C 68.070312 37.9375 71.136719 34.828125 73.554688 31.617188 Z M 73.554688 31.617188 " clip-rule="nonzero"/></clipPath><clipPath id="d39af6f436"><path d="M 45.121094 1.375 L 73.972656 1.375 L 73.972656 43.042969 L 45.121094 43.042969 Z M 45.121094 1.375 " clip-rule="nonzero"/></clipPath><clipPath id="2fab253ddd"><path d="M 73.554688 31.617188 C 74.265625 30.671875 73.9375 29.3125 72.867188 28.804688 C 66.917969 25.980469 62.414062 20.175781 61.292969 13.660156 C 60.835938 10.996094 60.949219 8.25 61.5625 5.621094 C 62.339844 2.300781 58.285156 0.0195312 55.875 2.429688 C 51.144531 7.160156 47.648438 13.140625 46.03125 19.644531 C 44.511719 25.761719 44.742188 32.722656 48.507812 37.777344 C 52.253906 42.792969 60.179688 44.820312 64.820312 41.210938 C 64.882812 41.160156 64.941406 41.105469 65 41.050781 C 68.070312 37.9375 71.136719 34.828125 73.554688 31.617188 Z M 73.554688 31.617188 " clip-rule="nonzero"/></clipPath><clipPath id="78d8bcaf01"><path d="M 96 11 L 128 11 L 128 52 L 96 52 Z M 96 11 " clip-rule="nonzero"/></clipPath><clipPath id="f43361e850"><path d="M 86.488281 43.957031 L 101.050781 0.332031 L 143.484375 14.554688 L 128.921875 58.175781 Z M 86.488281 43.957031 " clip-rule="nonzero"/></clipPath><clipPath id="7693ccb1f3"><path d="M 97 11.46875 L 124 11.46875 L 124 41 L 97 41 Z M 97 11.46875 " clip-rule="nonzero"/></clipPath><clipPath id="a6b83c6f98"><path d="M 86.488281 43.957031 L 101.050781 0.332031 L 143.484375 14.554688 L 128.921875 58.175781 Z M 86.488281 43.957031 " clip-rule="nonzero"/></clipPath><clipPath id="d351707be1"><path d="M 97.027344 35.449219 C 96.652344 34.324219 97.394531 33.136719 98.570312 32.996094 C 105.105469 32.207031 111.214844 28.136719 114.339844 22.3125 C 115.621094 19.929688 116.378906 17.292969 116.628906 14.605469 C 116.945312 11.207031 121.511719 10.332031 123.035156 13.382812 C 126.023438 19.375 127.449219 26.15625 126.921875 32.835938 C 126.425781 39.125 124.003906 45.652344 118.832031 49.246094 C 113.695312 52.816406 105.535156 52.214844 102.277344 47.320312 C 102.234375 47.253906 102.195312 47.183594 102.160156 47.109375 C 100.230469 43.183594 98.304688 39.257812 97.027344 35.449219 Z M 97.027344 35.449219 " clip-rule="nonzero"/></clipPath><clipPath id="b2c42119b2"><path d="M 96.886719 11.46875 L 127.046875 11.46875 L 127.046875 51.582031 L 96.886719 51.582031 Z M 96.886719 11.46875 " clip-rule="nonzero"/></clipPath><clipPath id="903a9cc1dc"><path d="M 86.488281 43.957031 L 101.050781 0.332031 L 143.484375 14.554688 L 128.921875 58.175781 Z M 86.488281 43.957031 " clip-rule="nonzero"/></clipPath><clipPath id="230a5a2e41"><path d="M 97.027344 35.449219 C 96.652344 34.324219 97.394531 33.136719 98.570312 32.996094 C 105.105469 32.207031 111.214844 28.136719 114.339844 22.3125 C 115.621094 19.929688 116.378906 17.292969 116.628906 14.605469 C 116.945312 11.207031 121.511719 10.332031 123.035156 13.382812 C 126.023438 19.375 127.449219 26.15625 126.921875 32.835938 C 126.425781 39.125 124.003906 45.652344 118.832031 49.246094 C 113.695312 52.816406 105.535156 52.214844 102.277344 47.320312 C 102.234375 47.253906 102.195312 47.183594 102.160156 47.109375 C 100.230469 43.183594 98.304688 39.257812 97.027344 35.449219 Z M 97.027344 35.449219 " clip-rule="nonzero"/></clipPath><clipPath id="c3b1933e34"><path d="M 116.347656 81.800781 L 146 81.800781 L 146 103 L 116.347656 103 Z M 116.347656 81.800781 " clip-rule="nonzero"/></clipPath><clipPath id="9a3ce446e7"><path d="M 122.5 84.367188 C 123.664062 87.417969 127.207031 89.066406 130.460938 88.859375 C 133.71875 88.648438 136.691406 86.945312 139.285156 84.960938 C 141.566406 83.210938 144.296875 81.082031 146.996094 82.074219 C 148.84375 82.757812 149.921875 84.8125 149.960938 86.78125 C 150.003906 88.753906 149.191406 90.644531 148.21875 92.355469 C 145.15625 97.730469 140.261719 102.035156 134.546875 104.382812 C 128.828125 106.730469 122.328125 107.105469 116.382812 105.429688 " clip-rule="nonzero"/></clipPath><clipPath id="695696a8e9"><path d="M 14 55.453125 L 35.390625 55.453125 L 35.390625 90 L 14 90 Z M 14 55.453125 " clip-rule="nonzero"/></clipPath><clipPath id="87d0c334c2"><path d="M 35.347656 69.980469 C 32.667969 72.269531 28.738281 72.042969 26.085938 70.210938 C 23.433594 68.378906 21.847656 65.277344 20.738281 62.105469 C 19.765625 59.3125 18.625 55.933594 15.777344 55.515625 C 13.828125 55.230469 11.773438 56.621094 10.644531 58.457031 C 9.519531 60.289062 9.160156 62.476562 9.042969 64.582031 C 8.671875 71.179688 10.449219 77.695312 14.011719 82.777344 C 17.574219 87.859375 22.898438 91.480469 28.882812 92.890625 " clip-rule="nonzero"/></clipPath><clipPath id="8ebd719254"><path d="M 2.609375 26.824219 L 122 26.824219 L 122 131 L 2.609375 131 Z M 2.609375 26.824219 " clip-rule="nonzero"/></clipPath><clipPath id="be9ea42819"><path d="M 10.847656 142.722656 C 3.148438 141.160156 0 131.859375 5.109375 125.878906 C 12.871094 116.792969 18.113281 105.515625 22.472656 94.265625 C 27.980469 80.046875 32.496094 65.257812 40.699219 52.414062 C 48.902344 39.566406 61.691406 28.601562 76.832031 27.03125 C 91.125 25.542969 105.523438 32.960938 114.304688 44.359375 C 123.085938 55.757812 126.636719 70.617188 126.105469 85.007812 C 125.574219 99.394531 121.21875 113.40625 115.503906 126.617188 C 113.179688 131.992188 110.582031 137.335938 106.785156 141.796875 C 102.992188 146.253906 97.851562 149.796875 92.0625 150.640625 C 86.277344 151.484375 79.878906 149.226562 76.714844 144.300781 C 75.476562 142.375 74.765625 140.152344 73.574219 138.203125 C 72.378906 136.25 70.476562 134.492188 68.195312 134.421875 C 65.785156 134.347656 63.765625 136.117188 61.960938 137.71875 C 59.1875 140.1875 56.191406 142.558594 52.652344 143.679688 C 49.109375 144.796875 44.898438 144.433594 42.175781 141.902344 C 39.667969 139.574219 38.304688 135.496094 34.921875 134.996094 C 32.1875 134.589844 29.894531 136.84375 27.730469 138.5625 C 22.914062 142.394531 16.558594 143.878906 10.847656 142.722656 Z M 10.847656 142.722656 " clip-rule="nonzero"/></clipPath></defs><g clip-path="url(#9d36a99e1b)"><path fill="#89ad22" d="M 73.554688 31.617188 C 74.265625 30.671875 73.9375 29.3125 72.867188 28.804688 C 66.917969 25.980469 62.414062 20.175781 61.292969 13.660156 C 60.835938 10.996094 60.949219 8.25 61.5625 5.621094 C 62.339844 2.300781 58.285156 0.0195312 55.875 2.429688 C 51.144531 7.160156 47.648438 13.140625 46.03125 19.644531 C 44.511719 25.761719 44.742188 32.722656 48.507812 37.777344 C 52.253906 42.792969 60.179688 44.820312 64.820312 41.210938 C 64.882812 41.160156 64.941406 41.105469 65 41.050781 C 68.070312 37.9375 71.136719 34.828125 73.554688 31.617188 Z M 73.554688 31.617188 " fill-opacity="1" fill-rule="nonzero"/></g><g clip-path="url(#c42e3eea73)"><g clip-path="url(#2248fd15af)"><path fill="#ffffff" d="M 60.078125 -1.355469 C 56.382812 3.628906 52.585938 8.828125 51.332031 14.914062 C 50.082031 21 52.140625 28.242188 57.675781 31.035156 C 62.171875 33.308594 67.945312 32.003906 71.6875 28.625 C 75.429688 25.25 77.3125 20.164062 77.664062 15.128906 C 78.011719 10.21875 76.871094 4.960938 73.441406 1.4375 C 70.007812 -2.085938 62.648438 -4.820312 60.078125 -1.355469 Z M 60.078125 -1.355469 " fill-opacity="0.3373" fill-rule="nonzero"/></g></g><g clip-path="url(#d39af6f436)"><g clip-path="url(#2fab253ddd)"><path stroke-linecap="butt" transform="matrix(0.0690163, 0, 0, 0.0691554, -55.502895, -40.534752)" fill="none" stroke-linejoin="miter" d="M 1356.832185 908.501077 C 1496.858009 776.947197 1712.217048 731.985029 1893.220518 796.434569 " stroke="#ffffff" stroke-width="85.855003" stroke-opacity="0.5765" stroke-miterlimit="10"/><path stroke-linecap="butt" transform="matrix(0.0690163, 0, 0, 0.0691554, -55.502895, -40.534752)" fill="none" stroke-linejoin="miter" d="M 1424.977331 1078.69079 C 1565.003156 947.136909 1780.362194 902.174742 1961.365665 966.680766 " stroke="#ffffff" stroke-width="85.855003" stroke-opacity="0.5765" stroke-miterlimit="10"/></g></g><g clip-path="url(#78d8bcaf01)"><g clip-path="url(#f43361e850)"><path fill="#89ad22" d="M 97.027344 35.449219 C 96.652344 34.324219 97.394531 33.136719 98.570312 32.996094 C 105.105469 32.207031 111.214844 28.136719 114.339844 22.3125 C 115.621094 19.929688 116.378906 17.292969 116.628906 14.605469 C 116.945312 11.207031 121.511719 10.332031 123.035156 13.382812 C 126.023438 19.375 127.449219 26.15625 126.921875 32.835938 C 126.425781 39.125 124.003906 45.652344 118.832031 49.246094 C 113.695312 52.816406 105.535156 52.214844 102.277344 47.320312 C 102.234375 47.253906 102.195312 47.183594 102.160156 47.109375 C 100.230469 43.183594 98.304688 39.257812 97.027344 35.449219 Z M 97.027344 35.449219 " fill-opacity="1" fill-rule="nonzero"/></g></g><g clip-path="url(#7693ccb1f3)"><g clip-path="url(#a6b83c6f98)"><g clip-path="url(#d351707be1)"><path fill="#ffffff" d="M 120.242188 8.457031 C 122.171875 14.363281 124.128906 20.5 123.390625 26.667969 C 122.652344 32.835938 118.40625 39.050781 112.273438 39.941406 C 107.289062 40.667969 102.226562 37.59375 99.746094 33.203125 C 97.265625 28.8125 97.089844 23.390625 98.347656 18.503906 C 99.578125 13.734375 102.320312 9.109375 106.691406 6.859375 C 111.058594 4.609375 118.902344 4.355469 120.242188 8.457031 Z M 120.242188 8.457031 " fill-opacity="0.3373" fill-rule="nonzero"/></g></g></g><g clip-path="url(#b2c42119b2)"><g clip-path="url(#903a9cc1dc)"><g clip-path="url(#230a5a2e41)"><path stroke-linecap="butt" transform="matrix(0.0690163, 0, 0, 0.0691554, -55.502895, -40.534752)" fill="none" stroke-linejoin="miter" d="M 2739.488151 1133.537856 C 2648.363828 964.364876 2458.417722 853.42807 2266.320855 857.212574 " stroke="#ffffff" stroke-width="85.855003" stroke-opacity="0.5765" stroke-miterlimit="10"/><path stroke-linecap="butt" transform="matrix(0.0690163, 0, 0, 0.0691554, -55.502895, -40.534752)" fill="none" stroke-linejoin="miter" d="M 2620.913332 1273.338566 C 2529.789009 1104.165586 2339.842903 993.22878 2147.746036 997.013284 " stroke="#ffffff" stroke-width="85.855003" stroke-opacity="0.5765" stroke-miterlimit="10"/></g></g></g><path fill="#89ad22" d="M 122.5 84.367188 C 123.664062 87.417969 127.207031 89.066406 130.460938 88.859375 C 133.71875 88.648438 136.691406 86.945312 139.285156 84.960938 C 141.566406 83.210938 144.296875 81.082031 146.996094 82.074219 C 148.84375 82.757812 149.921875 84.8125 149.960938 86.78125 C 150.003906 88.753906 149.191406 90.644531 148.21875 92.355469 C 145.15625 97.730469 140.261719 102.035156 134.546875 104.382812 C 128.828125 106.730469 122.328125 107.105469 116.382812 105.429688 " fill-opacity="1" fill-rule="nonzero"/><g clip-path="url(#c3b1933e34)"><g clip-path="url(#9a3ce446e7)"><path fill="#ffffff" d="M 144.644531 79.097656 C 146.6875 82.019531 145.652344 86.09375 143.886719 89.195312 C 139.394531 97.089844 130.457031 102.238281 121.386719 102.148438 C 117.90625 102.113281 114.125 101.171875 112.050781 98.371094 C 109.476562 94.902344 110.46875 89.914062 112.523438 86.113281 C 115.796875 80.054688 121.523438 75.378906 128.105469 73.386719 C 134.683594 71.394531 140.378906 72.988281 144.644531 79.097656 Z M 144.644531 79.097656 " fill-opacity="0.1098" fill-rule="nonzero"/></g></g><path fill="#89ad22" d="M 35.347656 69.980469 C 32.667969 72.269531 28.738281 72.042969 26.085938 70.210938 C 23.433594 68.378906 21.847656 65.277344 20.738281 62.105469 C 19.765625 59.3125 18.625 55.933594 15.777344 55.515625 C 13.828125 55.230469 11.773438 56.621094 10.644531 58.457031 C 9.519531 60.289062 9.160156 62.476562 9.042969 64.582031 C 8.671875 71.179688 10.449219 77.695312 14.011719 82.777344 C 17.574219 87.859375 22.898438 91.480469 28.882812 92.890625 " fill-opacity="1" fill-rule="nonzero"/><g clip-path="url(#695696a8e9)"><g clip-path="url(#87d0c334c2)"><path fill="#ffffff" d="M 19.425781 53.890625 C 16.070312 55.613281 14.695312 59.976562 14.476562 63.777344 C 13.925781 73.472656 18.679688 82.808594 26.445312 87.285156 C 29.425781 89.003906 33.164062 90.011719 36.480469 88.421875 C 40.589844 86.445312 42.507812 81.25 42.867188 76.640625 C 43.4375 69.292969 41.15625 62.007812 36.660156 56.828125 C 32.164062 51.644531 26.4375 50.28125 19.425781 53.890625 Z M 19.425781 53.890625 " fill-opacity="0.1098" fill-rule="nonzero"/></g></g><path fill="#89ad22" d="M 10.847656 142.722656 C 3.148438 141.160156 0 131.859375 5.109375 125.878906 C 12.871094 116.792969 18.113281 105.515625 22.472656 94.265625 C 27.980469 80.046875 32.496094 65.257812 40.699219 52.414062 C 48.902344 39.566406 61.691406 28.601562 76.832031 27.03125 C 91.125 25.542969 105.523438 32.960938 114.304688 44.359375 C 123.085938 55.757812 126.636719 70.617188 126.105469 85.007812 C 125.574219 99.394531 121.21875 113.40625 115.503906 126.617188 C 113.179688 131.992188 110.582031 137.335938 106.785156 141.796875 C 102.992188 146.253906 97.851562 149.796875 92.0625 150.640625 C 86.277344 151.484375 79.878906 149.226562 76.714844 144.300781 C 75.476562 142.375 74.765625 140.152344 73.574219 138.203125 C 72.378906 136.25 70.476562 134.492188 68.195312 134.421875 C 65.785156 134.347656 63.765625 136.117188 61.960938 137.71875 C 59.1875 140.1875 56.191406 142.558594 52.652344 143.679688 C 49.109375 144.796875 44.898438 144.433594 42.175781 141.902344 C 39.667969 139.574219 38.304688 135.496094 34.921875 134.996094 C 32.1875 134.589844 29.894531 136.84375 27.730469 138.5625 C 22.914062 142.394531 16.558594 143.878906 10.847656 142.722656 Z M 10.847656 142.722656 " fill-opacity="1" fill-rule="nonzero"/><g clip-path="url(#8ebd719254)"><g clip-path="url(#be9ea42819)"><path fill="#ffffff" d="M 93.3125 5.121094 C 104.507812 21.027344 114.476562 38.195312 119.089844 57.101562 C 123.707031 76.011719 122.488281 96.957031 112.449219 113.621094 C 108.195312 120.679688 101.070312 127.378906 92.90625 126.34375 C 85.625 125.417969 79.25 118.472656 72.132812 120.273438 C 67.46875 121.453125 64.15625 126.195312 59.378906 126.757812 C 55.285156 127.238281 51.585938 124.5 47.632812 123.34375 C 39.167969 120.878906 30.5625 125.746094 22.234375 128.628906 C 13.601562 131.621094 3.167969 132.214844 -3.871094 126.382812 C -8.269531 122.738281 -10.640625 117.058594 -11.261719 111.375 C -11.882812 105.6875 -10.910156 99.945312 -9.574219 94.382812 C -0.859375 58.09375 23.808594 26.441406 55.574219 6.949219 C 61.003906 3.617188 66.71875 0.585938 72.921875 -0.847656 C 79.125 -2.277344 87.410156 -3.265625 93.3125 5.121094 Z M 93.3125 5.121094 " fill-opacity="0.102" fill-rule="nonzero"/></g></g><path fill="#ffffff" d="M 47.820312 61.71875 C 45.40625 62.890625 42.933594 60.234375 44.25 57.894531 C 49.273438 48.949219 57.136719 41.625 66.433594 37.300781 C 67.839844 36.648438 69.335938 36.046875 70.886719 36.089844 C 72.441406 36.132812 74.066406 36.972656 74.59375 38.4375 C 75.121094 39.898438 74.414062 41.574219 73.296875 42.652344 C 72.179688 43.734375 70.710938 44.355469 69.308594 45.023438 C 63.023438 47.996094 57.332031 52.222656 52.667969 57.382812 C 51.21875 58.988281 49.808594 60.726562 47.875 61.691406 C 47.859375 61.699219 47.839844 61.710938 47.820312 61.71875 Z M 47.820312 61.71875 " fill-opacity="0.1843" fill-rule="nonzero"/><path fill="#d9d9d9" d="M 105.867188 71.144531 C 105.867188 71.894531 105.832031 72.644531 105.757812 73.390625 C 105.683594 74.140625 105.574219 74.882812 105.429688 75.617188 C 105.28125 76.355469 105.101562 77.082031 104.882812 77.800781 C 104.664062 78.523438 104.414062 79.226562 104.125 79.921875 C 103.839844 80.617188 103.519531 81.292969 103.164062 81.957031 C 102.8125 82.621094 102.425781 83.261719 102.011719 83.886719 C 101.59375 84.511719 101.148438 85.117188 100.671875 85.695312 C 100.195312 86.277344 99.695312 86.832031 99.164062 87.363281 C 98.632812 87.894531 98.078125 88.398438 97.5 88.875 C 96.917969 89.351562 96.316406 89.800781 95.695312 90.21875 C 95.070312 90.632812 94.429688 91.019531 93.765625 91.375 C 93.105469 91.730469 92.429688 92.050781 91.738281 92.335938 C 91.042969 92.625 90.339844 92.878906 89.621094 93.09375 C 88.902344 93.3125 88.175781 93.496094 87.441406 93.640625 C 86.707031 93.789062 85.964844 93.898438 85.21875 93.972656 C 84.472656 94.046875 83.726562 94.082031 82.976562 94.082031 C 82.226562 94.082031 81.476562 94.046875 80.730469 93.972656 C 79.984375 93.898438 79.246094 93.789062 78.507812 93.640625 C 77.773438 93.496094 77.046875 93.3125 76.328125 93.09375 C 75.613281 92.878906 74.90625 92.625 74.214844 92.335938 C 73.523438 92.050781 72.84375 91.730469 72.183594 91.375 C 71.523438 91.019531 70.878906 90.632812 70.257812 90.21875 C 69.632812 89.800781 69.03125 89.351562 68.453125 88.875 C 67.871094 88.398438 67.316406 87.894531 66.789062 87.363281 C 66.257812 86.832031 65.753906 86.277344 65.277344 85.695312 C 64.804688 85.117188 64.355469 84.511719 63.941406 83.886719 C 63.523438 83.261719 63.140625 82.621094 62.785156 81.957031 C 62.433594 81.292969 62.113281 80.617188 61.824219 79.921875 C 61.539062 79.226562 61.285156 78.523438 61.066406 77.800781 C 60.851562 77.082031 60.667969 76.355469 60.523438 75.617188 C 60.375 74.882812 60.265625 74.140625 60.191406 73.390625 C 60.117188 72.644531 60.082031 71.894531 60.082031 71.144531 C 60.082031 70.390625 60.117188 69.644531 60.191406 68.894531 C 60.265625 68.148438 60.375 67.40625 60.523438 66.667969 C 60.667969 65.929688 60.851562 65.203125 61.066406 64.484375 C 61.285156 63.765625 61.539062 63.058594 61.824219 62.363281 C 62.113281 61.671875 62.433594 60.992188 62.785156 60.328125 C 63.140625 59.667969 63.523438 59.023438 63.941406 58.398438 C 64.355469 57.773438 64.804688 57.171875 65.277344 56.589844 C 65.753906 56.011719 66.257812 55.453125 66.789062 54.921875 C 67.316406 54.390625 67.871094 53.886719 68.453125 53.410156 C 69.03125 52.933594 69.632812 52.488281 70.257812 52.070312 C 70.878906 51.652344 71.523438 51.265625 72.183594 50.914062 C 72.84375 50.558594 73.523438 50.238281 74.214844 49.949219 C 74.90625 49.664062 75.613281 49.410156 76.328125 49.191406 C 77.046875 48.972656 77.773438 48.792969 78.507812 48.644531 C 79.246094 48.5 79.984375 48.386719 80.730469 48.316406 C 81.476562 48.242188 82.226562 48.203125 82.976562 48.203125 C 83.726562 48.203125 84.472656 48.242188 85.21875 48.316406 C 85.964844 48.386719 86.707031 48.5 87.441406 48.644531 C 88.175781 48.792969 88.902344 48.972656 89.621094 49.191406 C 90.339844 49.410156 91.042969 49.664062 91.738281 49.949219 C 92.429688 50.238281 93.105469 50.558594 93.765625 50.914062 C 94.429688 51.265625 95.070312 51.652344 95.695312 52.070312 C 96.316406 52.488281 96.917969 52.933594 97.5 53.410156 C 98.078125 53.886719 98.632812 54.390625 99.164062 54.921875 C 99.695312 55.453125 100.195312 56.011719 100.671875 56.589844 C 101.148438 57.171875 101.59375 57.773438 102.011719 58.398438 C 102.425781 59.023438 102.8125 59.667969 103.164062 60.328125 C 103.519531 60.992188 103.839844 61.671875 104.125 62.363281 C 104.414062 63.058594 104.664062 63.765625 104.882812 64.484375 C 105.101562 65.203125 105.28125 65.929688 105.429688 66.667969 C 105.574219 67.40625 105.683594 68.148438 105.757812 68.894531 C 105.832031 69.644531 105.867188 70.390625 105.867188 71.144531 Z M 105.867188 71.144531 " fill-opacity="0.7255" fill-rule="nonzero"/><path fill="#ffffff" d="M 103.324219 71.203125 C 103.324219 71.953125 103.289062 72.703125 103.21875 73.449219 C 103.148438 74.199219 103.042969 74.941406 102.902344 75.675781 C 102.761719 76.414062 102.585938 77.140625 102.375 77.859375 C 102.167969 78.582031 101.925781 79.285156 101.648438 79.980469 C 101.375 80.675781 101.066406 81.351562 100.726562 82.015625 C 100.386719 82.679688 100.015625 83.320312 99.617188 83.945312 C 99.214844 84.570312 98.789062 85.175781 98.332031 85.753906 C 97.875 86.335938 97.390625 86.890625 96.878906 87.421875 C 96.371094 87.953125 95.839844 88.457031 95.28125 88.933594 C 94.722656 89.410156 94.144531 89.859375 93.546875 90.277344 C 92.949219 90.691406 92.332031 91.078125 91.695312 91.433594 C 91.058594 91.789062 90.410156 92.109375 89.742188 92.394531 C 89.078125 92.683594 88.402344 92.9375 87.710938 93.152344 C 87.023438 93.371094 86.324219 93.554688 85.617188 93.699219 C 84.910156 93.847656 84.199219 93.957031 83.480469 94.03125 C 82.765625 94.105469 82.046875 94.140625 81.324219 94.140625 C 80.605469 94.140625 79.886719 94.105469 79.167969 94.03125 C 78.453125 93.957031 77.742188 93.847656 77.035156 93.699219 C 76.328125 93.554688 75.628906 93.371094 74.941406 93.152344 C 74.25 92.9375 73.574219 92.683594 72.90625 92.394531 C 72.242188 92.109375 71.59375 91.789062 70.957031 91.433594 C 70.320312 91.078125 69.703125 90.691406 69.105469 90.277344 C 68.503906 89.859375 67.929688 89.410156 67.371094 88.933594 C 66.8125 88.457031 66.28125 87.953125 65.769531 87.421875 C 65.261719 86.890625 64.777344 86.335938 64.320312 85.753906 C 63.863281 85.175781 63.4375 84.570312 63.035156 83.945312 C 62.636719 83.320312 62.265625 82.679688 61.925781 82.015625 C 61.585938 81.351562 61.277344 80.675781 61.003906 79.980469 C 60.726562 79.285156 60.484375 78.582031 60.277344 77.859375 C 60.066406 77.140625 59.890625 76.414062 59.75 75.675781 C 59.609375 74.941406 59.503906 74.199219 59.433594 73.449219 C 59.363281 72.703125 59.328125 71.953125 59.328125 71.203125 C 59.328125 70.449219 59.363281 69.703125 59.433594 68.953125 C 59.503906 68.207031 59.609375 67.464844 59.75 66.726562 C 59.890625 65.988281 60.066406 65.261719 60.277344 64.542969 C 60.484375 63.824219 60.726562 63.117188 61.003906 62.421875 C 61.277344 61.730469 61.585938 61.050781 61.925781 60.390625 C 62.265625 59.726562 62.636719 59.082031 63.035156 58.457031 C 63.4375 57.832031 63.863281 57.230469 64.320312 56.648438 C 64.777344 56.070312 65.261719 55.511719 65.769531 54.980469 C 66.28125 54.449219 66.8125 53.945312 67.371094 53.46875 C 67.929688 52.992188 68.503906 52.546875 69.105469 52.128906 C 69.703125 51.710938 70.320312 51.324219 70.957031 50.972656 C 71.59375 50.617188 72.242188 50.296875 72.90625 50.007812 C 73.574219 49.722656 74.25 49.46875 74.941406 49.25 C 75.628906 49.03125 76.328125 48.851562 77.035156 48.703125 C 77.742188 48.558594 78.453125 48.445312 79.167969 48.375 C 79.886719 48.300781 80.605469 48.261719 81.324219 48.261719 C 82.046875 48.261719 82.765625 48.300781 83.480469 48.375 C 84.199219 48.445312 84.910156 48.558594 85.617188 48.703125 C 86.324219 48.851562 87.023438 49.03125 87.710938 49.25 C 88.402344 49.46875 89.078125 49.722656 89.742188 50.007812 C 90.410156 50.296875 91.058594 50.617188 91.695312 50.972656 C 92.332031 51.324219 92.949219 51.710938 93.546875 52.128906 C 94.144531 52.546875 94.722656 52.992188 95.28125 53.46875 C 95.839844 53.945312 96.371094 54.449219 96.878906 54.980469 C 97.390625 55.511719 97.875 56.070312 98.332031 56.648438 C 98.789062 57.230469 99.214844 57.832031 99.617188 58.457031 C 100.015625 59.082031 100.386719 59.726562 100.726562 60.390625 C 101.066406 61.050781 101.375 61.730469 101.648438 62.421875 C 101.925781 63.117188 102.167969 63.824219 102.375 64.542969 C 102.585938 65.261719 102.761719 65.988281 102.902344 66.726562 C 103.042969 67.464844 103.148438 68.207031 103.21875 68.953125 C 103.289062 69.703125 103.324219 70.449219 103.324219 71.203125 Z M 103.324219 71.203125 " fill-opacity="1" fill-rule="nonzero"/><path fill="#89ad22" d="M 100.972656 71.171875 C 100.972656 71.777344 100.945312 72.378906 100.886719 72.976562 C 100.824219 73.578125 100.738281 74.175781 100.621094 74.765625 C 100.503906 75.355469 100.355469 75.941406 100.183594 76.519531 C 100.007812 77.09375 99.804688 77.660156 99.574219 78.21875 C 99.34375 78.777344 99.085938 79.320312 98.804688 79.851562 C 98.519531 80.382812 98.210938 80.902344 97.875 81.402344 C 97.542969 81.902344 97.183594 82.386719 96.800781 82.855469 C 96.421875 83.320312 96.015625 83.765625 95.589844 84.191406 C 95.167969 84.617188 94.722656 85.023438 94.253906 85.40625 C 93.789062 85.789062 93.308594 86.148438 92.808594 86.480469 C 92.308594 86.816406 91.792969 87.125 91.261719 87.410156 C 90.730469 87.695312 90.1875 87.953125 89.628906 88.183594 C 89.074219 88.414062 88.507812 88.617188 87.933594 88.792969 C 87.355469 88.96875 86.773438 89.113281 86.183594 89.230469 C 85.59375 89.347656 85 89.4375 84.398438 89.496094 C 83.800781 89.554688 83.199219 89.585938 82.597656 89.585938 C 81.996094 89.585938 81.398438 89.554688 80.796875 89.496094 C 80.199219 89.4375 79.605469 89.347656 79.015625 89.230469 C 78.421875 89.113281 77.839844 88.96875 77.265625 88.792969 C 76.6875 88.617188 76.121094 88.414062 75.566406 88.183594 C 75.011719 87.953125 74.46875 87.695312 73.9375 87.410156 C 73.40625 87.125 72.890625 86.816406 72.390625 86.480469 C 71.890625 86.148438 71.40625 85.789062 70.941406 85.40625 C 70.476562 85.023438 70.03125 84.617188 69.605469 84.191406 C 69.179688 83.765625 68.777344 83.320312 68.394531 82.855469 C 68.011719 82.386719 67.65625 81.902344 67.320312 81.402344 C 66.984375 80.902344 66.675781 80.382812 66.394531 79.851562 C 66.109375 79.320312 65.851562 78.777344 65.621094 78.21875 C 65.390625 77.660156 65.191406 77.09375 65.015625 76.519531 C 64.839844 75.941406 64.695312 75.355469 64.578125 74.765625 C 64.460938 74.171875 64.371094 73.578125 64.3125 72.976562 C 64.253906 72.378906 64.222656 71.777344 64.222656 71.171875 C 64.222656 70.570312 64.253906 69.96875 64.3125 69.367188 C 64.371094 68.769531 64.460938 68.171875 64.578125 67.582031 C 64.695312 66.988281 64.839844 66.40625 65.015625 65.828125 C 65.191406 65.25 65.390625 64.683594 65.621094 64.128906 C 65.851562 63.570312 66.109375 63.027344 66.394531 62.492188 C 66.675781 61.960938 66.984375 61.445312 67.320312 60.945312 C 67.65625 60.441406 68.011719 59.960938 68.394531 59.492188 C 68.777344 59.027344 69.179688 58.582031 69.605469 58.152344 C 70.03125 57.726562 70.476562 57.324219 70.941406 56.941406 C 71.40625 56.558594 71.890625 56.199219 72.390625 55.863281 C 72.890625 55.53125 73.40625 55.21875 73.9375 54.933594 C 74.46875 54.652344 75.011719 54.394531 75.566406 54.164062 C 76.121094 53.933594 76.6875 53.730469 77.265625 53.554688 C 77.839844 53.378906 78.421875 53.234375 79.015625 53.113281 C 79.605469 52.996094 80.199219 52.910156 80.796875 52.851562 C 81.398438 52.789062 81.996094 52.761719 82.597656 52.761719 C 83.199219 52.761719 83.800781 52.789062 84.398438 52.851562 C 85 52.910156 85.59375 52.996094 86.183594 53.113281 C 86.773438 53.234375 87.355469 53.378906 87.933594 53.554688 C 88.507812 53.730469 89.074219 53.933594 89.628906 54.164062 C 90.1875 54.394531 90.730469 54.652344 91.261719 54.933594 C 91.792969 55.21875 92.308594 55.53125 92.808594 55.863281 C 93.308594 56.199219 93.789062 56.558594 94.253906 56.941406 C 94.722656 57.324219 95.167969 57.726562 95.589844 58.152344 C 96.015625 58.582031 96.421875 59.027344 96.800781 59.492188 C 97.183594 59.960938 97.542969 60.441406 97.875 60.945312 C 98.210938 61.445312 98.519531 61.960938 98.804688 62.492188 C 99.085938 63.027344 99.34375 63.570312 99.574219 64.128906 C 99.804688 64.683594 100.007812 65.25 100.183594 65.828125 C 100.355469 66.40625 100.503906 66.988281 100.621094 67.582031 C 100.738281 68.171875 100.824219 68.769531 100.886719 69.367188 C 100.945312 69.96875 100.972656 70.570312 100.972656 71.171875 Z M 100.972656 71.171875 " fill-opacity="1" fill-rule="nonzero"/><path fill="#000000" d="M 99.1875 71.171875 C 99.1875 71.71875 99.160156 72.261719 99.109375 72.800781 C 99.054688 73.34375 98.976562 73.882812 98.867188 74.417969 C 98.761719 74.949219 98.628906 75.476562 98.472656 76 C 98.316406 76.519531 98.132812 77.03125 97.925781 77.535156 C 97.714844 78.039062 97.484375 78.527344 97.230469 79.007812 C 96.972656 79.488281 96.695312 79.957031 96.390625 80.40625 C 96.089844 80.859375 95.765625 81.296875 95.421875 81.71875 C 95.078125 82.140625 94.710938 82.542969 94.328125 82.925781 C 93.945312 83.3125 93.542969 83.675781 93.121094 84.023438 C 92.703125 84.367188 92.265625 84.691406 91.816406 84.992188 C 91.363281 85.296875 90.898438 85.574219 90.417969 85.832031 C 89.9375 86.089844 89.449219 86.320312 88.945312 86.53125 C 88.445312 86.738281 87.933594 86.921875 87.414062 87.078125 C 86.894531 87.238281 86.367188 87.371094 85.835938 87.476562 C 85.300781 87.582031 84.765625 87.660156 84.226562 87.714844 C 83.683594 87.769531 83.140625 87.796875 82.597656 87.796875 C 82.054688 87.796875 81.511719 87.769531 80.972656 87.714844 C 80.433594 87.660156 79.894531 87.582031 79.363281 87.476562 C 78.828125 87.371094 78.304688 87.238281 77.785156 87.078125 C 77.261719 86.921875 76.753906 86.738281 76.25 86.53125 C 75.75 86.320312 75.257812 86.089844 74.777344 85.832031 C 74.300781 85.574219 73.835938 85.296875 73.382812 84.992188 C 72.929688 84.691406 72.496094 84.367188 72.074219 84.023438 C 71.65625 83.675781 71.253906 83.3125 70.867188 82.925781 C 70.484375 82.542969 70.121094 82.140625 69.777344 81.71875 C 69.429688 81.296875 69.109375 80.859375 68.804688 80.40625 C 68.503906 79.957031 68.226562 79.488281 67.96875 79.007812 C 67.710938 78.527344 67.480469 78.039062 67.273438 77.535156 C 67.066406 77.03125 66.882812 76.519531 66.722656 76 C 66.566406 75.476562 66.433594 74.949219 66.328125 74.417969 C 66.222656 73.882812 66.144531 73.34375 66.089844 72.800781 C 66.035156 72.261719 66.011719 71.71875 66.011719 71.171875 C 66.011719 70.628906 66.035156 70.085938 66.089844 69.542969 C 66.144531 69.003906 66.222656 68.464844 66.328125 67.929688 C 66.433594 67.398438 66.566406 66.867188 66.722656 66.347656 C 66.882812 65.828125 67.066406 65.316406 67.273438 64.8125 C 67.480469 64.308594 67.710938 63.816406 67.96875 63.335938 C 68.226562 62.859375 68.503906 62.390625 68.804688 61.9375 C 69.109375 61.484375 69.429688 61.050781 69.777344 60.628906 C 70.121094 60.207031 70.484375 59.804688 70.867188 59.417969 C 71.253906 59.035156 71.65625 58.667969 72.074219 58.324219 C 72.496094 57.980469 72.929688 57.65625 73.382812 57.351562 C 73.835938 57.050781 74.300781 56.769531 74.777344 56.515625 C 75.257812 56.257812 75.75 56.023438 76.25 55.816406 C 76.753906 55.609375 77.261719 55.425781 77.785156 55.265625 C 78.304688 55.109375 78.828125 54.976562 79.363281 54.871094 C 79.894531 54.765625 80.433594 54.683594 80.972656 54.632812 C 81.511719 54.578125 82.054688 54.550781 82.597656 54.550781 C 83.140625 54.550781 83.683594 54.578125 84.226562 54.632812 C 84.765625 54.683594 85.300781 54.765625 85.835938 54.871094 C 86.367188 54.976562 86.894531 55.109375 87.414062 55.265625 C 87.933594 55.425781 88.445312 55.609375 88.945312 55.816406 C 89.449219 56.023438 89.9375 56.257812 90.417969 56.515625 C 90.898438 56.769531 91.363281 57.050781 91.816406 57.351562 C 92.265625 57.65625 92.703125 57.980469 93.121094 58.324219 C 93.542969 58.667969 93.945312 59.035156 94.328125 59.417969 C 94.710938 59.804688 95.078125 60.207031 95.421875 60.628906 C 95.765625 61.050781 96.089844 61.484375 96.390625 61.9375 C 96.695312 62.390625 96.972656 62.859375 97.230469 63.335938 C 97.484375 63.816406 97.714844 64.308594 97.925781 64.8125 C 98.132812 65.316406 98.316406 65.828125 98.472656 66.347656 C 98.628906 66.867188 98.761719 67.398438 98.867188 67.929688 C 98.976562 68.464844 99.054688 69.003906 99.109375 69.542969 C 99.160156 70.085938 99.1875 70.628906 99.1875 71.171875 Z M 99.1875 71.171875 " fill-opacity="1" fill-rule="nonzero"/><path fill="#ffffff" d="M 93.320312 64.886719 C 93.320312 65.300781 93.277344 65.707031 93.199219 66.113281 C 93.117188 66.519531 93 66.910156 92.839844 67.292969 C 92.683594 67.671875 92.492188 68.035156 92.261719 68.378906 C 92.03125 68.722656 91.773438 69.039062 91.480469 69.332031 C 91.191406 69.625 90.875 69.882812 90.53125 70.113281 C 90.1875 70.34375 89.828125 70.535156 89.445312 70.695312 C 89.066406 70.851562 88.671875 70.972656 88.269531 71.050781 C 87.863281 71.132812 87.457031 71.171875 87.042969 71.171875 C 86.632812 71.171875 86.226562 71.132812 85.820312 71.050781 C 85.417969 70.972656 85.023438 70.851562 84.644531 70.695312 C 84.261719 70.535156 83.902344 70.34375 83.558594 70.113281 C 83.214844 69.882812 82.898438 69.625 82.609375 69.332031 C 82.316406 69.039062 82.058594 68.722656 81.828125 68.378906 C 81.597656 68.035156 81.40625 67.671875 81.246094 67.292969 C 81.089844 66.910156 80.972656 66.519531 80.890625 66.113281 C 80.8125 65.707031 80.769531 65.300781 80.769531 64.886719 C 80.769531 64.472656 80.8125 64.066406 80.890625 63.660156 C 80.972656 63.253906 81.089844 62.863281 81.246094 62.480469 C 81.40625 62.097656 81.597656 61.738281 81.828125 61.394531 C 82.058594 61.050781 82.316406 60.734375 82.609375 60.441406 C 82.898438 60.148438 83.214844 59.886719 83.558594 59.660156 C 83.902344 59.429688 84.261719 59.234375 84.644531 59.078125 C 85.023438 58.921875 85.417969 58.800781 85.820312 58.71875 C 86.226562 58.640625 86.632812 58.597656 87.042969 58.597656 C 87.457031 58.597656 87.863281 58.640625 88.269531 58.71875 C 88.671875 58.800781 89.066406 58.921875 89.445312 59.078125 C 89.828125 59.234375 90.1875 59.429688 90.53125 59.660156 C 90.875 59.886719 91.191406 60.148438 91.480469 60.441406 C 91.773438 60.734375 92.03125 61.050781 92.261719 61.394531 C 92.492188 61.738281 92.683594 62.097656 92.839844 62.480469 C 93 62.863281 93.117188 63.253906 93.199219 63.660156 C 93.277344 64.066406 93.320312 64.472656 93.320312 64.886719 Z M 93.320312 64.886719 " fill-opacity="1" fill-rule="nonzero"/></svg>