<svg xmlns="http://www.w3.org/2000/svg" xmlns:xlink="http://www.w3.org/1999/xlink" width="500" zoomAndPan="magnify" viewBox="0 0 375 149.999998" height="200" preserveAspectRatio="xMidYMid meet" version="1.0"><defs><g/><clipPath id="6be9d40dfa"><path d="M 91.335938 72.121094 L 152.757812 72.121094 L 152.757812 133.546875 L 91.335938 133.546875 Z M 91.335938 72.121094 " clip-rule="nonzero"/></clipPath><clipPath id="54ffffc9fb"><path d="M 122.046875 72.121094 C 105.085938 72.121094 91.335938 85.875 91.335938 102.835938 C 91.335938 119.796875 105.085938 133.546875 122.046875 133.546875 C 139.007812 133.546875 152.757812 119.796875 152.757812 102.835938 C 152.757812 85.875 139.007812 72.121094 122.046875 72.121094 " clip-rule="nonzero"/></clipPath><clipPath id="94d87f5394"><path d="M 57.59375 35.210938 L 115.695312 35.210938 L 115.695312 93.316406 L 57.59375 93.316406 Z M 57.59375 35.210938 " clip-rule="nonzero"/></clipPath><clipPath id="c1b0a5da86"><path d="M 86.644531 35.210938 C 70.601562 35.210938 57.59375 48.21875 57.59375 64.265625 C 57.59375 80.308594 70.601562 93.316406 86.644531 93.316406 C 102.6875 93.316406 115.695312 80.308594 115.695312 64.265625 C 115.695312 48.21875 102.6875 35.210938 86.644531 35.210938 " clip-rule="nonzero"/></clipPath><clipPath id="3bdf0e913c"><path d="M 93.742188 16.453125 L 137.648438 16.453125 L 137.648438 60.359375 L 93.742188 60.359375 Z M 93.742188 16.453125 " clip-rule="nonzero"/></clipPath><clipPath id="22f0fe9c3b"><path d="M 115.695312 16.453125 C 103.570312 16.453125 93.742188 26.28125 93.742188 38.40625 C 93.742188 50.53125 103.570312 60.359375 115.695312 60.359375 C 127.820312 60.359375 137.648438 50.53125 137.648438 38.40625 C 137.648438 26.28125 127.820312 16.453125 115.695312 16.453125 " clip-rule="nonzero"/></clipPath></defs><rect x="-37.5" width="450" fill="#ffffff" y="-15" height="179.999997" fill-opacity="1"/><rect x="-37.5" width="450" fill="#ffffff" y="-15" height="179.999997" fill-opacity="1"/><rect x="-37.5" width="450" fill="#ffffff" y="-15" height="179.999997" fill-opacity="1"/><g clip-path="url(#6be9d40dfa)"><g clip-path="url(#54ffffc9fb)"><path fill="#b2eaf9" d="M 91.335938 72.121094 L 152.757812 72.121094 L 152.757812 133.546875 L 91.335938 133.546875 Z M 91.335938 72.121094 " fill-opacity="1" fill-rule="nonzero"/></g></g><g clip-path="url(#94d87f5394)"><g clip-path="url(#c1b0a5da86)"><path fill="#aea0ea" d="M 57.59375 35.210938 L 115.695312 35.210938 L 115.695312 93.316406 L 57.59375 93.316406 Z M 57.59375 35.210938 " fill-opacity="1" fill-rule="nonzero"/></g></g><g clip-path="url(#3bdf0e913c)"><g clip-path="url(#22f0fe9c3b)"><path fill="#8c54a1" d="M 93.742188 16.453125 L 137.648438 16.453125 L 137.648438 60.359375 L 93.742188 60.359375 Z M 93.742188 16.453125 " fill-opacity="1" fill-rule="nonzero"/></g></g><g fill="#323232" fill-opacity="1"><g transform="translate(211.237534, 89.406281)"><g><path d="M 23.371094 4.847656 C 26.023438 4.847656 28.550781 4.722656 31.039062 4.515625 C 33.523438 4.308594 35.84375 3.769531 38.039062 2.902344 L 39.160156 0.457031 C 39.285156 -0.664062 39.117188 -1.535156 38.703125 -2.320312 L 36.589844 -3.109375 C 34.847656 -3.316406 33.316406 -3.066406 31.992188 -2.320312 L 31.535156 -0.871094 L 26.519531 -0.207031 L 22.914062 -0.371094 L 23.082031 -8.621094 L 26.1875 -8.949219 L 36.753906 -8.949219 L 38.867188 -9.78125 L 39.324219 -10.773438 C 39.449219 -11.726562 39.285156 -12.554688 38.867188 -13.175781 L 36.753906 -14.007812 L 23.703125 -14.007812 L 23.535156 -13.839844 L 23.246094 -13.839844 L 23.371094 -18.855469 L 31.367188 -19.972656 L 32.488281 -21.007812 L 34.933594 -20.179688 C 36.671875 -19.933594 38.207031 -20.222656 39.492188 -21.007812 L 39.988281 -21.960938 L 39.988281 -28.59375 L 39.492188 -29.585938 C 37.417969 -30.457031 35.179688 -30.871094 32.652344 -30.746094 L 25.484375 -30.746094 L 24.695312 -30.914062 C 24.90625 -32.074219 24.695312 -33.191406 24.035156 -34.144531 L 21.921875 -34.972656 C 20.179688 -35.179688 18.6875 -34.933594 17.402344 -34.144531 L 16.90625 -33.191406 L 17.074219 -31.410156 L 17.074219 -30.914062 L 7.167969 -30.914062 L 7.003906 -31.078125 C 5.261719 -31.285156 3.730469 -30.996094 2.445312 -30.207031 C 1.988281 -28.09375 1.742188 -25.859375 1.617188 -23.578125 C 1.492188 -22.625 1.65625 -21.796875 2.113281 -21.175781 C 3.191406 -20.511719 4.476562 -20.222656 6.050781 -20.347656 L 5.882812 -19.683594 C 5.761719 -18.6875 5.925781 -17.859375 6.339844 -17.074219 L 8.453125 -16.285156 C 10.609375 -16.285156 12.722656 -16.535156 14.753906 -17.074219 L 15.621094 -17.074219 L 15.621094 -13.175781 C 13.21875 -13.054688 10.855469 -12.96875 8.535156 -12.804688 C 6.175781 -12.636719 3.9375 -12.183594 1.78125 -11.394531 L 1.285156 -10.441406 C 1.160156 -9.449219 1.324219 -8.621094 1.78125 -7.957031 L 3.894531 -7.167969 C 5.761719 -7.042969 7.542969 -7.167969 9.199219 -7.5 C 10.855469 -7.789062 12.554688 -7.957031 14.296875 -7.957031 L 15.414062 -7.957031 L 15.25 -5.386719 L 15.25 1.949219 L 15.789062 2.902344 C 17.941406 4.390625 20.46875 5.054688 23.371094 4.847656 Z M 32.320312 -24.074219 L 32.15625 -23.910156 L 30.085938 -24.738281 C 26.601562 -24.613281 23.289062 -24.28125 20.054688 -23.660156 C 16.867188 -23.082031 13.632812 -22.417969 10.402344 -21.628906 L 9.28125 -21.628906 C 9.570312 -22.957031 9.695312 -24.367188 9.570312 -25.859375 L 22.914062 -25.859375 L 23.082031 -25.691406 L 30.207031 -25.691406 L 32.320312 -25.527344 Z M 32.320312 -24.074219 "/></g></g></g><g fill="#323232" fill-opacity="1"><g transform="translate(252.673644, 89.406281)"><g><path d="M 17.570312 4.847656 C 19.308594 5.054688 20.800781 4.808594 22.085938 4.0625 C 23.082031 1.324219 23.742188 -1.492188 24.117188 -4.390625 C 24.488281 -7.335938 24.863281 -10.234375 25.152344 -13.175781 L 34.601562 -12.390625 C 36.589844 -12.183594 38.332031 -12.429688 39.820312 -13.175781 L 40.320312 -14.171875 C 40.445312 -15.125 40.277344 -15.953125 39.820312 -16.574219 C 37.667969 -17.363281 35.386719 -17.820312 32.945312 -17.984375 C 30.457031 -18.148438 28.011719 -18.191406 25.484375 -18.191406 L 25.152344 -26.023438 L 25.152344 -26.519531 C 27.019531 -27.140625 28.839844 -27.722656 30.621094 -28.21875 C 32.40625 -28.675781 34.226562 -29.214844 36.050781 -29.753906 L 36.589844 -30.746094 C 36.714844 -31.742188 36.507812 -32.570312 36.050781 -33.359375 L 33.9375 -34.144531 C 28.964844 -33.523438 24.160156 -32.40625 19.433594 -30.828125 C 14.667969 -29.253906 10.027344 -27.761719 5.386719 -26.355469 L 4.847656 -25.359375 C 4.722656 -24.40625 4.929688 -23.535156 5.386719 -22.792969 L 7.5 -21.960938 C 9.242188 -21.839844 10.855469 -22.085938 12.347656 -22.707031 C 13.839844 -23.328125 15.414062 -23.742188 17.074219 -24.074219 L 17.734375 -24.074219 L 17.902344 -22.292969 L 17.902344 -18.066406 C 16.035156 -17.941406 14.171875 -17.859375 12.347656 -17.734375 C 10.523438 -17.609375 8.742188 -17.445312 7.003906 -17.238281 L 6.339844 -17.402344 C 4.601562 -17.609375 3.066406 -17.363281 1.78125 -16.574219 L 1.285156 -15.621094 C 1.160156 -14.667969 1.324219 -13.800781 1.78125 -13.011719 L 3.894531 -12.222656 C 5.882812 -12.101562 7.789062 -12.140625 9.570312 -12.308594 C 11.394531 -12.472656 13.261719 -12.679688 15.082031 -12.886719 L 17.402344 -12.886719 C 17.074219 -10.484375 16.742188 -8.082031 16.410156 -5.71875 C 16.121094 -3.316406 15.621094 -0.996094 14.917969 1.285156 C 14.792969 2.402344 14.960938 3.273438 15.414062 4.0625 Z M 17.570312 4.847656 "/></g></g></g><g fill="#323232" fill-opacity="1"><g transform="translate(294.12318, 90.941367)"><g><path d="M 9.960938 2.492188 C 10.785156 2.605469 11.492188 2.492188 12.085938 2.148438 L 12.359375 1.597656 C 12.246094 0.113281 12.085938 -1.394531 11.902344 -2.878906 C 11.742188 -4.363281 11.539062 -5.824219 11.285156 -7.265625 L 11.285156 -7.8125 L 15.238281 -8.429688 L 16.222656 -8.429688 L 14.53125 -4.84375 C 14.460938 -4.25 14.554688 -3.703125 14.78125 -3.246094 L 15.605469 -2.878906 C 16.425781 -2.765625 17.136719 -2.878906 17.730469 -3.246094 C 18.164062 -4.203125 18.597656 -5.164062 19.125 -6.125 C 19.625 -7.082031 20.035156 -8.066406 20.355469 -9.046875 C 20.472656 -9.777344 20.378906 -10.394531 20.082031 -10.945312 L 19.261719 -11.308594 C 17.820312 -11.308594 16.425781 -11.242188 15.054688 -11.125 C 13.683594 -10.988281 12.335938 -10.828125 11.011719 -10.578125 L 10.851562 -10.578125 C 10.738281 -11.859375 10.464844 -13.023438 10.03125 -14.164062 L 9.140625 -14.621094 C 8.292969 -14.738281 7.585938 -14.621094 6.992188 -14.257812 L 6.71875 -13.730469 C 6.898438 -12.542969 7.105469 -11.332031 7.332031 -10.121094 L 7.332031 -9.871094 C 6.558594 -9.753906 5.78125 -9.664062 4.980469 -9.640625 C 4.179688 -9.617188 3.425781 -9.4375 2.765625 -9.140625 L 2.492188 -8.613281 C 2.421875 -8.089844 2.511719 -7.632812 2.765625 -7.265625 L 3.585938 -6.921875 L 6.261719 -7.105469 L 7.699219 -7.015625 C 7.996094 -5.507812 8.226562 -3.976562 8.386719 -2.421875 C 8.542969 -0.890625 8.796875 0.640625 9.140625 2.148438 Z M 9.960938 2.492188 "/></g></g></g></svg>