<svg xmlns="http://www.w3.org/2000/svg" xmlns:xlink="http://www.w3.org/1999/xlink" width="500" zoomAndPan="magnify" viewBox="0 0 375 374.999991" height="500" preserveAspectRatio="xMidYMid meet" version="1.0"><defs><g/><clipPath id="f13b0ff35a"><path d="M 89.816406 183.476562 L 175.695312 183.476562 L 175.695312 269.359375 L 89.816406 269.359375 Z M 89.816406 183.476562 " clip-rule="nonzero"/></clipPath><clipPath id="a1629c8f88"><path d="M 132.757812 183.476562 C 109.039062 183.476562 89.816406 202.703125 89.816406 226.417969 C 89.816406 250.132812 109.039062 269.359375 132.757812 269.359375 C 156.472656 269.359375 175.695312 250.132812 175.695312 226.417969 C 175.695312 202.703125 156.472656 183.476562 132.757812 183.476562 " clip-rule="nonzero"/></clipPath><clipPath id="e49f1b0255"><path d="M 42.640625 131.871094 L 123.878906 131.871094 L 123.878906 213.109375 L 42.640625 213.109375 Z M 42.640625 131.871094 " clip-rule="nonzero"/></clipPath><clipPath id="4113dfdf50"><path d="M 83.257812 131.871094 C 60.824219 131.871094 42.640625 150.054688 42.640625 172.488281 C 42.640625 194.921875 60.824219 213.109375 83.257812 213.109375 C 105.691406 213.109375 123.878906 194.921875 123.878906 172.488281 C 123.878906 150.054688 105.691406 131.871094 83.257812 131.871094 " clip-rule="nonzero"/></clipPath><clipPath id="6e593a25f7"><path d="M 93.183594 105.640625 L 154.574219 105.640625 L 154.574219 167.03125 L 93.183594 167.03125 Z M 93.183594 105.640625 " clip-rule="nonzero"/></clipPath><clipPath id="ba70ec067b"><path d="M 123.878906 105.640625 C 106.925781 105.640625 93.183594 119.382812 93.183594 136.335938 C 93.183594 153.289062 106.925781 167.03125 123.878906 167.03125 C 140.828125 167.03125 154.574219 153.289062 154.574219 136.335938 C 154.574219 119.382812 140.828125 105.640625 123.878906 105.640625 " clip-rule="nonzero"/></clipPath></defs><rect x="-37.5" width="450" fill="#ffffff" y="-37.499999" height="449.999989" fill-opacity="1"/><rect x="-37.5" width="450" fill="#ffffff" y="-37.499999" height="449.999989" fill-opacity="1"/><rect x="-37.5" width="450" fill="#ffffff" y="-37.499999" height="449.999989" fill-opacity="1"/><g clip-path="url(#f13b0ff35a)"><g clip-path="url(#a1629c8f88)"><path fill="#b2eaf9" d="M 89.816406 183.476562 L 175.695312 183.476562 L 175.695312 269.359375 L 89.816406 269.359375 Z M 89.816406 183.476562 " fill-opacity="1" fill-rule="nonzero"/></g></g><g clip-path="url(#e49f1b0255)"><g clip-path="url(#4113dfdf50)"><path fill="#aea0ea" d="M 42.640625 131.871094 L 123.878906 131.871094 L 123.878906 213.109375 L 42.640625 213.109375 Z M 42.640625 131.871094 " fill-opacity="1" fill-rule="nonzero"/></g></g><g clip-path="url(#6e593a25f7)"><g clip-path="url(#ba70ec067b)"><path fill="#8c54a1" d="M 93.183594 105.640625 L 154.574219 105.640625 L 154.574219 167.03125 L 93.183594 167.03125 Z M 93.183594 105.640625 " fill-opacity="1" fill-rule="nonzero"/></g></g><g fill="#323232" fill-opacity="1"><g transform="translate(175.704002, 206.331226)"><g><path d="M 30.417969 6.308594 C 33.871094 6.308594 37.160156 6.148438 40.394531 5.878906 C 43.632812 5.609375 46.652344 4.90625 49.511719 3.773438 L 50.964844 0.59375 C 51.128906 -0.863281 50.914062 -1.996094 50.371094 -3.019531 L 47.621094 -4.046875 C 45.355469 -4.316406 43.363281 -3.992188 41.636719 -3.019531 L 41.042969 -1.132812 L 34.515625 -0.269531 L 29.824219 -0.484375 L 30.039062 -11.21875 L 34.085938 -11.648438 L 47.839844 -11.648438 L 50.589844 -12.726562 L 51.183594 -14.023438 C 51.34375 -15.261719 51.128906 -16.339844 50.589844 -17.152344 L 47.839844 -18.230469 L 30.847656 -18.230469 L 30.632812 -18.011719 L 30.257812 -18.011719 L 30.417969 -24.539062 L 40.828125 -25.996094 L 42.28125 -27.34375 L 45.464844 -26.265625 C 47.730469 -25.941406 49.726562 -26.320312 51.398438 -27.34375 L 52.042969 -28.585938 L 52.042969 -37.214844 L 51.398438 -38.507812 C 48.699219 -39.640625 45.789062 -40.179688 42.5 -40.019531 L 33.167969 -40.019531 L 32.144531 -40.234375 C 32.414062 -41.742188 32.144531 -43.199219 31.28125 -44.441406 L 28.53125 -45.519531 C 26.265625 -45.789062 24.324219 -45.464844 22.652344 -44.441406 L 22.003906 -43.199219 L 22.21875 -40.878906 L 22.21875 -40.234375 L 9.332031 -40.234375 L 9.113281 -40.449219 C 6.847656 -40.71875 4.855469 -40.339844 3.183594 -39.316406 C 2.589844 -36.566406 2.265625 -33.652344 2.101562 -30.6875 C 1.941406 -29.445312 2.15625 -28.367188 2.75 -27.558594 C 4.152344 -26.695312 5.824219 -26.320312 7.875 -26.480469 L 7.660156 -25.617188 C 7.496094 -24.324219 7.710938 -23.246094 8.25 -22.21875 L 11.003906 -21.195312 C 13.808594 -21.195312 16.558594 -21.519531 19.199219 -22.21875 L 20.332031 -22.21875 L 20.332031 -17.152344 C 17.203125 -16.988281 14.128906 -16.882812 11.109375 -16.664062 C 8.035156 -16.449219 5.125 -15.855469 2.320312 -14.832031 L 1.671875 -13.589844 C 1.511719 -12.296875 1.726562 -11.21875 2.320312 -10.355469 L 5.070312 -9.332031 C 7.496094 -9.167969 9.816406 -9.332031 11.972656 -9.761719 C 14.128906 -10.140625 16.339844 -10.355469 18.605469 -10.355469 L 20.0625 -10.355469 L 19.847656 -7.011719 L 19.847656 2.535156 L 20.546875 3.773438 C 23.351562 5.71875 26.644531 6.578125 30.417969 6.308594 Z M 42.066406 -31.335938 L 41.851562 -31.117188 L 39.15625 -32.199219 C 34.625 -32.035156 30.308594 -31.605469 26.101562 -30.796875 C 21.949219 -30.039062 17.742188 -29.175781 13.535156 -28.152344 L 12.082031 -28.152344 C 12.457031 -29.878906 12.621094 -31.710938 12.457031 -33.652344 L 29.824219 -33.652344 L 30.039062 -33.4375 L 39.316406 -33.4375 L 42.066406 -33.222656 Z M 42.066406 -31.335938 "/></g></g></g><g fill="#323232" fill-opacity="1"><g transform="translate(229.633743, 206.331226)"><g><path d="M 22.867188 6.308594 C 25.132812 6.578125 27.074219 6.257812 28.746094 5.285156 C 30.039062 1.726562 30.902344 -1.941406 31.390625 -5.71875 C 31.875 -9.546875 32.359375 -13.320312 32.738281 -17.152344 L 45.035156 -16.125 C 47.621094 -15.855469 49.886719 -16.179688 51.828125 -17.152344 L 52.476562 -18.445312 C 52.636719 -19.683594 52.421875 -20.765625 51.828125 -21.574219 C 49.023438 -22.597656 46.058594 -23.191406 42.875 -23.40625 C 39.640625 -23.621094 36.457031 -23.675781 33.167969 -23.675781 L 32.738281 -33.871094 L 32.738281 -34.515625 C 35.164062 -35.324219 37.535156 -36.082031 39.855469 -36.726562 C 42.175781 -37.320312 44.546875 -38.023438 46.921875 -38.722656 L 47.621094 -40.019531 C 47.785156 -41.3125 47.515625 -42.390625 46.921875 -43.414062 L 44.171875 -44.441406 C 37.699219 -43.632812 31.441406 -42.175781 25.292969 -40.125 C 19.09375 -38.078125 13.050781 -36.136719 7.011719 -34.300781 L 6.308594 -33.007812 C 6.148438 -31.765625 6.417969 -30.632812 7.011719 -29.664062 L 9.761719 -28.585938 C 12.027344 -28.421875 14.128906 -28.746094 16.070312 -29.554688 C 18.011719 -30.363281 20.0625 -30.902344 22.21875 -31.335938 L 23.082031 -31.335938 L 23.300781 -29.015625 L 23.300781 -23.515625 C 20.871094 -23.351562 18.445312 -23.246094 16.070312 -23.082031 C 13.699219 -22.921875 11.378906 -22.707031 9.113281 -22.4375 L 8.25 -22.652344 C 5.988281 -22.921875 3.992188 -22.597656 2.320312 -21.574219 L 1.671875 -20.332031 C 1.511719 -19.09375 1.726562 -17.960938 2.320312 -16.933594 L 5.070312 -15.910156 C 7.660156 -15.75 10.140625 -15.800781 12.457031 -16.019531 C 14.832031 -16.234375 17.257812 -16.503906 19.632812 -16.773438 L 22.652344 -16.773438 C 22.21875 -13.644531 21.789062 -10.515625 21.355469 -7.441406 C 20.980469 -4.316406 20.332031 -1.292969 19.414062 1.671875 C 19.253906 3.128906 19.46875 4.261719 20.0625 5.285156 Z M 22.867188 6.308594 "/></g></g></g><g fill="#323232" fill-opacity="1"><g transform="translate(283.563484, 206.331226)"><g><path d="M 23.515625 5.878906 C 25.457031 6.148438 27.128906 5.878906 28.53125 5.070312 L 29.175781 3.773438 C 28.90625 0.269531 28.53125 -3.289062 28.097656 -6.796875 C 27.722656 -10.300781 27.234375 -13.753906 26.644531 -17.152344 L 26.644531 -18.445312 L 35.972656 -19.902344 L 38.292969 -19.902344 L 34.300781 -11.433594 C 34.140625 -10.03125 34.355469 -8.738281 34.894531 -7.660156 L 36.835938 -6.796875 C 38.777344 -6.527344 40.449219 -6.796875 41.851562 -7.660156 C 42.875 -9.921875 43.902344 -12.1875 45.140625 -14.453125 C 46.328125 -16.71875 47.296875 -19.039062 48.054688 -21.355469 C 48.324219 -23.082031 48.109375 -24.539062 47.40625 -25.832031 L 45.464844 -26.695312 C 42.066406 -26.695312 38.777344 -26.535156 35.542969 -26.265625 C 32.304688 -25.941406 29.125 -25.5625 25.996094 -24.972656 L 25.617188 -24.972656 C 25.347656 -27.992188 24.699219 -30.742188 23.675781 -33.4375 L 21.574219 -34.515625 C 19.578125 -34.785156 17.90625 -34.515625 16.503906 -33.652344 L 15.855469 -32.414062 C 16.289062 -29.609375 16.773438 -26.75 17.3125 -23.890625 L 17.3125 -23.300781 C 15.480469 -23.027344 13.644531 -22.8125 11.757812 -22.757812 C 9.871094 -22.707031 8.089844 -22.273438 6.527344 -21.574219 L 5.878906 -20.332031 C 5.71875 -19.09375 5.933594 -18.011719 6.527344 -17.152344 L 8.46875 -16.339844 L 14.777344 -16.773438 L 18.175781 -16.558594 C 18.875 -12.996094 19.414062 -9.382812 19.792969 -5.71875 C 20.171875 -2.101562 20.765625 1.511719 21.574219 5.070312 Z M 23.515625 5.878906 "/></g></g></g></svg>