<svg xmlns="http://www.w3.org/2000/svg" xmlns:xlink="http://www.w3.org/1999/xlink" width="200" zoomAndPan="magnify" viewBox="0 0 150 149.999998" height="200" preserveAspectRatio="xMidYMid meet" version="1.0"><defs><clipPath id="ba6b8a69f0"><path d="M 78 21.191406 L 98.785156 21.191406 L 98.785156 40.257812 L 78 40.257812 Z M 78 21.191406 " clip-rule="nonzero"/></clipPath><clipPath id="a708610c64"><path d="M 89.289062 40.257812 C 85.425781 40.257812 81.363281 39.09375 79.835938 37.285156 L 79.832031 37.28125 C 79.320312 36.519531 78.875 35.65625 78.511719 34.683594 C 76.226562 26.457031 82.328125 21.191406 88.453125 21.191406 C 92.492188 21.191406 96.542969 23.480469 98.214844 28.714844 C 99.238281 33.148438 97.835938 36.679688 95.359375 38.933594 C 93.78125 39.851562 91.570312 40.257812 89.289062 40.257812 M 94.671875 39.496094 C 94.855469 39.339844 95.046875 39.1875 95.242188 39.039062 C 95.070312 39.191406 94.890625 39.335938 94.710938 39.476562 L 94.671875 39.496094 " clip-rule="nonzero"/></clipPath><clipPath id="bb5ff26852"><path d="M 89.289062 40.257812 C 85.425781 40.257812 81.363281 39.09375 79.835938 37.285156 L 79.832031 37.28125 C 79.320312 36.519531 78.875 35.65625 78.511719 34.683594 C 76.226562 26.457031 82.328125 21.191406 88.453125 21.191406 C 92.492188 21.191406 96.542969 23.480469 98.214844 28.714844 C 99.238281 33.148438 97.835938 36.679688 95.359375 38.933594 C 93.78125 39.851562 91.570312 40.257812 89.289062 40.257812 M 94.671875 39.496094 C 94.855469 39.339844 95.046875 39.1875 95.242188 39.039062 C 95.070312 39.191406 94.890625 39.335938 94.710938 39.476562 L 94.671875 39.496094 " clip-rule="nonzero"/></clipPath><radialGradient gradientTransform="matrix(1.001122, 0, 0, 0.998878, 88.286453, 31.443894)" gradientUnits="userSpaceOnUse" r="10.257765" cx="0" id="7d4955c5a3" cy="0" fx="0" fy="0"><stop stop-opacity="1" stop-color="rgb(100%, 100%, 100%)" offset="0"/><stop stop-opacity="1" stop-color="rgb(100%, 100%, 100%)" offset="0.25"/><stop stop-opacity="1" stop-color="rgb(100%, 100%, 100%)" offset="0.4375"/><stop stop-opacity="1" stop-color="rgb(99.899292%, 100%, 100%)" offset="0.472656"/><stop stop-opacity="1" stop-color="rgb(99.699402%, 99.897766%, 99.897766%)" offset="0.480469"/><stop stop-opacity="1" stop-color="rgb(99.598694%, 99.697876%, 99.697876%)" offset="0.496094"/><stop stop-opacity="1" stop-color="rgb(99.462891%, 99.462891%, 99.462891%)" offset="0.511719"/><stop stop-opacity="1" stop-color="rgb(99.263%, 99.263%, 99.263%)" offset="0.523438"/><stop stop-opacity="1" stop-color="rgb(99.061584%, 99.198914%, 99.061584%)" offset="0.550781"/><stop stop-opacity="1" stop-color="rgb(98.855591%, 99.191284%, 98.861694%)" offset="0.5625"/><stop stop-opacity="1" stop-color="rgb(98.591614%, 98.991394%, 98.797607%)" offset="0.566406"/><stop stop-opacity="1" stop-color="rgb(98.399353%, 98.602295%, 98.602295%)" offset="0.578125"/><stop stop-opacity="1" stop-color="rgb(98.399353%, 98.402405%, 98.339844%)" offset="0.601562"/><stop stop-opacity="1" stop-color="rgb(98.266602%, 98.266602%, 98.135376%)" offset="0.605469"/><stop stop-opacity="1" stop-color="rgb(97.946167%, 97.946167%, 97.879028%)" offset="0.628906"/><stop stop-opacity="1" stop-color="rgb(97.679138%, 97.679138%, 97.589111%)" offset="0.648438"/><stop stop-opacity="1" stop-color="rgb(97.44873%, 97.44873%, 97.322083%)" offset="0.667969"/><stop stop-opacity="1" stop-color="rgb(97.299194%, 97.299194%, 97.143555%)" offset="0.6875"/><stop stop-opacity="1" stop-color="rgb(97.200012%, 97.200012%, 96.881104%)" offset="0.695312"/><stop stop-opacity="1" stop-color="rgb(97.003174%, 97.003174%, 96.603394%)" offset="0.710938"/><stop stop-opacity="1" stop-color="rgb(96.801758%, 96.801758%, 96.401978%)" offset="0.71875"/><stop stop-opacity="1" stop-color="rgb(96.594238%, 96.594238%, 96.192932%)" offset="0.726562"/><stop stop-opacity="1" stop-color="rgb(96.295166%, 96.295166%, 95.89386%)" offset="0.734375"/><stop stop-opacity="1" stop-color="rgb(95.904541%, 95.904541%, 95.503235%)" offset="0.75"/><stop stop-opacity="1" stop-color="rgb(95.639038%, 95.639038%, 95.239258%)" offset="0.765625"/><stop stop-opacity="1" stop-color="rgb(95.422363%, 95.422363%, 95.022583%)" offset="0.769531"/><stop stop-opacity="1" stop-color="rgb(95.08667%, 95.08667%, 94.68689%)" offset="0.78125"/><stop stop-opacity="1" stop-color="rgb(94.895935%, 94.898987%, 94.499207%)" offset="0.785156"/><stop stop-opacity="1" stop-color="rgb(94.697571%, 94.898987%, 94.499207%)" offset="0.789062"/><stop stop-opacity="1" stop-color="rgb(94.43512%, 94.8349%, 94.433594%)" offset="0.792969"/><stop stop-opacity="1" stop-color="rgb(94.303894%, 94.7052%, 94.303894%)" offset="0.796875"/><stop stop-opacity="1" stop-color="rgb(94.174194%, 94.573975%, 94.174194%)" offset="0.800781"/><stop stop-opacity="1" stop-color="rgb(94.104004%, 94.438171%, 94.104004%)" offset="0.804688"/><stop stop-opacity="1" stop-color="rgb(93.991089%, 94.233704%, 93.991089%)" offset="0.808594"/><stop stop-opacity="1" stop-color="rgb(93.791199%, 94.099426%, 93.688965%)" offset="0.820312"/><stop stop-opacity="1" stop-color="rgb(93.600464%, 94.000244%, 93.395996%)" offset="0.828125"/><stop stop-opacity="1" stop-color="rgb(93.307495%, 93.800354%, 93.205261%)" offset="0.835938"/><stop stop-opacity="1" stop-color="rgb(92.958069%, 93.650818%, 92.958069%)" offset="0.84375"/><stop stop-opacity="1" stop-color="rgb(92.700195%, 93.499756%, 92.700195%)" offset="0.851562"/><stop stop-opacity="1" stop-color="rgb(92.547607%, 93.295288%, 92.547607%)" offset="0.859375"/><stop stop-opacity="1" stop-color="rgb(92.498779%, 93.096924%, 92.498779%)" offset="0.867188"/><stop stop-opacity="1" stop-color="rgb(92.451477%, 92.884827%, 92.451477%)" offset="0.875"/><stop stop-opacity="1" stop-color="rgb(92.237854%, 92.58728%, 92.237854%)" offset="0.882812"/><stop stop-opacity="1" stop-color="rgb(91.921997%, 92.300415%, 91.921997%)" offset="0.894531"/><stop stop-opacity="1" stop-color="rgb(91.581726%, 92.195129%, 91.581726%)" offset="0.90625"/><stop stop-opacity="1" stop-color="rgb(91.195679%, 91.996765%, 91.195679%)" offset="0.910156"/><stop stop-opacity="1" stop-color="rgb(90.99884%, 91.60614%, 90.99884%)" offset="0.917969"/><stop stop-opacity="1" stop-color="rgb(90.808105%, 91.215515%, 90.808105%)" offset="0.925781"/><stop stop-opacity="1" stop-color="rgb(90.509033%, 91.009521%, 90.509033%)" offset="0.933594"/><stop stop-opacity="1" stop-color="rgb(90.283203%, 90.983582%, 90.283203%)" offset="0.9375"/><stop stop-opacity="1" stop-color="rgb(89.979553%, 90.779114%, 89.982605%)" offset="0.945312"/><stop stop-opacity="1" stop-color="rgb(89.596558%, 90.396118%, 89.7995%)" offset="0.949219"/><stop stop-opacity="1" stop-color="rgb(89.399719%, 90.005493%, 89.605713%)" offset="0.960938"/><stop stop-opacity="1" stop-color="rgb(89.21051%, 89.805603%, 89.216614%)" offset="0.96875"/><stop stop-opacity="1" stop-color="rgb(88.809204%, 89.587402%, 88.998413%)" offset="0.976562"/><stop stop-opacity="1" stop-color="rgb(88.594055%, 89.187622%, 88.786316%)" offset="0.980469"/><stop stop-opacity="1" stop-color="rgb(88.394165%, 88.999939%, 88.598633%)" offset="0.988281"/><stop stop-opacity="1" stop-color="rgb(88.198853%, 88.999939%, 88.598633%)" offset="1"/></radialGradient><clipPath id="70374cc8ea"><path d="M 49.824219 3.890625 L 70.734375 3.890625 L 70.734375 22.878906 L 49.824219 22.878906 Z M 49.824219 3.890625 " clip-rule="nonzero"/></clipPath><clipPath id="41a81aa835"><path d="M 59.632812 22.878906 C 56.765625 22.878906 53.488281 21.632812 51.636719 19.535156 C 51.429688 19.304688 51.246094 19.0625 51.078125 18.8125 C 50.847656 18.363281 50.632812 17.886719 50.445312 17.378906 C 48.160156 9.15625 54.257812 3.890625 60.386719 3.890625 C 64.425781 3.890625 68.476562 6.175781 70.144531 11.410156 C 70.734375 13.960938 70.519531 16.214844 69.761719 18.09375 C 69.707031 18.226562 69.652344 18.359375 69.59375 18.488281 L 69.59375 18.480469 C 66.707031 20.398438 64.257812 22.347656 60.820312 22.804688 C 60.4375 22.855469 60.039062 22.878906 59.632812 22.878906 " clip-rule="nonzero"/></clipPath><clipPath id="94ba60b2b3"><path d="M 59.632812 22.878906 C 56.765625 22.878906 53.488281 21.632812 51.636719 19.535156 C 51.429688 19.304688 51.246094 19.0625 51.078125 18.8125 C 50.847656 18.363281 50.632812 17.886719 50.445312 17.378906 C 48.160156 9.15625 54.257812 3.890625 60.386719 3.890625 C 64.425781 3.890625 68.476562 6.175781 70.144531 11.410156 C 70.734375 13.960938 70.519531 16.214844 69.761719 18.09375 C 69.707031 18.226562 69.652344 18.359375 69.59375 18.488281 L 69.59375 18.480469 C 66.707031 20.398438 64.257812 22.347656 60.820312 22.804688 C 60.4375 22.855469 60.039062 22.878906 59.632812 22.878906 " clip-rule="nonzero"/></clipPath><radialGradient gradientTransform="matrix(1.001122, 0, 0, 0.998878, 60.218548, 14.139849)" gradientUnits="userSpaceOnUse" r="10.257457" cx="0" id="228d884877" cy="0" fx="0" fy="0"><stop stop-opacity="1" stop-color="rgb(100%, 100%, 100%)" offset="0"/><stop stop-opacity="1" stop-color="rgb(100%, 100%, 100%)" offset="0.25"/><stop stop-opacity="1" stop-color="rgb(100%, 100%, 100%)" offset="0.4375"/><stop stop-opacity="1" stop-color="rgb(99.899292%, 100%, 100%)" offset="0.472656"/><stop stop-opacity="1" stop-color="rgb(99.699402%, 99.897766%, 99.897766%)" offset="0.480469"/><stop stop-opacity="1" stop-color="rgb(99.598694%, 99.697876%, 99.697876%)" offset="0.496094"/><stop stop-opacity="1" stop-color="rgb(99.462891%, 99.462891%, 99.462891%)" offset="0.511719"/><stop stop-opacity="1" stop-color="rgb(99.263%, 99.263%, 99.263%)" offset="0.523438"/><stop stop-opacity="1" stop-color="rgb(99.061584%, 99.198914%, 99.061584%)" offset="0.550781"/><stop stop-opacity="1" stop-color="rgb(98.855591%, 99.191284%, 98.861694%)" offset="0.5625"/><stop stop-opacity="1" stop-color="rgb(98.591614%, 98.991394%, 98.797607%)" offset="0.566406"/><stop stop-opacity="1" stop-color="rgb(98.399353%, 98.602295%, 98.602295%)" offset="0.578125"/><stop stop-opacity="1" stop-color="rgb(98.399353%, 98.402405%, 98.339844%)" offset="0.601562"/><stop stop-opacity="1" stop-color="rgb(98.266602%, 98.266602%, 98.135376%)" offset="0.605469"/><stop stop-opacity="1" stop-color="rgb(97.946167%, 97.946167%, 97.879028%)" offset="0.628906"/><stop stop-opacity="1" stop-color="rgb(97.679138%, 97.679138%, 97.589111%)" offset="0.648438"/><stop stop-opacity="1" stop-color="rgb(97.44873%, 97.44873%, 97.322083%)" offset="0.667969"/><stop stop-opacity="1" stop-color="rgb(97.299194%, 97.299194%, 97.143555%)" offset="0.6875"/><stop stop-opacity="1" stop-color="rgb(97.200012%, 97.200012%, 96.881104%)" offset="0.695312"/><stop stop-opacity="1" stop-color="rgb(97.003174%, 97.003174%, 96.603394%)" offset="0.710938"/><stop stop-opacity="1" stop-color="rgb(96.801758%, 96.801758%, 96.401978%)" offset="0.71875"/><stop stop-opacity="1" stop-color="rgb(96.594238%, 96.594238%, 96.192932%)" offset="0.726562"/><stop stop-opacity="1" stop-color="rgb(96.295166%, 96.295166%, 95.89386%)" offset="0.734375"/><stop stop-opacity="1" stop-color="rgb(95.904541%, 95.904541%, 95.503235%)" offset="0.75"/><stop stop-opacity="1" stop-color="rgb(95.639038%, 95.639038%, 95.239258%)" offset="0.765625"/><stop stop-opacity="1" stop-color="rgb(95.422363%, 95.422363%, 95.022583%)" offset="0.769531"/><stop stop-opacity="1" stop-color="rgb(95.08667%, 95.08667%, 94.68689%)" offset="0.78125"/><stop stop-opacity="1" stop-color="rgb(94.895935%, 94.898987%, 94.499207%)" offset="0.785156"/><stop stop-opacity="1" stop-color="rgb(94.697571%, 94.898987%, 94.499207%)" offset="0.789062"/><stop stop-opacity="1" stop-color="rgb(94.43512%, 94.8349%, 94.433594%)" offset="0.792969"/><stop stop-opacity="1" stop-color="rgb(94.303894%, 94.7052%, 94.303894%)" offset="0.796875"/><stop stop-opacity="1" stop-color="rgb(94.174194%, 94.573975%, 94.174194%)" offset="0.800781"/><stop stop-opacity="1" stop-color="rgb(94.104004%, 94.438171%, 94.104004%)" offset="0.804688"/><stop stop-opacity="1" stop-color="rgb(93.991089%, 94.233704%, 93.991089%)" offset="0.808594"/><stop stop-opacity="1" stop-color="rgb(93.791199%, 94.099426%, 93.688965%)" offset="0.820312"/><stop stop-opacity="1" stop-color="rgb(93.600464%, 94.000244%, 93.395996%)" offset="0.828125"/><stop stop-opacity="1" stop-color="rgb(93.307495%, 93.800354%, 93.205261%)" offset="0.835938"/><stop stop-opacity="1" stop-color="rgb(92.958069%, 93.650818%, 92.958069%)" offset="0.84375"/><stop stop-opacity="1" stop-color="rgb(92.700195%, 93.499756%, 92.700195%)" offset="0.851562"/><stop stop-opacity="1" stop-color="rgb(92.547607%, 93.295288%, 92.547607%)" offset="0.859375"/><stop stop-opacity="1" stop-color="rgb(92.498779%, 93.096924%, 92.498779%)" offset="0.867188"/><stop stop-opacity="1" stop-color="rgb(92.451477%, 92.884827%, 92.451477%)" offset="0.875"/><stop stop-opacity="1" stop-color="rgb(92.237854%, 92.58728%, 92.237854%)" offset="0.882812"/><stop stop-opacity="1" stop-color="rgb(91.921997%, 92.300415%, 91.921997%)" offset="0.894531"/><stop stop-opacity="1" stop-color="rgb(91.581726%, 92.195129%, 91.581726%)" offset="0.90625"/><stop stop-opacity="1" stop-color="rgb(91.195679%, 91.996765%, 91.195679%)" offset="0.910156"/><stop stop-opacity="1" stop-color="rgb(90.99884%, 91.60614%, 90.99884%)" offset="0.917969"/><stop stop-opacity="1" stop-color="rgb(90.808105%, 91.215515%, 90.808105%)" offset="0.925781"/><stop stop-opacity="1" stop-color="rgb(90.509033%, 91.009521%, 90.509033%)" offset="0.933594"/><stop stop-opacity="1" stop-color="rgb(90.283203%, 90.983582%, 90.283203%)" offset="0.9375"/><stop stop-opacity="1" stop-color="rgb(89.979553%, 90.779114%, 89.982605%)" offset="0.945312"/><stop stop-opacity="1" stop-color="rgb(89.596558%, 90.396118%, 89.7995%)" offset="0.949219"/><stop stop-opacity="1" stop-color="rgb(89.399719%, 90.005493%, 89.605713%)" offset="0.960938"/><stop stop-opacity="1" stop-color="rgb(89.21051%, 89.805603%, 89.216614%)" offset="0.96875"/><stop stop-opacity="1" stop-color="rgb(88.809204%, 89.587402%, 88.998413%)" offset="0.976562"/><stop stop-opacity="1" stop-color="rgb(88.594055%, 89.187622%, 88.786316%)" offset="0.980469"/><stop stop-opacity="1" stop-color="rgb(88.394165%, 88.999939%, 88.598633%)" offset="0.988281"/><stop stop-opacity="1" stop-color="rgb(88.198853%, 88.999939%, 88.598633%)" offset="1"/></radialGradient><clipPath id="8d9fe976e8"><path d="M 27.902344 49 L 135.152344 49 L 135.152344 114 L 27.902344 114 Z M 27.902344 49 " clip-rule="nonzero"/></clipPath><clipPath id="43791add5d"><path d="M 94.558594 39.476562 L 94.710938 39.476562 L 94.710938 39.589844 L 94.558594 39.589844 Z M 94.558594 39.476562 " clip-rule="nonzero"/></clipPath><clipPath id="735babe871"><path d="M 94.558594 39.589844 C 94.597656 39.558594 94.632812 39.527344 94.671875 39.496094 L 94.710938 39.476562 C 94.660156 39.515625 94.609375 39.550781 94.558594 39.589844 " clip-rule="nonzero"/></clipPath><clipPath id="7c3dfb14df"><path d="M 94.558594 39.589844 C 94.597656 39.558594 94.632812 39.527344 94.671875 39.496094 L 94.710938 39.476562 C 94.660156 39.515625 94.609375 39.550781 94.558594 39.589844 " clip-rule="nonzero"/></clipPath><radialGradient gradientTransform="matrix(1.001122, 0, 0, 0.998878, 88.286453, 31.443894)" gradientUnits="userSpaceOnUse" r="10.257765" cx="0" id="8e93b9a385" cy="0" fx="0" fy="0"><stop stop-opacity="1" stop-color="rgb(86.299133%, 86.698914%, 85.499573%)" offset="0"/><stop stop-opacity="1" stop-color="rgb(86.299133%, 86.698914%, 85.499573%)" offset="0.25"/><stop stop-opacity="1" stop-color="rgb(86.299133%, 86.698914%, 85.499573%)" offset="0.34375"/><stop stop-opacity="1" stop-color="rgb(86.210632%, 86.610413%, 85.411072%)" offset="0.382812"/><stop stop-opacity="1" stop-color="rgb(86.010742%, 86.410522%, 85.211182%)" offset="0.398438"/><stop stop-opacity="1" stop-color="rgb(85.899353%, 86.299133%, 85.099792%)" offset="0.433594"/><stop stop-opacity="1" stop-color="rgb(85.751343%, 86.151123%, 85.099792%)" offset="0.449219"/><stop stop-opacity="1" stop-color="rgb(85.551453%, 85.951233%, 85.099792%)" offset="0.464844"/><stop stop-opacity="1" stop-color="rgb(85.366821%, 85.766602%, 84.967041%)" offset="0.53125"/><stop stop-opacity="1" stop-color="rgb(85.166931%, 85.566711%, 84.683228%)" offset="0.542969"/><stop stop-opacity="1" stop-color="rgb(84.970093%, 85.499573%, 84.414673%)" offset="0.570312"/><stop stop-opacity="1" stop-color="rgb(84.768677%, 85.331726%, 84.298706%)" offset="0.59375"/><stop stop-opacity="1" stop-color="rgb(84.535217%, 85.131836%, 84.135437%)" offset="0.617188"/><stop stop-opacity="1" stop-color="rgb(84.335327%, 85.00061%, 83.935547%)" offset="0.640625"/><stop stop-opacity="1" stop-color="rgb(84.138489%, 84.80072%, 83.738708%)" offset="0.648438"/><stop stop-opacity="1" stop-color="rgb(83.898926%, 84.658813%, 83.538818%)" offset="0.667969"/><stop stop-opacity="1" stop-color="rgb(83.659363%, 84.458923%, 83.444214%)" offset="0.675781"/><stop stop-opacity="1" stop-color="rgb(83.450317%, 84.298706%, 83.244324%)" offset="0.695312"/><stop stop-opacity="1" stop-color="rgb(83.250427%, 84.14917%, 83.099365%)" offset="0.710938"/><stop stop-opacity="1" stop-color="rgb(82.969666%, 83.821106%, 82.969666%)" offset="0.746094"/><stop stop-opacity="1" stop-color="rgb(82.769775%, 83.570862%, 82.669067%)" offset="0.761719"/><stop stop-opacity="1" stop-color="rgb(82.597351%, 83.363342%, 82.447815%)" offset="0.773438"/><stop stop-opacity="1" stop-color="rgb(82.315063%, 83.163452%, 82.398987%)" offset="0.785156"/><stop stop-opacity="1" stop-color="rgb(82.067871%, 82.972717%, 82.272339%)" offset="0.796875"/><stop stop-opacity="1" stop-color="rgb(81.871033%, 82.661438%, 82.008362%)" offset="0.808594"/><stop stop-opacity="1" stop-color="rgb(81.608582%, 82.357788%, 81.803894%)" offset="0.820312"/><stop stop-opacity="1" stop-color="rgb(81.336975%, 82.119751%, 81.668091%)" offset="0.828125"/><stop stop-opacity="1" stop-color="rgb(81.118774%, 81.918335%, 81.518555%)" offset="0.835938"/><stop stop-opacity="1" stop-color="rgb(80.953979%, 81.75354%, 81.35376%)" offset="0.84375"/><stop stop-opacity="1" stop-color="rgb(80.682373%, 81.634521%, 81.082153%)" offset="0.851562"/><stop stop-opacity="1" stop-color="rgb(80.299377%, 81.451416%, 80.699158%)" offset="0.867188"/><stop stop-opacity="1" stop-color="rgb(80.050659%, 81.114197%, 80.314636%)" offset="0.882812"/><stop stop-opacity="1" stop-color="rgb(79.99115%, 80.854797%, 80.06134%)" offset="0.894531"/><stop stop-opacity="1" stop-color="rgb(79.919434%, 80.718994%, 79.998779%)" offset="0.898438"/><stop stop-opacity="1" stop-color="rgb(79.788208%, 80.589294%, 79.998779%)" offset="0.902344"/><stop stop-opacity="1" stop-color="rgb(79.656982%, 80.456543%, 79.994202%)" offset="0.90625"/><stop stop-opacity="1" stop-color="rgb(79.396057%, 80.195618%, 79.795837%)" offset="0.910156"/><stop stop-opacity="1" stop-color="rgb(79.005432%, 79.998779%, 79.405212%)" offset="0.917969"/><stop stop-opacity="1" stop-color="rgb(78.614807%, 79.808044%, 79.014587%)" offset="0.925781"/><stop stop-opacity="1" stop-color="rgb(78.388977%, 79.588318%, 78.788757%)" offset="0.933594"/><stop stop-opacity="1" stop-color="rgb(78.178406%, 79.379272%, 78.578186%)" offset="0.941406"/><stop stop-opacity="1" stop-color="rgb(77.987671%, 79.188538%, 78.399658%)" offset="0.945312"/><stop stop-opacity="1" stop-color="rgb(77.787781%, 78.988647%, 78.399658%)" offset="0.949219"/><stop stop-opacity="1" stop-color="rgb(77.598572%, 78.797913%, 78.398132%)" offset="0.953125"/><stop stop-opacity="1" stop-color="rgb(77.598572%, 78.6026%, 78.20282%)" offset="0.957031"/><stop stop-opacity="1" stop-color="rgb(77.455139%, 78.211975%, 77.812195%)" offset="0.964844"/><stop stop-opacity="1" stop-color="rgb(77.23999%, 77.94342%, 77.607727%)" offset="0.972656"/><stop stop-opacity="1" stop-color="rgb(77.098083%, 77.798462%, 77.598572%)" offset="0.976562"/><stop stop-opacity="1" stop-color="rgb(76.855469%, 77.583313%, 77.5177%)" offset="0.980469"/><stop stop-opacity="1" stop-color="rgb(76.586914%, 77.368164%, 77.363586%)" offset="0.988281"/><stop stop-opacity="1" stop-color="rgb(76.293945%, 77.2995%, 77.095032%)" offset="0.992188"/><stop stop-opacity="1" stop-color="rgb(76.098633%, 77.2995%, 76.899719%)" offset="1"/></radialGradient></defs><g clip-path="url(#ba6b8a69f0)"><g clip-path="url(#a708610c64)"><g clip-path="url(#bb5ff26852)"><path fill="url(#7d4955c5a3)" d="M 77.847656 21.191406 L 77.847656 40.257812 L 98.785156 40.257812 L 98.785156 21.191406 Z M 77.847656 21.191406 " fill-rule="nonzero"/></g></g></g><path fill="#060707" d="M 93.746094 28.808594 C 95.183594 31.8125 93.910156 35.410156 90.898438 36.84375 C 87.890625 38.28125 84.285156 37.007812 82.847656 34.007812 C 81.40625 31.003906 82.679688 27.40625 85.691406 25.972656 C 88.699219 24.535156 92.304688 25.804688 93.746094 28.808594 " fill-opacity="1" fill-rule="nonzero"/><path fill="#ffffff" d="M 87.390625 28.578125 C 88.25 30.667969 85.351562 31.863281 84.382812 30.011719 C 83.523438 27.921875 86.421875 26.726562 87.390625 28.578125 " fill-opacity="1" fill-rule="nonzero"/><g clip-path="url(#70374cc8ea)"><g clip-path="url(#41a81aa835)"><g clip-path="url(#94ba60b2b3)"><path fill="url(#228d884877)" d="M 49.824219 3.890625 L 49.824219 22.878906 L 70.734375 22.878906 L 70.734375 3.890625 Z M 49.824219 3.890625 " fill-rule="nonzero"/></g></g></g><path fill="#060707" d="M 65.675781 11.503906 C 67.113281 14.507812 65.839844 18.105469 62.832031 19.539062 C 59.824219 20.976562 56.214844 19.703125 54.777344 16.703125 C 53.339844 13.699219 54.613281 10.101562 57.621094 8.667969 C 60.632812 7.230469 64.238281 8.5 65.675781 11.503906 " fill-opacity="1" fill-rule="nonzero"/><path fill="#ffffff" d="M 59.667969 11.609375 C 60.347656 13.230469 58.082031 14.234375 57.277344 12.75 C 56.597656 11.132812 58.863281 10.125 59.667969 11.609375 " fill-opacity="1" fill-rule="nonzero"/><path fill="#91d23d" d="M 130.964844 64.070312 C 130.582031 64.183594 130.085938 64.230469 129.464844 64.179688 C 122.683594 64.460938 120.871094 66.238281 118.570312 73.019531 C 117.339844 76.101562 115.949219 79.015625 114.304688 81.929688 C 112.820312 84.617188 111.945312 86.007812 107.832031 84.746094 C 105.570312 84.019531 102.46875 82.382812 101.871094 82.148438 C 101.851562 82.152344 101.835938 82.140625 101.824219 82.132812 C 101.78125 82.105469 101.761719 82.074219 101.757812 82.386719 C 101.746094 82.644531 101.730469 82.902344 101.714844 83.15625 C 101.707031 83.320312 101.695312 83.488281 101.683594 83.652344 C 101.605469 84.550781 101.507812 85.410156 101.382812 86.234375 C 99.875 96.402344 95.007812 101.128906 92.175781 103.304688 L 92.171875 103.308594 C 90.878906 104.296875 90.011719 104.757812 90.078125 104.957031 C 90.066406 105 90.058594 105.042969 90.046875 105.085938 C 89.847656 105.910156 89.671875 106.738281 89.523438 107.566406 C 88.847656 111.320312 88.660156 115.144531 88.789062 118.976562 C 88.878906 126.5625 90.320312 129.847656 92.378906 131.480469 C 95.398438 133.878906 99.742188 132.703125 103.066406 136.363281 C 104.128906 137.699219 104.148438 139.832031 102.792969 140.988281 C 102.390625 141.234375 102.160156 141.359375 101.988281 141.5 C 101.859375 141.609375 101.761719 141.730469 101.644531 141.914062 C 101.5 142.144531 101.332031 142.476562 101.039062 143.027344 C 97.742188 145.996094 93.683594 142.175781 90.8125 140.296875 C 89.0625 138.769531 83.453125 136.1875 82.425781 133.125 C 81.347656 130.527344 84.191406 124.109375 81.464844 110.585938 C 81.382812 110.183594 81.296875 109.769531 81.203125 109.355469 C 81.179688 109.242188 81.152344 109.125 81.128906 109.011719 C 77.898438 109.964844 74.390625 110.363281 70.902344 110.097656 C 70.808594 110.09375 70.710938 110.085938 70.613281 110.078125 C 70.445312 110.015625 70.328125 110.03125 70.242188 110.101562 C 70.152344 110.171875 70.101562 110.300781 70.066406 110.453125 C 69.988281 110.773438 69.988281 111.203125 69.894531 111.457031 L 69.882812 111.539062 C 68.832031 117.78125 70.550781 124.527344 70.21875 130.914062 C 70.0625 132.074219 70.199219 132.945312 69.839844 133.664062 C 69.753906 133.835938 69.640625 133.996094 69.484375 134.152344 C 68.308594 135.347656 64.8125 136.132812 54.097656 137.363281 C 51.78125 137.617188 49.007812 137.496094 47.894531 134.609375 C 46.960938 131.96875 49.238281 128.949219 52.289062 129.972656 C 54.582031 130.769531 54.027344 134.132812 61.058594 129.839844 C 63.269531 128.207031 66.425781 127.015625 60.429688 108.136719 C 60.613281 105.851562 50.488281 104.695312 45.6875 89.707031 C 42.902344 94.902344 40.03125 100.390625 41.042969 106.457031 C 41.195312 106.84375 41.285156 107.304688 41.285156 107.726562 C 41.285156 108.667969 40.847656 109.398438 39.738281 108.558594 C 39.683594 108.378906 39.636719 108.199219 39.59375 108.011719 C 39.1875 106.15625 39.472656 103.917969 39.238281 102.09375 C 37.246094 105.808594 35.496094 108.460938 34.367188 109.695312 C 33.335938 110.820312 32.828125 110.765625 33.117188 109.269531 C 33.398438 107.828125 34.421875 105.054688 36.4375 100.710938 C 34.894531 100.800781 33.683594 101.90625 32.433594 102.488281 C 32.347656 102.527344 32.257812 102.5625 32.171875 102.597656 C 29.691406 102.425781 30.054688 100.886719 31.566406 100.28125 C 31.785156 100.195312 32.023438 100.128906 32.285156 100.089844 C 37.707031 100.402344 42.457031 87.863281 44.589844 80.511719 C 44.789062 75.988281 45.964844 72.175781 47.757812 68.636719 C 49.171875 65.839844 50.96875 63.214844 52.972656 60.535156 C 54.914062 57.9375 57.222656 54.125 57.601562 50.988281 C 58.273438 45.414062 58.351562 39.628906 56.878906 34.207031 C 55.484375 29.089844 53.757812 24.273438 51.421875 19.535156 C 51.285156 19.257812 51.148438 18.980469 51.007812 18.707031 C 51.03125 18.742188 51.050781 18.777344 51.078125 18.8125 C 51.246094 19.0625 51.429688 19.304688 51.636719 19.535156 C 53.75 21.929688 57.722656 23.214844 60.820312 22.804688 C 64.257812 22.347656 66.707031 20.398438 69.59375 18.480469 L 69.59375 18.488281 C 69.578125 18.675781 69.535156 18.878906 69.46875 19.089844 C 68.269531 23.011719 59.25 31.015625 62.363281 45.488281 C 62.984375 48.058594 63.449219 50.621094 64.96875 52.765625 C 65.96875 54.121094 65.902344 54.269531 66.726562 54.082031 C 67.542969 53.898438 69.246094 53.378906 73.746094 53.378906 C 76.601562 53.449219 79.398438 53.949219 81.976562 54.800781 C 82.097656 54.839844 82.214844 54.882812 82.335938 54.925781 L 82.351562 54.910156 C 84.664062 52.234375 85.378906 48.238281 84.199219 44.445312 C 83.3125 41.851562 81.328125 39.484375 80.265625 37.953125 C 80.085938 37.699219 79.9375 37.46875 79.820312 37.265625 L 79.832031 37.28125 L 79.835938 37.285156 C 82.265625 40.160156 91.109375 41.40625 95.359375 38.933594 L 95.425781 38.890625 C 95.367188 38.941406 95.304688 38.984375 95.242188 39.035156 L 95.242188 39.039062 C 95.046875 39.1875 94.855469 39.339844 94.671875 39.496094 C 94.632812 39.527344 94.597656 39.558594 94.558594 39.589844 L 94.554688 39.589844 C 88.449219 44.675781 85.921875 50.988281 90.414062 58.988281 C 90.445312 59.042969 90.472656 59.097656 90.503906 59.152344 C 92.371094 61.164062 94.175781 62.316406 96.203125 65.273438 C 98.011719 67.796875 99.433594 70.671875 100.332031 73.707031 C 100.332031 73.707031 100.40625 73.769531 100.550781 73.886719 C 101.4375 74.351562 107.671875 80.539062 109.75 79.695312 C 111.34375 79.433594 112.660156 75.351562 114.214844 72.269531 C 115.667969 68.636719 118.386719 65.179688 117.863281 61.074219 C 117.527344 59.09375 116.25 57.628906 114.902344 56.144531 L 114.851562 56.074219 C 114.140625 55.101562 114.867188 54.316406 116.121094 54.589844 C 116.246094 54.703125 116.371094 54.820312 116.488281 54.941406 C 117.96875 56.433594 119.015625 58.460938 120.351562 60.070312 C 121.921875 57.960938 123.386719 55.851562 124.808594 53.636719 C 124.882812 53.511719 124.988281 53.394531 125.121094 53.289062 C 125.894531 52.6875 127.507812 52.53125 127.691406 53.761719 C 127.652344 53.820312 127.609375 53.875 127.566406 53.929688 C 125.582031 56.550781 124.246094 57.871094 122.257812 61.625 C 125.128906 61.664062 127.996094 61.699219 130.863281 61.734375 C 130.902344 61.738281 130.941406 61.738281 130.980469 61.738281 C 131.347656 61.742188 131.636719 61.996094 131.839844 62.304688 C 132.203125 62.996094 131.976562 63.769531 130.964844 64.070312 " fill-opacity="1" fill-rule="nonzero"/><path fill="#040606" d="M 88.867188 75.34375 C 88.371094 80.386719 87.71875 85.835938 84.507812 89.726562 C 79.585938 95.703125 68.375 97.253906 62.480469 93.082031 C 56.464844 89.039062 57.09375 80.132812 56.3125 75.34375 C 57.496094 76.078125 58.738281 76.734375 60.023438 77.308594 C 62.320312 78.332031 64.746094 79.097656 67.226562 79.570312 C 74.730469 81.003906 82.707031 79.808594 88.867188 75.34375 " fill-opacity="1" fill-rule="nonzero"/><path fill="#909292" d="M 101.738281 141.96875 L 101.691406 141.960938 C 101.671875 141.949219 101.65625 141.933594 101.644531 141.917969 C 101.644531 141.917969 101.644531 141.914062 101.644531 141.914062 C 101.761719 141.730469 101.859375 141.609375 101.988281 141.5 C 101.949219 141.640625 101.898438 141.773438 101.839844 141.90625 C 101.820312 141.945312 101.78125 141.96875 101.738281 141.96875 " fill-opacity="1" fill-rule="nonzero"/><path fill="#577928" d="M 101.644531 141.917969 C 101.625 141.886719 101.621094 141.847656 101.636719 141.8125 C 102.027344 140.957031 102.011719 139.9375 101.597656 139.09375 C 101.183594 138.246094 100.386719 137.609375 99.46875 137.386719 C 99.191406 137.320312 98.910156 137.292969 98.625 137.292969 C 97.664062 137.292969 96.695312 137.621094 95.882812 137.894531 C 95.867188 137.898438 95.855469 137.902344 95.847656 137.902344 C 95.800781 137.902344 95.757812 137.871094 95.742188 137.828125 C 95.722656 137.769531 95.753906 137.707031 95.808594 137.6875 C 96.640625 137.40625 97.628906 137.070312 98.625 137.070312 C 98.921875 137.070312 99.222656 137.101562 99.519531 137.171875 C 100.5 137.410156 101.351562 138.089844 101.792969 138.996094 C 102.175781 139.769531 102.242188 140.679688 101.988281 141.5 C 101.859375 141.609375 101.761719 141.730469 101.644531 141.914062 C 101.644531 141.914062 101.644531 141.917969 101.644531 141.917969 " fill-opacity="1" fill-rule="nonzero"/><path fill="#ffffff" d="M 67.226562 79.570312 C 67.140625 80.050781 66.988281 80.644531 66.878906 81.082031 C 66.65625 81.964844 66.382812 82.925781 65.632812 83.441406 C 64.6875 84.097656 63.40625 83.777344 62.304688 83.4375 C 61.332031 83.132812 60.265625 82.753906 59.777344 81.859375 C 59.347656 81.070312 59.5 80.105469 59.667969 79.222656 C 59.785156 78.582031 59.902344 77.945312 60.023438 77.308594 C 62.320312 78.332031 64.746094 79.097656 67.226562 79.570312 " fill-opacity="1" fill-rule="nonzero"/><path fill="#ffffff" d="M 77.039062 84.914062 C 76.3125 85.597656 75.210938 85.671875 74.214844 85.644531 C 73.1875 85.613281 72.105469 85.496094 71.269531 84.90625 C 70.207031 84.148438 69.804688 82.816406 69.710938 81.570312 C 69.675781 81.101562 69.648438 80.535156 69.65625 79.929688 L 69.679688 79.933594 C 70.550781 80.027344 71.425781 80.085938 72.304688 80.113281 C 73.890625 80.15625 75.492188 80.082031 77.074219 79.878906 C 77.261719 79.855469 77.449219 79.832031 77.640625 79.800781 C 77.710938 80.414062 77.769531 81.03125 77.816406 81.644531 C 77.898438 82.800781 77.878906 84.117188 77.039062 84.914062 " fill-opacity="1" fill-rule="nonzero"/><path fill="#ffffff" d="M 85.894531 82.402344 C 85.203125 83.753906 83.578125 84.695312 82.128906 84.246094 C 80.703125 83.804688 79.929688 82.28125 79.472656 80.863281 C 79.335938 80.429688 79.210938 79.988281 79.097656 79.546875 C 79.128906 79.542969 79.15625 79.535156 79.1875 79.527344 C 81.511719 79.054688 83.765625 78.289062 85.855469 77.210938 C 85.949219 77.457031 86.03125 77.710938 86.101562 77.964844 C 86.503906 79.425781 86.585938 81.054688 85.894531 82.402344 " fill-opacity="1" fill-rule="nonzero"/><path fill="#ffffff" d="M 82.929688 91.332031 C 81.144531 92.855469 78.964844 93.902344 76.6875 94.570312 C 76.464844 94.636719 76.238281 94.699219 76.015625 94.757812 C 75.550781 93.867188 75.34375 92.679688 75.097656 91.863281 C 74.894531 91.183594 74.703125 90.445312 74.945312 89.777344 C 75.28125 88.847656 76.320312 88.386719 77.277344 88.121094 C 78.652344 87.742188 80.257812 87.589844 81.390625 88.457031 C 82.269531 89.132812 82.636719 90.25 82.929688 91.332031 " fill-opacity="1" fill-rule="nonzero"/><path fill="#ffffff" d="M 70.523438 95.050781 C 70.492188 95.179688 70.457031 95.304688 70.414062 95.433594 C 70.234375 95.429688 70.050781 95.421875 69.871094 95.414062 C 67.574219 95.296875 65.328125 94.746094 63.398438 93.65625 C 63.402344 93.570312 63.402344 93.484375 63.402344 93.402344 C 63.371094 92.496094 63.316406 91.550781 63.710938 90.707031 C 64.269531 89.5 65.683594 88.792969 67.007812 88.9375 C 68.335938 89.078125 69.515625 89.984375 70.132812 91.164062 C 70.753906 92.34375 70.839844 93.753906 70.523438 95.050781 " fill-opacity="1" fill-rule="nonzero"/><path fill="#ffffff" d="M 62.757812 16.371094 C 62.757812 16.777344 62.425781 17.113281 62.019531 17.113281 C 61.609375 17.113281 61.277344 16.777344 61.277344 16.371094 C 61.277344 15.964844 61.609375 15.632812 62.019531 15.632812 C 62.425781 15.632812 62.757812 15.964844 62.757812 16.371094 " fill-opacity="1" fill-rule="nonzero"/><path fill="#ffffff" d="M 91.398438 34.414062 C 91.398438 34.730469 91.140625 34.984375 90.828125 34.984375 C 90.511719 34.984375 90.257812 34.730469 90.257812 34.414062 C 90.257812 34.101562 90.511719 33.847656 90.828125 33.847656 C 91.140625 33.847656 91.398438 34.101562 91.398438 34.414062 " fill-opacity="1" fill-rule="nonzero"/><g clip-path="url(#8d9fe976e8)"><path fill="#a5d432" d="M 132.871094 60.542969 C 131.613281 60.542969 130.589844 61.5625 130.589844 62.820312 C 130.589844 64.078125 131.613281 65.097656 132.871094 65.097656 C 134.132812 65.097656 135.15625 64.078125 135.15625 62.820312 C 135.15625 61.5625 134.132812 60.542969 132.871094 60.542969 Z M 126.824219 49.5 C 125.566406 49.5 124.542969 50.519531 124.542969 51.777344 C 124.542969 53.035156 125.566406 54.054688 126.824219 54.054688 C 128.085938 54.054688 129.105469 53.035156 129.105469 51.777344 C 129.105469 50.519531 128.085938 49.5 126.824219 49.5 Z M 114.5 51.546875 C 113.242188 51.546875 112.21875 52.566406 112.21875 53.824219 C 112.21875 55.082031 113.242188 56.101562 114.5 56.101562 C 115.761719 56.101562 116.785156 55.082031 116.785156 53.824219 C 116.785156 52.566406 115.761719 51.546875 114.5 51.546875 Z M 40.796875 107.671875 C 39.535156 107.671875 38.511719 108.691406 38.511719 109.949219 C 38.511719 111.207031 39.535156 112.226562 40.796875 112.226562 C 42.054688 112.226562 43.078125 111.207031 43.078125 109.949219 C 43.078125 108.691406 42.054688 107.671875 40.796875 107.671875 Z M 33.035156 109.265625 C 31.777344 109.265625 30.753906 110.285156 30.753906 111.542969 C 30.753906 112.800781 31.777344 113.820312 33.035156 113.820312 C 34.296875 113.820312 35.320312 112.800781 35.320312 111.542969 C 35.320312 110.285156 34.296875 109.265625 33.035156 109.265625 Z M 32.464844 102.09375 C 32.464844 103.351562 31.445312 104.371094 30.183594 104.371094 C 28.921875 104.371094 27.902344 103.351562 27.902344 102.09375 C 27.902344 100.835938 28.921875 99.816406 30.183594 99.816406 C 31.445312 99.816406 32.464844 100.835938 32.464844 102.09375 " fill-opacity="1" fill-rule="nonzero"/></g><path fill="#adde68" d="M 83.421875 57.050781 C 81.710938 56.257812 79.96875 55.753906 78.09375 55.535156 C 77.101562 55.421875 76.101562 55.382812 75.101562 55.382812 C 74.238281 55.382812 73.371094 55.414062 72.507812 55.457031 C 70.113281 55.582031 67.726562 55.804688 65.355469 56.125 C 67.949219 55.003906 70.789062 54.527344 73.617188 54.460938 C 73.855469 54.453125 74.09375 54.453125 74.335938 54.453125 C 75 54.453125 75.664062 54.472656 76.332031 54.511719 C 77.878906 54.601562 79.515625 54.695312 81.03125 55.027344 C 81.484375 55.128906 81.753906 55.328125 82.054688 55.667969 C 82.488281 56.152344 82.96875 56.585938 83.421875 57.050781 " fill-opacity="1" fill-rule="nonzero"/><path fill="#adde68" d="M 57.015625 23.777344 C 56.875 23.777344 56.734375 23.773438 56.59375 23.765625 C 55.710938 23.710938 54.828125 23.480469 54.082031 23.007812 C 53.761719 22.804688 53.46875 22.558594 53.222656 22.273438 C 53.121094 22.15625 52.578125 21.53125 52.683594 21.378906 C 52.703125 21.347656 52.730469 21.335938 52.765625 21.335938 C 52.960938 21.335938 53.332031 21.796875 53.410156 21.863281 C 53.703125 22.117188 54.027344 22.335938 54.367188 22.523438 C 54.765625 22.738281 55.191406 22.90625 55.628906 23.03125 C 56.734375 23.351562 57.898438 23.410156 59.054688 23.410156 C 59.121094 23.410156 59.183594 23.410156 59.25 23.410156 C 58.53125 23.652344 57.773438 23.777344 57.015625 23.777344 " fill-opacity="1" fill-rule="nonzero"/><path fill="#adde68" d="M 85.242188 40.882812 C 83.859375 40.882812 82.476562 40.265625 81.589844 39.203125 C 81.683594 39.3125 82.105469 39.277344 82.25 39.355469 C 82.378906 39.425781 82.457031 39.539062 82.5625 39.636719 C 82.882812 39.929688 83.292969 40.15625 83.6875 40.332031 C 84.34375 40.625 85.058594 40.78125 85.773438 40.78125 C 85.960938 40.78125 86.148438 40.769531 86.335938 40.746094 C 85.976562 40.839844 85.609375 40.882812 85.242188 40.882812 " fill-opacity="1" fill-rule="nonzero"/><path fill="#adde68" d="M 51.460938 67.84375 C 51.300781 66.023438 51.859375 64.152344 52.992188 62.71875 C 53.582031 61.976562 54.324219 61.359375 55.15625 60.898438 C 55.359375 60.78125 56.5 60.242188 57.027344 60.242188 C 57.234375 60.242188 57.347656 60.324219 57.269531 60.550781 C 57.179688 60.824219 56.324219 61.289062 56.085938 61.496094 C 55.703125 61.828125 55.335938 62.179688 54.984375 62.542969 C 54.292969 63.261719 53.660156 64.039062 53.097656 64.859375 C 52.457031 65.796875 51.910156 66.796875 51.460938 67.84375 " fill-opacity="1" fill-rule="nonzero"/><path fill="#adde68" d="M 49.84375 71.640625 C 49.847656 71.324219 50.070312 69.371094 50.539062 69.371094 C 50.558594 69.371094 50.574219 69.375 50.589844 69.378906 C 51.109375 69.527344 49.84375 71.335938 49.84375 71.640625 " fill-opacity="1" fill-rule="nonzero"/><path fill="#dcddda" d="M 95.113281 100.59375 C 96.664062 98.878906 98.289062 96.519531 99.558594 93.277344 C 98.394531 96.316406 96.882812 98.671875 95.113281 100.59375 " fill-opacity="1" fill-rule="nonzero"/><path fill="#81b838" d="M 73.027344 110.179688 C 72.320312 110.179688 71.609375 110.152344 70.902344 110.097656 C 71.40625 109.925781 72.359375 109.84375 73.234375 109.796875 C 86.695312 109.308594 98.300781 99.25 101.382812 86.234375 C 100.949219 88.933594 100.332031 91.257812 99.558594 93.277344 C 98.289062 96.519531 96.664062 98.878906 95.113281 100.59375 C 91.34375 104.695312 86.402344 106.816406 81.203125 109.355469 C 81.179688 109.242188 81.152344 109.125 81.128906 109.011719 C 78.554688 109.773438 75.804688 110.179688 73.027344 110.179688 " fill-opacity="1" fill-rule="nonzero"/><g clip-path="url(#43791add5d)"><g clip-path="url(#735babe871)"><g clip-path="url(#7c3dfb14df)"><path fill="url(#8e93b9a385)" d="M 94.558594 39.476562 L 94.558594 39.589844 L 94.710938 39.589844 L 94.710938 39.476562 Z M 94.558594 39.476562 " fill-rule="nonzero"/></g></g></g><path fill="#81b838" d="M 90.390625 59.261719 C 88.914062 58.054688 88.167969 55.21875 87.867188 53.421875 C 87.519531 51.316406 87.65625 49.132812 88.316406 47.101562 C 89.179688 44.449219 90.929688 42.105469 93.179688 40.453125 C 93.65625 40.101562 94.152344 39.78125 94.671875 39.496094 C 94.632812 39.527344 94.597656 39.558594 94.558594 39.589844 L 94.554688 39.589844 C 90.585938 42.894531 88.128906 46.71875 88.128906 51.1875 C 88.128906 53.59375 88.839844 56.1875 90.414062 58.988281 C 90.40625 59.082031 90.398438 59.171875 90.390625 59.261719 " fill-opacity="1" fill-rule="nonzero"/><path fill="#81b838" d="M 66.230469 54.199219 C 65.839844 54.199219 65.425781 54.023438 65.105469 53.785156 C 64.164062 53.089844 63.640625 51.976562 63.203125 50.890625 C 61.261719 46.078125 60.269531 40.773438 61.152344 35.664062 C 61.671875 32.671875 62.816406 29.835938 64.25 27.167969 C 65.519531 24.800781 67.015625 22.554688 68.550781 20.347656 C 68.722656 20.101562 69.097656 19.335938 69.46875 19.089844 C 68.445312 22.441406 61.71875 28.765625 61.714844 39.558594 C 61.710938 41.402344 61.910156 43.375 62.363281 45.488281 C 62.984375 48.058594 63.449219 50.621094 64.96875 52.765625 C 65.75 53.828125 65.882812 54.148438 66.296875 54.148438 C 66.410156 54.148438 66.546875 54.125 66.726562 54.082031 C 66.574219 54.164062 66.40625 54.199219 66.230469 54.199219 " fill-opacity="1" fill-rule="nonzero"/><path fill="#81b838" d="M 69.839844 133.664062 C 69.875 129.847656 69.453125 126.035156 69.242188 122.222656 C 69.136719 120.316406 69.082031 118.40625 69.160156 116.5 C 69.226562 114.816406 69.398438 113.140625 69.730469 111.488281 C 69.808594 111.085938 69.910156 110.605469 70.066406 110.453125 C 69.988281 110.773438 69.988281 111.203125 69.894531 111.457031 L 69.882812 111.539062 C 69.628906 113.03125 69.539062 114.554688 69.535156 116.09375 C 69.535156 120.410156 70.261719 124.859375 70.261719 129.183594 C 70.261719 129.761719 70.25 130.339844 70.21875 130.914062 C 70.0625 132.074219 70.199219 132.945312 69.839844 133.664062 " fill-opacity="1" fill-rule="nonzero"/><path fill="#adde68" d="M 48.835938 132.3125 C 49.28125 131.570312 50.046875 131.027344 50.894531 130.847656 C 51.0625 130.8125 51.289062 130.792969 51.539062 130.792969 C 52.441406 130.792969 53.660156 131.070312 53.464844 132.023438 C 53.007812 131.578125 52.386719 131.519531 51.777344 131.503906 C 51.589844 131.496094 51.398438 131.492188 51.210938 131.492188 C 50.871094 131.492188 50.53125 131.507812 50.199219 131.574219 C 49.683594 131.679688 49.175781 131.910156 48.835938 132.3125 " fill-opacity="1" fill-rule="nonzero"/><path fill="#adde68" d="M 48.226562 133.558594 C 48.203125 133.449219 48.246094 132.894531 48.425781 132.894531 C 48.4375 132.894531 48.449219 132.898438 48.464844 132.902344 C 48.746094 133.007812 48.207031 133.472656 48.226562 133.558594 " fill-opacity="1" fill-rule="nonzero"/></svg>