<svg xmlns="http://www.w3.org/2000/svg" xmlns:xlink="http://www.w3.org/1999/xlink" width="200" zoomAndPan="magnify" viewBox="0 0 150 149.999998" height="200" preserveAspectRatio="xMidYMid meet" version="1.0"><defs><clipPath id="341e3fd3ad"><path d="M 49 3.6875 L 68 3.6875 L 68 22 L 49 22 Z M 49 3.6875 " clip-rule="nonzero"/></clipPath><clipPath id="8f0d3d9418"><path d="M 49 3.6875 L 68 3.6875 L 68 23 L 49 23 Z M 49 3.6875 " clip-rule="nonzero"/></clipPath><clipPath id="9102e9520e"><path d="M 23.523438 102 L 28 102 L 28 107 L 23.523438 107 Z M 23.523438 102 " clip-rule="nonzero"/></clipPath></defs><g clip-path="url(#341e3fd3ad)"><path fill="#ffffff" d="M 58.398438 3.871094 C 52.371094 3.699219 47.679688 10.253906 49.804688 15.914062 C 53.0625 25.414062 67.332031 23.183594 67.484375 13.117188 C 67.644531 8.132812 63.378906 3.785156 58.398438 3.871094 " fill-opacity="1" fill-rule="nonzero"/></g><g clip-path="url(#8f0d3d9418)"><path fill="#040606" d="M 58.398438 3.871094 L 58.402344 3.796875 C 58.324219 3.792969 58.246094 3.792969 58.167969 3.792969 C 53.207031 3.792969 49.214844 8.28125 49.210938 13.035156 C 49.210938 14.003906 49.378906 14.984375 49.738281 15.941406 L 49.804688 15.914062 L 49.738281 15.9375 C 51.164062 20.117188 54.722656 22.050781 58.273438 22.050781 C 60.570312 22.046875 62.867188 21.246094 64.605469 19.730469 C 66.339844 18.210938 67.515625 15.972656 67.558594 13.117188 L 67.484375 13.117188 L 67.558594 13.121094 C 67.558594 13.027344 67.5625 12.9375 67.5625 12.84375 C 67.558594 7.980469 63.414062 3.796875 58.542969 3.792969 C 58.496094 3.792969 58.445312 3.792969 58.398438 3.796875 L 58.398438 3.871094 L 58.402344 3.796875 L 58.398438 3.871094 L 58.402344 3.945312 C 58.449219 3.945312 58.496094 3.945312 58.542969 3.945312 C 60.933594 3.945312 63.152344 4.972656 64.773438 6.601562 C 66.390625 8.230469 67.410156 10.457031 67.410156 12.84375 C 67.410156 12.933594 67.410156 13.023438 67.410156 13.113281 L 67.410156 13.117188 C 67.363281 15.933594 66.210938 18.125 64.503906 19.617188 C 62.796875 21.109375 60.535156 21.898438 58.273438 21.898438 C 54.773438 21.898438 51.289062 20.007812 49.878906 15.890625 L 49.875 15.890625 C 49.523438 14.949219 49.363281 13.988281 49.363281 13.035156 C 49.363281 10.699219 50.34375 8.425781 51.9375 6.734375 C 53.535156 5.042969 55.734375 3.941406 58.167969 3.941406 C 58.246094 3.941406 58.320312 3.941406 58.398438 3.945312 L 58.402344 3.945312 L 58.398438 3.871094 " fill-opacity="1" fill-rule="nonzero"/></g><path fill="#060707" d="M 63.761719 13.054688 C 63.519531 20.105469 53.039062 19.925781 53.039062 12.871094 C 53.28125 5.820312 63.761719 6 63.761719 13.054688 " fill-opacity="1" fill-rule="nonzero"/><path fill="#ffffff" d="M 85.929688 23.070312 C 82.839844 23.070312 79.691406 22.046875 77.664062 19.875 C 77.300781 19.289062 76.992188 18.640625 76.746094 17.921875 L 76.746094 17.917969 C 76.394531 16.980469 76.230469 16.015625 76.230469 15.066406 C 76.230469 12.730469 77.214844 10.453125 78.808594 8.765625 C 80.402344 7.074219 82.605469 5.972656 85.039062 5.972656 C 85.113281 5.972656 85.191406 5.972656 85.265625 5.976562 L 85.269531 5.976562 C 85.316406 5.972656 85.363281 5.972656 85.410156 5.972656 C 87.804688 5.972656 90.019531 7.003906 91.640625 8.632812 C 93.261719 10.261719 94.28125 12.484375 94.28125 14.875 C 94.28125 14.964844 94.28125 15.054688 94.277344 15.144531 C 94.234375 17.960938 93.082031 20.152344 91.375 21.644531 C 91.140625 21.851562 90.894531 22.042969 90.636719 22.222656 C 89.199219 22.78125 87.574219 23.070312 85.929688 23.070312 M 85.265625 9.675781 C 78.324219 9.703125 78.328125 20.289062 85.269531 20.308594 C 92.21875 20.277344 92.207031 9.699219 85.265625 9.675781 " fill-opacity="1" fill-rule="nonzero"/><path fill="#040606" d="M 90.636719 22.222656 C 90.894531 22.042969 91.140625 21.851562 91.375 21.644531 C 93.082031 20.152344 94.234375 17.960938 94.277344 15.144531 C 94.28125 15.054688 94.28125 14.964844 94.28125 14.875 C 94.28125 12.484375 93.261719 10.261719 91.640625 8.632812 C 90.019531 7.003906 87.804688 5.972656 85.410156 5.972656 C 85.363281 5.972656 85.316406 5.972656 85.269531 5.976562 L 85.265625 5.976562 C 85.191406 5.972656 85.113281 5.972656 85.039062 5.972656 C 82.605469 5.972656 80.402344 7.074219 78.808594 8.765625 C 77.214844 10.453125 76.230469 12.730469 76.230469 15.066406 C 76.230469 16.015625 76.394531 16.980469 76.746094 17.917969 L 76.746094 17.921875 C 76.992188 18.640625 77.300781 19.289062 77.664062 19.875 C 77.554688 19.757812 77.449219 19.636719 77.347656 19.515625 C 77.371094 19.59375 77.390625 19.671875 77.414062 19.75 C 77.097656 19.207031 76.828125 18.617188 76.605469 17.96875 C 76.246094 17.015625 76.082031 16.035156 76.082031 15.066406 C 76.082031 10.3125 80.074219 5.824219 85.039062 5.820312 C 85.117188 5.820312 85.191406 5.824219 85.269531 5.824219 C 85.316406 5.824219 85.363281 5.824219 85.410156 5.824219 C 90.28125 5.824219 94.429688 10.011719 94.429688 14.875 C 94.429688 14.964844 94.429688 15.058594 94.425781 15.148438 C 94.382812 18.003906 93.210938 20.242188 91.472656 21.757812 C 91.382812 21.835938 91.296875 21.910156 91.203125 21.984375 C 91.019531 22.066406 90.832031 22.148438 90.636719 22.222656 M 85.269531 5.898438 L 85.273438 5.824219 L 85.269531 5.898438 " fill-opacity="1" fill-rule="nonzero"/><path fill="#060707" d="M 85.269531 20.308594 C 78.328125 20.289062 78.324219 9.703125 85.265625 9.675781 C 92.207031 9.699219 92.21875 20.277344 85.269531 20.308594 " fill-opacity="1" fill-rule="nonzero"/><path fill="#88d8e3" d="M 99.277344 72.855469 C 96.027344 81.449219 89.785156 88.550781 89.628906 98.269531 C 89.035156 105.90625 90.113281 116.679688 90.371094 124.300781 C 90.46875 127.222656 91.394531 130.0625 93.042969 132.476562 C 94.730469 135.894531 100.5625 138.542969 100.425781 141.050781 C 100.035156 143.25 97.199219 143.1875 95.621094 142.257812 C 96.308594 144.882812 92.824219 144.828125 91.476562 143.238281 C 82.53125 136.125 85.957031 122.605469 84.597656 112.609375 C 83.621094 103.761719 85.089844 87.21875 79.558594 84.78125 L 71.953125 84.78125 C 70.195312 85.382812 69.855469 87.480469 69.742188 89.335938 C 69.066406 100.851562 71.113281 117.28125 72.054688 130.558594 C 72.5625 135.636719 70.925781 140.277344 67.550781 143.933594 C 66.410156 145.652344 62.960938 146.195312 63.316406 143.46875 C 61.867188 144.585938 59.054688 145 58.398438 142.859375 C 57.914062 140.476562 63.476562 136.945312 64.679688 133.449219 C 66.019531 130.847656 66.59375 127.917969 66.332031 125.003906 C 65.65625 117.410156 65.410156 106.585938 63.886719 99.078125 C 62.519531 92.335938 59.972656 85.394531 55.707031 79.96875 C 53.832031 77.621094 52.230469 74.996094 50.8125 72.347656 C 45.492188 81.152344 39.800781 90.558594 36.820312 100.449219 C 36.210938 103.070312 36.09375 105.855469 36.882812 108.425781 C 36.953125 108.851562 36.847656 109.445312 36.488281 109.722656 C 33.671875 110.792969 34.382812 105.617188 34.335938 103.992188 C 32.769531 106.417969 31.199219 108.839844 29.632812 111.265625 C 29.269531 111.96875 28.25 112.234375 27.808594 111.472656 C 27.011719 109.898438 32.191406 104.625 33.140625 102.742188 C 30.929688 103.425781 28.523438 105.25 26.1875 104.644531 C 25.238281 104.300781 25.496094 103.242188 26.21875 102.804688 C 29.078125 102.882812 31.738281 101.125 33.480469 98.855469 C 39.296875 88.277344 46.300781 65.203125 49.917969 57.578125 C 58.101562 44.511719 59.589844 30.761719 50.039062 17.296875 C 54.113281 22.007812 62.042969 22.035156 66.277344 17.515625 C 64.539062 22.460938 60.050781 26.449219 59.734375 31.878906 C 59.507812 37.496094 63.539062 42.699219 68.960938 44.148438 C 73.761719 45.628906 81.457031 44.625 82.792969 38.785156 C 83.535156 32.550781 79.011719 25.574219 77.347656 19.515625 C 80.527344 23.34375 86.984375 23.960938 91.296875 21.941406 C 87.089844 25.285156 86.207031 30.078125 87.074219 35.386719 C 87.847656 40.09375 91.6875 45.964844 95.289062 49.785156 C 96.210938 50.761719 96.894531 51.933594 97.300781 53.214844 C 102.941406 67.0625 107.59375 82.589844 114.328125 95.863281 C 116.070312 98.132812 118.730469 99.886719 121.589844 99.808594 C 122.3125 100.246094 122.574219 101.304688 121.621094 101.648438 C 119.285156 102.257812 116.882812 100.433594 114.667969 99.746094 C 115.621094 101.636719 120.789062 106.886719 120 108.476562 C 119.558594 109.238281 118.542969 108.972656 118.175781 108.269531 C 116.609375 105.847656 115.042969 103.421875 113.472656 101 C 113.730469 102.484375 113.507812 109.261719 110.984375 106.183594 C 111.25 103.328125 111.890625 100.367188 110.988281 97.457031 C 108.082031 88.273438 104.234375 81.046875 99.277344 72.855469 " fill-opacity="1" fill-rule="nonzero"/><path fill="#70cfd5" d="M 38.492188 110.359375 C 38.53125 112.996094 34.398438 112.996094 34.4375 110.359375 C 34.398438 107.726562 38.53125 107.726562 38.492188 110.359375 " fill-opacity="1" fill-rule="nonzero"/><path fill="#70cfd5" d="M 29.671875 111.984375 C 29.710938 114.621094 25.578125 114.621094 25.617188 111.984375 C 25.578125 109.351562 29.710938 109.351562 29.671875 111.984375 " fill-opacity="1" fill-rule="nonzero"/><g clip-path="url(#9102e9520e)"><path fill="#70cfd5" d="M 27.644531 104.675781 C 27.683594 107.308594 23.550781 107.308594 23.589844 104.675781 C 23.550781 102.042969 27.683594 102.042969 27.644531 104.675781 " fill-opacity="1" fill-rule="nonzero"/></g><path fill="#70cfd5" d="M 124.003906 99.230469 C 126.230469 100.632812 123.976562 104.101562 121.792969 102.632812 C 119.566406 101.226562 121.820312 97.757812 124.003906 99.230469 " fill-opacity="1" fill-rule="nonzero"/><path fill="#70cfd5" d="M 120.550781 107.515625 C 122.777344 108.917969 120.519531 112.386719 118.335938 110.917969 C 116.109375 109.511719 118.367188 106.042969 120.550781 107.515625 " fill-opacity="1" fill-rule="nonzero"/><path fill="#70cfd5" d="M 113.328125 105.226562 C 115.550781 106.632812 113.296875 110.097656 111.113281 108.628906 C 108.886719 107.222656 111.144531 103.757812 113.328125 105.226562 " fill-opacity="1" fill-rule="nonzero"/><path fill="#ed2227" d="M 81.339844 70.019531 C 78.945312 70.96875 76.339844 71.398438 73.765625 71.207031 C 78.039062 68.925781 74.441406 65.023438 76.792969 62.746094 C 82.128906 60.898438 84.050781 65.964844 81.339844 70.019531 " fill-opacity="1" fill-rule="nonzero"/><path fill="#92191e" d="M 77.9375 69.800781 C 77.710938 69.800781 77.597656 69.480469 77.792969 69.34375 C 79.453125 68.136719 80.101562 65.789062 79.300781 63.898438 C 79.246094 63.769531 79.308594 63.621094 79.4375 63.566406 C 81.078125 65.011719 79.835938 68.800781 77.945312 69.800781 C 77.941406 69.800781 77.9375 69.800781 77.9375 69.800781 " fill-opacity="1" fill-rule="nonzero"/><path fill="#040606" d="M 74.984375 71.507812 C 70.179688 71.433594 64.15625 69.3125 61.710938 65.277344 C 64.996094 67.960938 69.042969 70.863281 73.785156 70.953125 C 79.523438 71.40625 85.503906 68.585938 88.875 63.980469 C 89.0625 63.714844 89.488281 64.019531 89.285156 64.285156 C 86.058594 68.6875 80.480469 71.53125 74.984375 71.507812 " fill-opacity="1" fill-rule="nonzero"/><path fill="#599da4" d="M 65.105469 139.695312 C 64.347656 139.695312 61.640625 139.273438 62.914062 138.789062 C 63.667969 139.046875 64.460938 139.175781 65.25 139.175781 C 65.738281 139.175781 66.222656 139.128906 66.699219 139.03125 C 66.714844 139.027344 66.734375 139.023438 66.75 139.023438 C 66.867188 139.023438 66.972656 139.109375 67 139.230469 C 66.910156 139.628906 66.402344 139.65625 65.925781 139.65625 C 65.886719 139.65625 65.847656 139.65625 65.808594 139.65625 C 65.769531 139.65625 65.730469 139.65625 65.695312 139.65625 C 65.527344 139.65625 65.371094 139.660156 65.253906 139.683594 C 65.21875 139.691406 65.167969 139.695312 65.105469 139.695312 " fill-opacity="1" fill-rule="nonzero"/><path fill="#599da4" d="M 92.289062 138.796875 C 92.25 138.792969 92.207031 138.789062 92.160156 138.789062 C 92.121094 138.789062 92.082031 138.789062 92.039062 138.792969 C 91.996094 138.792969 91.953125 138.792969 91.910156 138.792969 C 91.675781 138.792969 91.453125 138.757812 91.449219 138.5 C 91.457031 138.367188 91.570312 138.265625 91.699219 138.265625 C 91.707031 138.265625 91.714844 138.265625 91.71875 138.265625 C 91.910156 138.28125 92.101562 138.289062 92.289062 138.289062 C 93.382812 138.289062 94.460938 138.042969 95.445312 137.5625 C 95.480469 137.546875 95.519531 137.539062 95.554688 137.539062 C 95.652344 137.539062 95.742188 137.589844 95.785156 137.679688 C 95.402344 138.671875 93.292969 138.695312 92.289062 138.796875 " fill-opacity="1" fill-rule="nonzero"/><path fill="#ffffff" d="M 60.953125 15.65625 C 60.960938 16.25 60.03125 16.25 60.039062 15.65625 C 60.03125 15.066406 60.960938 15.066406 60.953125 15.65625 " fill-opacity="1" fill-rule="nonzero"/><path fill="#ffffff" d="M 84.273438 12.664062 C 84.292969 14.242188 81.816406 14.242188 81.839844 12.664062 C 81.816406 11.082031 84.296875 11.082031 84.273438 12.664062 " fill-opacity="1" fill-rule="nonzero"/><path fill="#ffffff" d="M 56.691406 10.9375 C 56.714844 12.515625 54.238281 12.515625 54.261719 10.9375 C 54.238281 9.355469 56.714844 9.355469 56.691406 10.9375 " fill-opacity="1" fill-rule="nonzero"/><path fill="#ffffff" d="M 87.71875 17.382812 C 87.730469 18.105469 86.59375 18.105469 86.605469 17.382812 C 86.59375 16.65625 87.730469 16.65625 87.71875 17.382812 " fill-opacity="1" fill-rule="nonzero"/></svg>